<svg viewBox="0 0 19 19" xmlns="http://www.w3.org/2000/svg" xmlns:xlink="http://www.w3.org/1999/xlink" width="19.000000" height="19.000000" fill="none" customFrame="#000000">
	<rect id="容器 314" width="19.000000" height="19.000000" x="0.000000" y="0.000000" fill="rgb(196,196,196)" fill-opacity="0" />
	<path id="矢量 293" d="M9.50125 5.07174C9.40069 5.07174 9.30273 5.08105 9.20359 5.08689L9.20359 6.88756C9.3033 6.87858 9.3992 6.85763 9.50125 6.85763C11.3095 6.85763 12.7754 8.32346 12.7754 10.1317C12.7754 10.4433 12.7178 10.739 12.6364 11.0247L14.4778 11.0247C14.5296 10.7343 14.5612 10.4369 14.5612 10.1317C14.5612 7.33725 12.2957 5.07174 9.50125 5.07174L9.50125 5.07174ZM9.50125 1.5C9.40069 1.5 9.3033 1.51164 9.20359 1.51513L9.20359 3.30102C9.30302 3.29667 9.40069 3.28592 9.50125 3.28592C13.282 3.28592 16.3471 6.35073 16.3471 10.1318C16.3471 10.4352 16.3207 10.7317 16.2823 11.0247L18.0868 11.0247C18.1175 10.728 18.1329 10.43 18.133 10.1318C18.133 5.36448 14.2685 1.50003 9.50125 1.50003L9.50125 1.5ZM12.6396 13.653C11.6484 13.2739 10.7096 12.7862 9.62128 13.8021C8.94956 14.429 8.46385 14.3605 8.02465 14.127C7.58572 13.8936 4.8816 11.1329 4.51245 10.2297C4.14331 9.32658 4.34271 9.20451 4.51245 8.93071C4.68194 8.65659 5.85943 8.01713 5.15105 6.00774C4.4424 3.99832 3.88604 2.4851 1 6.00774C0.70062 6.37311 1 7.9564 1 7.9564C1 7.9564 3.03499 14.6084 9.94044 17.3747C11.0124 17.804 13.4334 17.1241 14.4107 15.426C14.8897 14.5938 14.195 14.2476 12.6396 13.653L12.6396 13.653Z" fill="rgb(0,152,255)" fill-rule="nonzero" />
</svg>
