<svg viewBox="0 0 20 20" xmlns="http://www.w3.org/2000/svg" xmlns:xlink="http://www.w3.org/1999/xlink" width="20.000000" height="20.000000" fill="none" customFrame="#000000">
	<rect id="容器 264" width="20.000000" height="20.000000" x="0.000000" y="0.000000" fill="rgb(196,196,196)" fill-opacity="0" />
	<g id="组合 891">
		<path id="矢量 466" d="M17.5 10C17.5 8.34314 14.1421 7 10 7C5.85786 7 2.5 8.34314 2.5 10C2.5 11.6569 5.85786 13 10 13C14.1421 13 17.5 11.6569 17.5 10Z" fill-rule="nonzero" stroke="rgb(0,0,0)" stroke-linecap="square" stroke-width="1.000000" />
		<path id="矢量 467" d="M10 17.5C8.34314 17.5 7 14.1421 7 10C7 5.85786 8.34314 2.5 10 2.5C11.6569 2.5 13 5.85786 13 10C13 14.1421 11.6569 17.5 10 17.5Z" fill-rule="nonzero" stroke="rgb(0,0,0)" stroke-linecap="square" stroke-width="1.000000" />
		<circle id="椭圆 3" cx="10" cy="10" r="7.5" stroke="rgb(0,0,0)" stroke-width="1.000000" />
	</g>
</svg>
