<svg viewBox="0 0 20 20" xmlns="http://www.w3.org/2000/svg" xmlns:xlink="http://www.w3.org/1999/xlink" width="20.000000" height="20.000000" fill="none" customFrame="#000000">
	<rect id="容器 355" width="20.000000" height="20.000000" x="0.000000" y="0.000000" fill="rgb(157,157,157)" fill-opacity="0" />
	<g id="组合 888">
		<path id="矢量 450" d="M15.3033 15.3033C16.6605 13.946 17.5 12.0711 17.5 10C17.5 7.92895 16.6605 6.05395 15.3033 4.6967C13.946 3.33947 12.0711 2.5 10 2.5C7.92895 2.5 6.05395 3.33947 4.6967 4.6967C3.33947 6.05395 2.5 7.92895 2.5 10C2.5 12.0711 3.33947 13.946 4.6967 15.3033C6.05395 16.6605 7.92895 17.5 10 17.5C12.0711 17.5 13.946 16.6605 15.3033 15.3033Z" fill-rule="nonzero" stroke="rgb(0,0,0)" stroke-width="1" />
		<path id="矢量 451" d="M10 11.7344L10 10.2344C11.2426 10.2344 12.25 9.22701 12.25 7.98438C12.25 6.74174 11.2426 5.73438 10 5.73438C8.75736 5.73438 7.75 6.74174 7.75 7.98438" fill-rule="nonzero" stroke="rgb(0,0,0)" stroke-width="1" />
		<path id="矢量 452" d="M10 15.1094C10.5178 15.1094 10.9375 14.6896 10.9375 14.1719C10.9375 13.6541 10.5178 13.2344 10 13.2344C9.48224 13.2344 9.0625 13.6541 9.0625 14.1719C9.0625 14.6896 9.48224 15.1094 10 15.1094Z" fill="rgb(0,0,0)" fill-rule="evenodd" />
	</g>
</svg>
