<svg viewBox="0 0 30 22.001" xmlns="http://www.w3.org/2000/svg" xmlns:xlink="http://www.w3.org/1999/xlink" width="30.000000" height="22.000977" fill="none" customFrame="#000000">
	<defs>
		<linearGradient id="paint_linear_0" x1="-1.23339081" x2="37.2961731" y1="20.0731506" y2="-1.46117973" gradientUnits="userSpaceOnUse">
			<stop stop-color="rgb(0,116,255)" offset="0.0399999991" stop-opacity="1" />
			<stop stop-color="rgb(4,159,252)" offset="0.159999996" stop-opacity="1" />
			<stop stop-color="rgb(8,203,250)" offset="0.300000012" stop-opacity="1" />
			<stop stop-color="rgb(11,230,248)" offset="0.409999996" stop-opacity="1" />
			<stop stop-color="rgb(12,241,248)" offset="0.469999999" stop-opacity="1" />
			<stop stop-color="rgb(14,241,241)" offset="0.519999981" stop-opacity="1" />
			<stop stop-color="rgb(19,242,223)" offset="0.579999983" stop-opacity="1" />
			<stop stop-color="rgb(28,243,193)" offset="0.649999976" stop-opacity="1" />
			<stop stop-color="rgb(41,246,152)" offset="0.74000001" stop-opacity="1" />
			<stop stop-color="rgb(47,247,135)" offset="0.769999981" stop-opacity="1" />
			<stop stop-color="rgb(49,247,126)" offset="0.790000021" stop-opacity="1" />
			<stop stop-color="rgb(56,248,103)" offset="0.839999974" stop-opacity="1" />
			<stop stop-color="rgb(67,251,65)" offset="0.899999976" stop-opacity="1" />
			<stop stop-color="rgb(83,254,14)" offset="0.959999979" stop-opacity="1" />
			<stop stop-color="rgb(88,255,0)" offset="0.980000019" stop-opacity="1" />
		</linearGradient>
	</defs>
	<path id="矢量 471" d="M29.9972 0.00138924L24.0108 0.00138924C22.8469 0.00138924 21.7732 0.833373 21.4607 1.98065L18.1953 13.9506L17.7133 15.7174L16.9994 0.00138924L7.99759 0.00138924C6.84059 0.00138924 5.77388 0.829205 5.46275 1.96676L0 21.9982C0 21.9982 2.71271e-06 22.001 0.00278061 22.001L6.01972 22.001C7.167 22.001 8.22399 21.1815 8.53095 20.0523L12.2436 6.4378L12.2436 6.44197L12.9992 21.9996L21.9969 21.9996C23.1566 21.9996 24.2275 21.169 24.5386 20.0273L30 0.0027785C30 0.0027785 30 0 29.9986 0L29.9972 0.00138924Z" fill="url(#paint_linear_0)" fill-rule="nonzero" />
</svg>
