<svg viewBox="0 0 16 16" xmlns="http://www.w3.org/2000/svg" xmlns:xlink="http://www.w3.org/1999/xlink" width="16.000000" height="16.000000" fill="none" customFrame="#000000">
	<g id="组合 905">
		<path id="矢量 479" d="M8 16C10.2091 16 12.2091 15.1046 13.6568 13.6568C15.1046 12.2091 16 10.2091 16 8C16 5.79088 15.1046 3.79088 13.6568 2.34314C12.2091 0.895432 10.2091 0 8 0C5.79088 0 3.79088 0.895432 2.34314 2.34314C0.895432 3.79088 0 5.79088 0 8C0 10.2091 0.895432 12.2091 2.34314 13.6568C3.79088 15.1046 5.79088 16 8 16Z" fill="rgb(103,189,106)" fill-rule="nonzero" />
		<path id="矢量 480" d="M4.79999 8.00059L7.19999 10.4006L12 5.60059" fill="rgb(103,189,106)" fill-rule="nonzero" />
		<path id="矢量 480" d="M4.79999 8.00059L7.19999 10.4006L12 5.60059" fill-rule="nonzero" stroke="rgb(255,255,255)" stroke-linecap="square" stroke-width="1.200000" />
	</g>
</svg>
