<svg viewBox="0 0 233.425 154.425" xmlns="http://www.w3.org/2000/svg" xmlns:xlink="http://www.w3.org/1999/xlink" width="233.424805" height="154.425049" fill="none" customFrame="#000000">
	<g id="组合 925">
		<path id="矩形 207" d="M124.57 148.979L22.974 148.979C19.8586 148.979 16.8776 148.377 14.031 147.173C11.2822 146.01 8.84812 144.369 6.72879 142.25C4.60944 140.13 2.96845 137.696 1.80581 134.948C0.601807 132.101 -0.000197172 129.12 -0.000197172 126.004L-0.000195265 22.9742C-0.000195265 19.8588 0.601809 16.8778 1.80582 14.0312C2.96845 11.2824 4.60944 8.84839 6.72879 6.72903C8.84815 4.60968 11.2822 2.96869 14.031 1.80606C16.8776 0.602051 19.8586 4.70877e-05 22.974 4.69685e-05L93.5552 4.88758e-05L93.5552 2.85005L22.974 2.85005C20.2439 2.85005 17.6329 3.37701 15.1412 4.43092C12.7337 5.44919 10.6014 6.88698 8.74405 8.74429C6.88674 10.6016 5.44895 12.734 4.43068 15.1414C3.37676 17.6332 2.8498 20.2441 2.8498 22.9742L2.8498 126.004C2.8498 128.735 3.37676 131.346 4.43068 133.837C5.44895 136.245 6.88674 138.377 8.74405 140.234C10.6014 142.092 12.7337 143.53 15.1412 144.548C17.6329 145.602 20.2438 146.129 22.974 146.129L124.57 146.129L124.57 148.979ZM93.5352 0.0200424L93.5552 4.57764e-05C94.3532 4.57764e-05 94.9802 0.627052 94.9802 1.42505C94.9802 2.22305 94.3532 2.85005 93.5552 2.85005L93.5352 2.83006L93.5352 0.0200424ZM124.55 146.149L124.57 146.129C125.368 146.129 125.995 146.756 125.995 147.554C125.995 148.352 125.368 148.979 124.57 148.979L124.55 148.959L124.55 146.149Z" fill="rgb(225,227,236)" fill-rule="nonzero" />
		<path id="矩形 208" d="M99.9073 27.9109L2.33691 27.9109L2.33691 51.6568L106.326 50.7435L99.9073 27.9109Z" fill="rgb(225,227,236)" fill-rule="evenodd" />
		<path id="矢量 582" d="M14.1953 126.891L90.8203 126.891" stroke="rgb(225,227,236)" stroke-linecap="round" stroke-width="6.80500937" />
		<path id="矢量 583" d="M14.1953 111.585L52.6171 111.585" stroke="rgb(225,227,236)" stroke-linecap="round" stroke-width="6.80500937" />
		<path id="矩形 209" d="M123.325 148.247L94.2112 95.9623L109.634 67.4189L110.887 68.0963L109.508 68.4549L92.1765 1.81449L94.9348 1.09713L112.408 68.2803L97.0902 96.6294L95.8365 95.952L97.0815 95.2587L125.815 146.86L123.325 148.247ZM125.788 146.853L125.815 146.86C126.204 147.557 125.961 148.41 125.264 148.799C124.567 149.187 123.714 148.944 123.325 148.247L123.333 148.22L125.788 146.853ZM92.2009 1.82881L92.1765 1.81449C91.9757 1.04218 92.4247 0.277551 93.197 0.0766901C93.9693 -0.124171 94.7339 0.324823 94.9348 1.09713L94.9205 1.12152L92.2009 1.82881Z" fill="rgb(225,227,236)" fill-rule="nonzero" />
		<g id="组合 924">
			<path id="矩形 213" d="M-0.0172737 -0.147076L83.5784 -1.16049C86.7195 -1.19857 89.7302 -0.623566 92.6105 0.564521C95.3905 1.71121 97.8548 3.34592 100.003 5.46864C102.152 7.59136 103.816 10.0356 104.997 12.8015C106.22 15.6672 106.831 18.6707 106.831 21.812L106.831 124.579C106.831 127.694 106.229 130.675 105.025 133.522C103.862 136.271 102.221 138.705 100.102 140.824C97.9828 142.944 95.5487 144.585 92.7999 145.747C89.9534 146.951 86.9724 147.553 83.8569 147.553L6.43348 147.553L6.43348 144.703L83.8569 144.703C86.5871 144.703 89.198 144.176 91.6897 143.122C94.0972 142.104 96.2296 140.666 98.0869 138.809C99.9441 136.952 101.382 134.819 102.4 132.412C103.454 129.92 103.981 127.309 103.981 124.579L103.981 21.812C103.981 19.0591 103.446 16.4285 102.375 13.9201C101.342 11.4977 99.8833 9.35637 98.0004 7.49608C96.1174 5.63578 93.9585 4.20348 91.5238 3.19918C89.0026 2.15922 86.3657 1.65593 83.613 1.6893L0.0172737 2.70271L-0.0172737 -0.147076ZM0.0370299 2.68247L0.0172738 2.70271C-0.780667 2.71239 -1.41522 2.09303 -1.4249 1.29509C-1.43457 0.497151 -0.815215 -0.137403 -0.0172738 -0.147076L0.00296724 -0.12732L0.0370299 2.68247ZM6.45348 147.533L6.43347 147.553C5.63547 147.553 5.00848 146.926 5.00848 146.128C5.00848 145.33 5.63547 144.703 6.43347 144.703L6.45348 144.723L6.45348 147.533Z" fill="rgb(225,227,236)" fill-rule="nonzero" transform="matrix(0.997897,0.0648487,-0.0646905,0.997903,128.157,1.6521)" />
			<path id="矩形 214" d="M102.332 0L0 1.07822L2.82538 23.4994L102.332 23.7458L102.332 0Z" fill="rgb(225,227,236)" fill-rule="evenodd" transform="matrix(0.997897,0.0648487,-0.0646905,0.997903,129.512,28.2817)" />
			<rect id="矩形 217" width="40.586555" height="24.998207" x="0.000000" y="0.000000" rx="4.750000" fill="rgb(225,227,236)" transform="matrix(0.997912,0.0646112,-0.0644535,0.997919,173.341,108.525)" />
			<path id="矩形 216" d="M8.24674 -0.165246L16.199 67.9485L1.24643 94.9329L0 94.2422L1.37844 93.881L14.6423 144.489L11.8854 145.212L-1.52323 94.0511L13.484 66.9679L14.7305 67.6586L13.3151 67.8239L5.41597 0.165246L8.24674 -0.165246ZM14.6179 144.475L14.6423 144.489C14.8446 145.261 14.397 146.026 13.6251 146.229C12.8532 146.431 12.0877 145.984 11.8854 145.212L11.8997 145.187L14.6179 144.475ZM5.43815 0.182792L5.41597 0.165246C5.32343 -0.62737 5.87349 -1.32285 6.66611 -1.41539C7.45872 -1.50792 8.1542 -0.957862 8.24674 -0.165246L8.22919 -0.143062L5.43815 0.182792Z" fill="rgb(225,227,236)" fill-rule="nonzero" transform="matrix(0.997897,0.0648487,-0.0646905,0.997903,121.259,2.48462)" />
		</g>
	</g>
</svg>
