<svg viewBox="0 0 20 20" xmlns="http://www.w3.org/2000/svg" xmlns:xlink="http://www.w3.org/1999/xlink" width="20.000000" height="20.000000" fill="none" customFrame="#000000">
	<rect id="容器 268" width="20.000000" height="20.000000" x="0.000000" y="0.000000" fill="rgb(196,196,196)" fill-opacity="0" />
	<path id="矢量 730" d="M18 13.5557C18 14.3359 17.7944 15.1025 17.4048 15.7773C17.0146 16.4531 16.4536 17.0146 15.7778 17.4043C15.1021 17.7949 14.3359 18 13.5557 18L6.44434 18C5.66406 18 4.89795 17.7949 4.22217 17.4043C3.54639 17.0146 2.98535 16.4531 2.59521 15.7773C2.20557 15.1025 2 14.3359 2 13.5557L2 6.44434C2 5.66406 2.20557 4.89746 2.59521 4.22266C2.98535 3.54688 3.54639 2.98535 4.22217 2.5957C4.89795 2.20508 5.66406 2 6.44434 2L13.5557 2C14.3359 2 15.1021 2.20508 15.7778 2.5957C16.4536 2.98535 17.0146 3.54688 17.4048 4.22266C17.7944 4.89746 18 5.66406 18 6.44434L18 13.5557ZM5.55566 14.4443L5.55566 8.22266M9.11133 14.4443L9.11133 11.5557L9.11133 8.22266M9.11133 11.5557C9.11133 8.22266 14.4443 8.22266 14.4443 11.5557L14.4443 14.4443M5.55566 5.56445L5.56445 5.55469" fill-rule="evenodd" stroke="rgb(0,0,0)" stroke-linecap="round" stroke-width="1.000000" />
</svg>
