<svg viewBox="0 0 16 16" xmlns="http://www.w3.org/2000/svg" xmlns:xlink="http://www.w3.org/1999/xlink" width="16.000000" height="16.000000" fill="none" customFrame="#000000">
	<rect id="容器 240" width="16.000000" height="16.000000" x="0.000000" y="0.000000" fill="rgb(196,196,196)" fill-opacity="0" />
	<g id="编组">
		<path id="路径" d="M4.22039 7.99977C4.22039 7.57763 4.29245 7.17266 4.41993 6.79318L2.18177 5.12012C1.73208 6.01342 1.49856 6.99978 1.50001 7.99977C1.50001 9.03463 1.745 10.0108 2.18066 10.8772L4.41772 9.20138C4.28728 8.81417 4.22064 8.40835 4.22039 7.99977Z" fill="rgb(251,188,5)" fill-rule="evenodd" />
		<path id="路径" d="M8.1512 4.15917C9.08792 4.15917 9.9343 4.48381 10.5994 5.01564L12.5344 3.12486C11.3555 2.12047 9.84396 1.5 8.1512 1.5C5.52282 1.5 3.26359 2.97085 2.18164 5.12035L4.42092 6.7934C4.93639 5.26106 6.40633 4.15917 8.1512 4.15917Z" fill="rgb(234,67,53)" fill-rule="evenodd" />
		<path id="路径" d="M8.1512 11.8408C6.40578 11.8408 4.93584 10.7389 4.41981 9.20654L2.18164 10.8796C3.26303 13.0291 5.52226 14.4999 8.1512 14.4999C9.77301 14.4999 11.3217 13.9365 12.4845 12.8801L10.3594 11.2724C9.76026 11.6419 9.00533 11.8408 8.15064 11.8408" fill="rgb(52,168,83)" fill-rule="evenodd" />
		<path id="路径" d="M14.5001 8.00003C14.5001 7.61611 14.4391 7.20228 14.3488 6.81836L8.15088 6.81836L8.15088 9.32961L11.7182 9.32961C11.5403 10.1861 11.0547 10.8442 10.3602 11.2725L12.4848 12.8802C13.7058 11.7711 14.5001 10.1191 14.5001 8.00003Z" fill="rgb(66,133,244)" fill-rule="evenodd" />
	</g>
</svg>
