<svg viewBox="0 0 20 20" xmlns="http://www.w3.org/2000/svg" xmlns:xlink="http://www.w3.org/1999/xlink" width="20.000000" height="20.000000" fill="none" customFrame="#000000">
	<rect id="容器 265" width="20.000000" height="20.000000" x="0.000000" y="0.000000" fill="rgb(196,196,196)" fill-opacity="0" />
	<g id="组合 949">
		<circle id="椭圆 5" cx="10" cy="9.89453125" r="8" stroke="rgb(0,0,0)" stroke-width="1.000000" />
		<path id="矢量 728" d="M10.4453 18.1053L10.4453 13.3836L12.3867 13.3836L12.6 11.0375L10.4453 11.0375L10.4453 9.85264C10.4453 9.74917 10.4702 9.64752 10.5175 9.55791C10.5648 9.46829 10.6328 9.39388 10.7147 9.34214C10.7965 9.29041 10.8894 9.26317 10.984 9.26317L12.6 9.26317L12.6 6.90527L10.984 6.90527C10.5112 6.90527 10.0468 7.04146 9.63732 7.30015C9.22788 7.55883 8.88788 7.9309 8.65149 8.37896C8.4151 8.82701 8.29065 9.33527 8.29065 9.85264L8.29065 11.0375L7.21331 11.0375L7 13.3836L8.29065 13.3836L8.29065 18.1053" stroke="rgb(0,0,0)" stroke-width="1.000000" />
	</g>
</svg>
