<svg viewBox="0 0 16 16" xmlns="http://www.w3.org/2000/svg" xmlns:xlink="http://www.w3.org/1999/xlink" width="16.000000" height="16.000000" fill="none" customFrame="#000000">
	<rect id="容器 239" width="16.000000" height="16.000000" x="0.000000" y="0.000000" fill="rgb(196,196,196)" fill-opacity="0" />
	<g id="编组">
		<path id="形状" d="M9.98251 2.92811C10.461 2.29874 10.824 1.40874 10.6926 0.5C9.91016 0.555625 8.99568 1.06562 8.46197 1.73062C7.97586 2.33311 7.57605 3.22936 7.73217 4.09935C8.58763 4.12622 9.47038 3.60373 9.98251 2.92811ZM13.3866 13.3405C13.8327 12.6555 13.9996 12.3099 14.3461 11.5362C11.8261 10.5762 11.4224 6.98683 13.9165 5.60934C13.1556 4.65372 12.0863 4.09998 11.0772 4.09998C9.7439 4.09998 9.18099 4.73935 8.25446 4.73935C7.3 4.73935 6.57527 4.10185 5.42281 4.10185C4.29002 4.10185 3.08425 4.79497 2.32081 5.97996C1.24578 7.6487 1.42918 10.7862 3.1712 13.4587C3.79439 14.4155 4.62637 15.4899 5.7141 15.4999C6.16556 15.5043 6.46601 15.3693 6.79109 15.2232C7.16332 15.056 7.56785 14.8742 8.26842 14.8705C8.97303 14.8662 9.37123 15.0501 9.73851 15.2197C10.0553 15.366 10.3491 15.5017 10.7967 15.4968C11.8857 15.4886 12.764 14.2968 13.3866 13.3405Z" fill="rgb(0,0,0)" fill-rule="evenodd" />
	</g>
</svg>
