<svg viewBox="0 0 20 20" xmlns="http://www.w3.org/2000/svg" xmlns:xlink="http://www.w3.org/1999/xlink" width="20.000000" height="20.000000" fill="none" customFrame="#000000">
	<rect id="容器 356" width="20.000000" height="20.000000" x="0.000000" y="0.000000" fill="rgb(157,157,157)" fill-opacity="0" />
	<g id="组合 889">
		<path id="矢量 453" d="M15.3033 15.3033C16.6605 13.946 17.5 12.0711 17.5 10C17.5 7.92895 16.6605 6.05395 15.3033 4.6967C13.946 3.33947 12.0711 2.5 10 2.5C7.92895 2.5 6.05395 3.33947 4.6967 4.6967C3.33947 6.05395 2.5 7.92895 2.5 10C2.5 12.0711 3.33947 13.946 4.6967 15.3033C6.05395 16.6605 7.92895 17.5 10 17.5C12.0711 17.5 13.946 16.6605 15.3033 15.3033Z" fill-rule="nonzero" stroke="rgb(0,0,0)" stroke-width="1" />
		<path id="矢量 454" d="M10.0001 5.5C9.50304 5.5 9.1001 5.90294 9.1001 6.4C9.1001 6.89706 9.50304 7.3 10.0001 7.3C10.4972 7.3 10.9001 6.89706 10.9001 6.4C10.9001 5.90294 10.4972 5.5 10.0001 5.5ZM10.6001 7.9L9.4001 7.9L9.4001 14.5L10.6001 14.5L10.6001 7.9Z" fill="rgb(0,0,0)" fill-rule="evenodd" />
	</g>
</svg>
