<svg viewBox="0 0 87 18" xmlns="http://www.w3.org/2000/svg" xmlns:xlink="http://www.w3.org/1999/xlink" width="87.000000" height="18.000000" fill="none" customFrame="#000000">
	<path id="" d="M1.16211 14L1.16211 4.20068L5.95068 4.20068C7.17887 4.20068 8.10514 4.43424 8.72949 4.90137C9.35384 5.36621 9.66602 5.98372 9.66602 6.75391C9.66602 7.26432 9.53955 7.70752 9.28662 8.0835C9.03369 8.45947 8.6862 8.75114 8.24414 8.9585C7.80436 9.16585 7.30078 9.26953 6.7334 9.26953L6.99658 8.69189C7.6141 8.69189 8.15983 8.79443 8.63379 8.99951C9.10775 9.20231 9.47917 9.49967 9.74805 9.8916C10.0192 10.2812 10.1548 10.7586 10.1548 11.3237C10.1548 12.1668 9.82324 12.8242 9.16016 13.2959C8.49707 13.7653 7.52067 14 6.23096 14L1.16211 14ZM3.41113 12.2979L6.06689 12.2979C6.65023 12.2979 7.09456 12.201 7.3999 12.0073C7.70752 11.8114 7.86133 11.5049 7.86133 11.0879C7.86133 10.6732 7.70752 10.3667 7.3999 10.1685C7.09456 9.97021 6.65023 9.87109 6.06689 9.87109L3.24707 9.87109L3.24707 8.22021L5.67041 8.22021C6.22412 8.22021 6.64567 8.12337 6.93506 7.92969C7.22673 7.736 7.37256 7.44661 7.37256 7.06152C7.37256 6.67188 7.22673 6.38135 6.93506 6.18994C6.64567 5.99854 6.22412 5.90283 5.67041 5.90283L3.41113 5.90283L3.41113 12.2979ZM16.6265 14.1641C15.854 14.1641 15.1397 14.0387 14.4834 13.7881C13.8295 13.5352 13.2621 13.1808 12.7813 12.7251C12.3005 12.2671 11.9268 11.7305 11.6602 11.1152C11.3936 10.5 11.2603 9.8278 11.2603 9.09863C11.2603 8.36719 11.3936 7.69499 11.6602 7.08203C11.9268 6.46908 12.3005 5.93359 12.7813 5.47559C13.2621 5.01758 13.8295 4.66325 14.4834 4.4126C15.1374 4.16195 15.8495 4.03662 16.6197 4.03662C17.3944 4.03662 18.1065 4.16195 18.7559 4.4126C19.4076 4.66097 19.9727 5.01416 20.4512 5.47217C20.932 5.9279 21.3057 6.46338 21.5723 7.07861C21.8389 7.69157 21.9722 8.36491 21.9722 9.09863C21.9722 9.83236 21.8389 10.508 21.5723 11.1255C21.3057 11.7407 20.932 12.2762 20.4512 12.7319C19.9727 13.1877 19.4076 13.5409 18.7559 13.7915C18.1065 14.0399 17.3967 14.1641 16.6265 14.1641ZM16.6197 12.2432C17.0572 12.2432 17.4616 12.1668 17.833 12.0142C18.2045 11.8615 18.528 11.6462 18.8037 11.3682C19.0795 11.0879 19.2937 10.7563 19.4463 10.3735C19.6013 9.98844 19.6787 9.56348 19.6787 9.09863C19.6787 8.63151 19.6024 8.20768 19.4497 7.82715C19.2971 7.44434 19.0817 7.11393 18.8037 6.83594C18.528 6.55566 18.2045 6.33919 17.833 6.18652C17.4616 6.03385 17.0572 5.95752 16.6197 5.95752C16.1822 5.95752 15.7777 6.03385 15.4063 6.18652C15.0349 6.33919 14.7102 6.55566 14.4322 6.83594C14.1542 7.11621 13.9377 7.44775 13.7828 7.83057C13.6301 8.2111 13.5538 8.63379 13.5538 9.09863C13.5538 9.5612 13.6301 9.98503 13.7828 10.3701C13.9377 10.7529 14.153 11.0856 14.4288 11.3682C14.7067 11.6484 15.0315 11.8649 15.4029 12.0176C15.7766 12.168 16.1822 12.2432 16.6197 12.2432ZM25.7017 14L25.7017 9.99756L26.2212 11.3716L21.9043 4.20068L24.3174 4.20068L27.6158 9.69678L26.2349 9.69678L29.5538 4.20068L31.772 4.20068L27.4688 11.3716L27.9747 9.99756L27.9747 14L25.7017 14ZM30.6981 14L35.0663 4.20068L37.3085 4.20068L41.6869 14L39.3182 14L35.7225 5.35254L36.6215 5.35254L33.0258 14L30.6981 14ZM32.889 11.9048L33.4838 10.1821L38.5355 10.1821L39.1371 11.9048L32.889 11.9048ZM46.6761 14L46.6761 4.20068L48.5457 4.20068L54.3324 11.2622L53.4266 11.2622L53.4266 4.20068L55.6688 4.20068L55.6688 14L53.7957 14L48.0091 6.93848L48.9149 6.93848L48.9149 14L46.6761 14ZM61.4129 14.106C60.6131 14.106 59.9033 13.9396 59.2835 13.6069C58.6637 13.2743 58.175 12.8162 57.8172 12.2329C57.4595 11.6496 57.2806 10.9819 57.2806 10.23C57.2806 9.47347 57.4595 8.80469 57.8172 8.22363C58.1772 7.64258 58.666 7.18685 59.2835 6.85645C59.901 6.52604 60.6108 6.36084 61.4129 6.36084C62.2127 6.36084 62.9237 6.52604 63.5457 6.85645C64.1701 7.18685 64.6588 7.64258 65.012 8.22363C65.3652 8.80241 65.5418 9.47119 65.5418 10.23C65.5418 10.9842 65.3652 11.653 65.012 12.2363C64.6611 12.8174 64.1724 13.2743 63.5457 13.6069C62.9214 13.9396 62.2104 14.106 61.4129 14.106ZM61.4129 12.3184C61.7798 12.3184 62.1068 12.2363 62.3939 12.0723C62.6833 11.9059 62.9123 11.6644 63.0809 11.3477C63.2495 11.0309 63.3338 10.6584 63.3338 10.23C63.3338 9.79476 63.2495 9.4222 63.0809 9.1123C62.9123 8.80241 62.6833 8.56543 62.3939 8.40137C62.1068 8.23503 61.7809 8.15186 61.4163 8.15186C61.0495 8.15186 60.7225 8.23503 60.4354 8.40137C60.1483 8.56543 59.9181 8.80241 59.7449 9.1123C59.574 9.4222 59.4886 9.79476 59.4886 10.23C59.4886 10.6584 59.574 11.0309 59.7449 11.3477C59.9181 11.6644 60.1483 11.9059 60.4354 12.0723C60.7225 12.2363 61.0483 12.3184 61.4129 12.3184ZM70.0873 14.106C69.1964 14.106 68.5048 13.8815 68.0126 13.4326C67.5204 12.9837 67.2743 12.3104 67.2743 11.4126L67.2743 4.79883L69.4584 4.79883L69.4584 11.375C69.4584 11.694 69.5404 11.9412 69.7045 12.1167C69.8708 12.2922 70.0987 12.3799 70.3881 12.3799C70.7367 12.3799 71.033 12.2876 71.2768 12.103L71.8578 13.6411C71.6368 13.7983 71.3702 13.9157 71.058 13.9932C70.7458 14.0684 70.4223 14.106 70.0873 14.106ZM66.1054 8.14502L66.1054 6.47021L71.3315 6.47021L71.3315 8.14502L66.1054 8.14502ZM73.0977 14L73.0977 6.47021L75.1793 6.47021L75.1793 8.59961L74.8922 7.98438C75.1132 7.44889 75.4709 7.04443 75.9654 6.771C76.4599 6.49756 77.0637 6.36084 77.7769 6.36084L77.7769 8.37744C77.6812 8.36377 77.5946 8.35352 77.5172 8.34668C77.442 8.33984 77.3656 8.33643 77.2881 8.33643C76.682 8.33643 76.1955 8.50846 75.8287 8.85254C75.4641 9.19661 75.2818 9.72754 75.2818 10.4453L75.2818 14L73.0977 14ZM83.1966 14L83.1966 12.5337L83.0633 12.2021L83.0633 9.57373C83.0633 9.10661 82.9208 8.7443 82.636 8.48682C82.3512 8.22705 81.9125 8.09717 81.3201 8.09717C80.9236 8.09717 80.5317 8.15983 80.1443 8.28516C79.7569 8.4082 79.4254 8.57682 79.1497 8.79102L78.3704 7.27344C78.7851 6.97494 79.2807 6.74821 79.8572 6.59326C80.4337 6.43831 81.0216 6.36084 81.6209 6.36084C82.7716 6.36084 83.6637 6.632 84.2971 7.17432C84.9306 7.71436 85.2473 8.55518 85.2473 9.69678L85.2473 14L83.1966 14ZM80.9065 14.106C80.3209 14.106 79.8173 14.0068 79.3958 13.8086C78.9765 13.6104 78.6552 13.3392 78.4319 12.9951C78.2109 12.6488 78.1004 12.2591 78.1004 11.8262C78.1004 11.3841 78.2086 10.9945 78.4251 10.6572C78.6438 10.32 78.9913 10.0557 79.4676 9.86426C79.9438 9.67285 80.5636 9.57715 81.3269 9.57715L83.323 9.57715L83.323 10.8486L81.5696 10.8486C81.0546 10.8486 80.7014 10.9318 80.51 11.0981C80.3186 11.2645 80.2229 11.4775 80.2229 11.7373C80.2229 12.0107 80.3312 12.2306 80.5476 12.397C80.7664 12.561 81.066 12.6431 81.4466 12.6431C81.8134 12.6431 82.1427 12.5576 82.4343 12.3867C82.726 12.2158 82.9357 11.9595 83.0633 11.6177L83.3948 12.6328C83.2399 13.1113 82.9516 13.4771 82.5301 13.73C82.1108 13.9806 81.5696 14.106 80.9065 14.106Z" fill="rgb(0,0,0)" fill-rule="nonzero" />
</svg>
