<svg viewBox="0 0 33.0159 41.9048" xmlns="http://www.w3.org/2000/svg" xmlns:xlink="http://www.w3.org/1999/xlink" width="33.015869" height="41.904785" fill="none" customFrame="#000000">
	<path id="矢量 42" d="M20.9524 0.952393L20.9524 9.84129C20.9524 11.3228 21.6931 12.0635 23.1746 12.0635L32.0635 12.0635M5.39686 40.9524C4.16953 40.9524 3.12199 40.5185 2.25413 39.6507C1.38632 38.7828 0.952393 37.7353 0.952393 36.508L0.952393 5.39683C0.952393 4.16953 1.38632 3.12196 2.25413 2.25413C3.12199 1.38629 4.16953 0.952393 5.39686 0.952393L20.9524 0.952393L32.0635 12.0635L32.0635 36.508C32.0635 37.7353 31.6296 38.7828 30.7617 39.6507C29.8939 40.5185 28.8463 40.9524 27.6191 40.9524L5.39686 40.9524ZM9.84126 32.0635L9.84126 20.9524M16.5079 32.0635L16.5079 29.8413M23.1746 32.0635L23.1746 25.3968" fill-rule="evenodd" stroke="rgb(154,154,154)" stroke-linecap="round" stroke-linejoin="round" stroke-width="1.90476215" />
</svg>
