<svg viewBox="0 0 16 16" xmlns="http://www.w3.org/2000/svg" xmlns:xlink="http://www.w3.org/1999/xlink" width="16.000000" height="16.000000" fill="none" customFrame="#000000">
	<rect id="容器 237" width="16.000000" height="16.000000" x="0.000000" y="0.000000" fill="rgb(196,196,196)" fill-opacity="0" />
	<path id="矢量 327" d="M13.7437 7.3C14.1402 7.3 14.4617 7.61343 14.4617 8L14.4617 14.3C14.4617 14.6866 14.1402 15 13.7437 15L2.25652 15C1.86004 15 1.53857 14.6866 1.53857 14.3L1.53857 8C1.53857 7.61343 1.86004 7.3 2.25652 7.3L13.7437 7.3ZM4.41037 7.3L4.41037 4.5C4.41037 2.56714 6.01752 1 8.00011 1C9.98271 1 11.5899 2.56714 11.5899 4.5L11.5899 7.3M8.00011 10.1L8.00011 12.2" fill-rule="evenodd" stroke="rgb(0,0,0)" stroke-width="1.000000" />
</svg>
