<svg viewBox="0 0 21 21" xmlns="http://www.w3.org/2000/svg" xmlns:xlink="http://www.w3.org/1999/xlink" width="21.000000" height="21.000000" fill="none" customFrame="#000000">
	<g id="组合 888">
		<path id="矢量 450" d="M17.5711 17.5711C19.3807 15.7614 20.5 13.2614 20.5 10.5C20.5 7.7386 19.3807 5.2386 17.5711 3.42893C15.7614 1.61929 13.2614 0.5 10.5 0.5C7.7386 0.5 5.2386 1.61929 3.42893 3.42893C1.61929 5.2386 0.5 7.7386 0.5 10.5C0.5 13.2614 1.61929 15.7614 3.42893 17.5711C5.2386 19.3807 7.7386 20.5 10.5 20.5C13.2614 20.5 15.7614 19.3807 17.5711 17.5711Z" fill-rule="nonzero" stroke="rgb(0,0,0)" stroke-width="1" />
		<path id="矢量 451" d="M10.5 12.8125L10.5 10.8125C12.1568 10.8125 13.5 9.46935 13.5 7.8125C13.5 6.15565 12.1568 4.8125 10.5 4.8125C8.84315 4.8125 7.5 6.15565 7.5 7.8125" fill-rule="nonzero" stroke="rgb(0,0,0)" stroke-width="1" />
		<path id="矢量 452" d="M10.5 16.5C11.0523 16.5 11.5 16.0523 11.5 15.5C11.5 14.9477 11.0523 14.5 10.5 14.5C9.94772 14.5 9.5 14.9477 9.5 15.5C9.5 16.0523 9.94772 16.5 10.5 16.5Z" fill="rgb(0,0,0)" fill-rule="evenodd" />
	</g>
</svg>
