<svg viewBox="0 0 20 20" xmlns="http://www.w3.org/2000/svg" xmlns:xlink="http://www.w3.org/1999/xlink" width="20.000000" height="20.000000" fill="none" customFrame="#000000">
	<defs>
		<filter id="pixso_custom_mask_type_alpha">
			<feColorMatrix type="matrix" values="0 0 0 0 1 0 0 0 0 1 0 0 0 0 1 0 0 0 1 0 " />
		</filter>
	</defs>
	<mask id="mask_2" width="20.000000" height="20.000000" x="0.000000" y="0.000000" maskUnits="userSpaceOnUse">
		<g filter="url(#pixso_custom_mask_type_alpha)">
			<rect id="矩形 44" width="20.000000" height="20.000000" x="0.000000" y="0.000000" fill="rgb(196,196,196)" />
		</g>
	</mask>
	<g id="组合 136" mask="url(#mask_2)">
		<path id="矢量 76" d="M7.67092 1.14615C7.43389 1.1695 7.19856 1.20443 6.96493 1.25083C6.73133 1.29733 6.50055 1.3551 6.27263 1.42423C6.04469 1.49337 5.8207 1.57356 5.60064 1.66471C5.38057 1.75585 5.16552 1.85754 4.95546 1.96987C4.7454 2.0821 4.54132 2.20445 4.34327 2.33683C4.14522 2.4691 3.95415 2.61078 3.77002 2.76197C3.58589 2.91305 3.40962 3.07282 3.2412 3.24126C3.07279 3.40971 2.91302 3.5859 2.76191 3.77005C2.61081 3.9542 2.46907 4.14528 2.33675 4.34328C2.20442 4.54138 2.08212 4.74537 1.96984 4.95546C1.85756 5.16555 1.75585 5.3806 1.66468 5.60062C1.57353 5.82073 1.49339 6.04467 1.42426 6.27263C1.3551 6.5006 1.2973 6.73136 1.25083 6.96501C1.20435 7.19856 1.16945 7.43387 1.14612 7.67093C1.12276 7.90799 1.11108 8.14557 1.11108 8.38377C1.11108 8.62197 1.12276 8.85965 1.14612 9.09661C1.16945 9.33367 1.20435 9.56897 1.25083 9.80262C1.2973 10.0363 1.3551 10.267 1.42426 10.4949C1.49339 10.7229 1.57353 10.9469 1.66468 11.1669C1.75585 11.387 1.85756 11.6021 1.96984 11.8121C2.08212 12.0222 2.20442 12.2263 2.33675 12.4243C2.46907 12.6224 2.61081 12.8134 2.76191 12.9976C2.91302 13.1816 3.07279 13.3579 3.2412 13.5264C3.40962 13.6948 3.58589 13.8546 3.77002 14.0057C3.95415 14.1567 4.14522 14.2985 4.34327 14.4308C4.54132 14.5632 4.7454 14.6854 4.95546 14.7978C5.16552 14.91 5.38057 15.0117 5.60064 15.1029C5.8207 15.1941 6.04469 15.2742 6.27263 15.3433C6.50055 15.4124 6.73133 15.4703 6.96493 15.5167C7.19856 15.5632 7.43389 15.5981 7.67092 15.6215C7.90796 15.6448 8.14559 15.6565 8.38376 15.6565C8.62196 15.6565 8.85957 15.6448 9.09663 15.6215C9.33366 15.5981 9.56899 15.5632 9.80259 15.5167C10.0362 15.4703 10.267 15.4124 10.4949 15.3433C10.7229 15.2742 10.9469 15.1941 11.1669 15.1029C11.387 15.0117 11.602 14.91 11.8121 14.7978C12.0222 14.6854 12.2262 14.5632 12.4243 14.4308C12.6223 14.2985 12.8134 14.1567 12.9975 14.0057C13.1816 13.8546 13.3579 13.6948 13.5263 13.5264C13.6948 13.3579 13.8545 13.1816 14.0056 12.9976C14.1567 12.8134 14.2984 12.6224 14.4308 12.4243C14.5631 12.2263 14.6854 12.0222 14.7977 11.8121C14.91 11.6021 15.0117 11.387 15.1028 11.1669C15.194 10.9469 15.2742 10.7229 15.3433 10.4949C15.4124 10.267 15.4702 10.0363 15.5167 9.80262C15.5632 9.56897 15.5981 9.33367 15.6214 9.09661C15.6448 8.85965 15.6565 8.62197 15.6564 8.38377C15.6564 8.14557 15.6448 7.90799 15.6214 7.67093C15.598 7.43397 15.5631 7.19856 15.5166 6.96501C15.4701 6.73136 15.4124 6.5006 15.3432 6.27274C15.274 6.04477 15.1939 5.82083 15.1027 5.60072C15.0116 5.38071 14.9099 5.16566 14.7976 4.95557C14.6853 4.74548 14.563 4.54148 14.4306 4.34338C14.2983 4.14538 14.1566 3.95431 14.0055 3.77015C13.8544 3.58611 13.6946 3.40981 13.5262 3.24136C13.3578 3.07292 13.1815 2.91316 12.9974 2.76207C12.8133 2.61099 12.6222 2.46921 12.4241 2.33693C12.2261 2.20455 12.0221 2.0823 11.812 1.96997C11.6019 1.85775 11.3869 1.75596 11.1668 1.66481C10.9468 1.57366 10.7228 1.49358 10.4949 1.42434C10.267 1.3552 10.0362 1.29744 9.80257 1.25093C9.56897 1.20443 9.33364 1.1695 9.0966 1.14615C8.85956 1.12279 8.62196 1.11111 8.38376 1.11111C8.14559 1.11111 7.90796 1.12279 7.67092 1.14615ZM13.8097 13.8097L18.8889 18.8889" fill-rule="evenodd" stroke="rgb(0,0,0)" stroke-linecap="square" stroke-width="1" />
	</g>
</svg>
