<svg viewBox="0 0 19 19" xmlns="http://www.w3.org/2000/svg" xmlns:xlink="http://www.w3.org/1999/xlink" width="19.000000" height="19.000000" fill="none" customFrame="#000000">
	<rect id="容器 317" width="19.000000" height="19.000000" x="0.000000" y="0.000000" fill="rgb(196,196,196)" fill-opacity="0" />
	<path id="减去顶层" d="M9.50263 0.5C11.3472 0.500711 13.147 1.06816 14.6583 2.12553C16.1697 3.18291 17.3197 4.67914 17.9527 6.41169C18.5856 8.14423 18.671 10.0294 18.1971 11.8121C17.7232 13.5947 16.7131 15.1887 15.3034 16.3783C13.8937 17.5679 12.1525 18.2956 10.3156 18.4629C8.47866 18.6302 6.63466 18.2291 5.03323 17.3138C4.69663 17.1194 3.73363 17.3066 2.14603 17.8718C2.01712 17.9174 1.87818 17.927 1.74423 17.8995C1.61027 17.8719 1.48639 17.8083 1.38596 17.7154C1.28554 17.6226 1.21238 17.5041 1.17439 17.3727C1.13641 17.2414 1.13504 17.1021 1.17043 16.97L1.19743 16.8854L1.27663 16.6874L1.42603 16.2878C1.84183 15.1448 1.96423 14.4302 1.79143 14.144C0.968845 12.7785 0.523724 11.2189 0.501599 9.62491C0.479474 8.03089 0.881138 6.45961 1.66551 5.07176C2.44988 3.68391 3.58881 2.5293 4.96581 1.72604C6.34281 0.922768 7.90846 0.499664 9.50263 0.5ZM12.0964 10.562C12.6119 10.792 13.122 11.0339 13.6264 11.2874C13.8496 11.3972 14.0008 11.4548 14.0566 11.5484C14.1124 11.642 14.1124 12.0866 13.9252 12.6068C13.738 13.1288 12.8452 13.604 12.4132 13.6688C12.028 13.7228 11.5384 13.748 11.0038 13.5788C10.6798 13.4762 10.2604 13.3376 9.7258 13.109C7.4794 12.1424 6.0124 9.8924 5.9008 9.743C5.7892 9.5936 4.9864 8.5352 4.9864 7.4372C4.9864 6.341 5.5642 5.801 5.7694 5.5778C5.84475 5.49316 5.93666 5.42489 6.03945 5.37721C6.14224 5.32953 6.25373 5.30345 6.367 5.3006C6.50985 5.30047 6.65269 5.30347 6.7954 5.3096C6.81058 5.31 6.82632 5.30966 6.84255 5.30931C6.97454 5.30646 7.13911 5.30291 7.2994 5.6876C7.4866 6.134 7.9348 7.232 7.9906 7.3436C8.0464 7.4552 8.0842 7.5848 8.0086 7.7342C7.9348 7.8836 7.897 7.9754 7.7854 8.1068C7.6738 8.2364 7.5514 8.3966 7.4506 8.4956C7.3372 8.609 7.2202 8.7278 7.3516 8.951C7.68807 9.52462 8.10785 10.0451 8.5972 10.4954C9.4522 11.255 10.174 11.4908 10.3972 11.6006C10.6222 11.7122 10.7518 11.6942 10.8832 11.5466C11.1318 11.2651 11.3684 10.9733 11.5924 10.6718C11.7436 10.4504 11.8912 10.4864 12.0964 10.562Z" fill="rgb(37,211,102)" fill-rule="evenodd" />
</svg>
