<svg viewBox="0 0 20 20" xmlns="http://www.w3.org/2000/svg" xmlns:xlink="http://www.w3.org/1999/xlink" width="20.000000" height="20.000000" fill="none" customFrame="#000000">
	<g id="组合 997">
		<path id="路径" d="M20 9.99706C20.0058 15.0375 16.2529 19.2928 11.2476 19.9213C6.24217 20.5498 1.55215 17.3545 0.309601 12.4694C-0.932948 7.58428 1.66118 2.53947 6.35957 0.704017C8.69613 -0.234672 11.3054 -0.234672 13.642 0.704017C17.4742 2.19832 19.9978 5.88691 20 9.99706Z" fill="rgb(191,191,191)" fill-rule="evenodd" />
		<path id="路径" d="M6.15524 7.89146C6.12271 9.4605 6.9291 10.9281 8.27153 11.7429C9.31887 12.3531 10.611 12.3649 11.6693 11.7739C13.0455 10.9699 13.8775 9.4839 13.843 7.89146C14.0044 6.41806 13.3085 4.98216 12.0516 4.19492C10.7946 3.40768 9.19787 3.40768 7.94093 4.19492C6.68399 4.98216 5.98812 6.41806 6.1495 7.89146" fill="rgb(255,255,255)" fill-rule="evenodd" />
		<path id="路径" d="M10.0374 19.3311C12.8451 19.3336 15.5037 18.0687 17.2716 15.8892C17.0695 14.2325 15.4538 12.8214 13.1665 12.1181C11.3556 13.7991 8.54573 13.7734 6.76596 12.0596C4.5406 12.694 2.91119 13.9882 2.52881 15.5393C4.28381 17.9266 7.07275 19.335 10.0374 19.3311Z" fill="rgb(255,255,255)" fill-rule="evenodd" />
	</g>
</svg>
