<svg viewBox="0 0 20 20" xmlns="http://www.w3.org/2000/svg" xmlns:xlink="http://www.w3.org/1999/xlink" width="20.000000" height="20.000000" fill="none" customFrame="#000000">
	<g id="组合 472">
		<path id="矢量-227" d="M20 10C20 4.47705 15.5234 0 10 0C4.47656 0 0 4.47705 0 10C0 15.5229 4.47656 20 10 20C15.5234 20 20 15.5229 20 10ZM18.7783 7.99869C18.9261 8.649 19 9.31611 19 10C19 10.6838 18.9261 11.3507 18.7784 12.0009C18.6623 12.512 18.5006 13.0126 18.2932 13.5029C18.081 14.0046 17.8281 14.4796 17.5345 14.9279C17.1979 15.4416 16.8078 15.9203 16.3642 16.364C15.9205 16.8077 15.4418 17.1978 14.9279 17.5344C14.4797 17.8281 14.0048 18.081 13.5031 18.2931C13.0131 18.5004 12.5126 18.6621 12.0018 18.7782C11.3513 18.9261 10.6841 19 10 19C9.31587 19 8.64854 18.9261 7.99802 18.7782C7.48727 18.6621 6.98687 18.5004 6.49684 18.2931C5.99523 18.081 5.52032 17.8281 5.07209 17.5345C4.55826 17.1978 4.07951 16.8077 3.63583 16.364C3.19224 15.9204 2.80216 15.4417 2.46561 14.928C2.17191 14.4797 1.91897 14.0047 1.70678 13.503C1.49944 13.0127 1.33772 12.5121 1.22161 12.0011C1.07387 11.3508 0.999999 10.6838 0.999999 10C0.999999 9.31612 1.07388 8.64904 1.22165 7.99874C1.33775 7.48781 1.49946 6.98723 1.70678 6.49703C1.91898 5.99528 2.17194 5.52024 2.46567 5.0719C2.80221 4.55821 3.19226 4.07957 3.63583 3.63599C4.07949 3.19231 4.55822 2.80217 5.07203 2.46557C5.52027 2.17192 5.99521 1.91901 6.49684 1.70684C6.98681 1.49961 7.48715 1.33794 7.99784 1.22185C8.64842 1.07395 9.3158 0.999999 10 0.999999C10.6842 0.999999 11.3515 1.07394 12.0021 1.22183C12.5128 1.33793 13.0131 1.4996 13.5031 1.70684C14.0048 1.91901 14.4797 2.17191 14.9279 2.46557C15.4418 2.80217 15.9205 3.19231 16.3642 3.63599C16.8077 4.07959 17.1978 4.55825 17.5344 5.07197C17.8281 5.52028 18.081 5.99531 18.2932 6.49703C18.5005 6.98722 18.6622 7.48777 18.7783 7.99869Z" fill="rgb(0,0,0)" fill-rule="evenodd" />
		<path id="矢量 318" d="M6 9.5L14 9.5L14 10.5L6 10.5L6 9.5ZM9.5 14L9.5 6L10.5 6L10.5 14L9.5 14Z" fill="rgb(0,0,0)" fill-rule="nonzero" />
	</g>
</svg>
