<svg viewBox="0 0 16 16" xmlns="http://www.w3.org/2000/svg" xmlns:xlink="http://www.w3.org/1999/xlink" width="16.000000" height="16.000000" fill="none" customFrame="#000000">
	<rect id="容器 238" width="16.000000" height="16.000000" x="0.000000" y="0.000000" fill="rgb(196,196,196)" fill-opacity="0" />
	<g id="编组">
		<path id="形状" d="M10.6532 5.67321C10.8238 5.67321 10.9944 5.68852 11.1641 5.70298C10.7075 3.64473 8.41716 2.10693 5.80813 2.10693C2.89062 2.11688 0.5 4.03239 0.5 6.46469C0.5 7.86695 1.29689 9.02347 2.62062 9.91888L2.08631 11.4549L3.94436 10.5604C4.61002 10.6869 5.14437 10.8134 5.80157 10.8134C5.97218 10.8134 6.13441 10.8062 6.29656 10.7917C6.19119 10.4424 6.13661 10.0805 6.1344 9.71654C6.14192 7.48659 8.13123 5.67411 10.6541 5.67411L10.6532 5.67321ZM4.08216 5.57018C3.68846 5.57018 3.28535 5.3163 3.28535 4.92863C3.28535 4.54014 3.68846 4.28717 4.08216 4.28717C4.4769 4.28717 4.74783 4.54014 4.74783 4.92864C4.74783 5.30815 4.48533 5.57018 4.08216 5.57018ZM8.4631 4.92864C8.4631 4.54014 8.20062 4.28717 7.79752 4.28717C7.40278 4.28717 7.00061 4.54014 7.00061 4.92863C7.00061 5.3163 7.40278 5.57018 7.79752 5.57018C8.20062 5.57018 8.4631 5.30815 8.4631 4.92864ZM10.9868 5.94878C13.3794 5.94878 15.5 7.61941 15.5 9.6632C15.5 10.8116 14.7031 11.8344 13.6344 12.6168L14.0365 13.8926L12.5815 13.1246C12.0481 13.252 11.5137 13.3785 10.9868 13.3785C8.46403 13.3785 6.47466 11.7142 6.47466 9.6632C6.47466 7.61941 8.46403 5.94878 10.9868 5.94878ZM9.52435 9.02165C9.26187 9.02165 8.98999 8.76867 8.98999 8.50667C8.98999 8.2537 9.26187 7.99168 9.52435 7.99168C9.92745 7.99168 10.19 8.24556 10.19 8.50667C10.19 8.76869 9.92745 9.02166 9.52435 9.02166L9.52435 9.02165ZM11.9159 8.50667C11.9159 8.76867 12.1794 9.02165 12.4428 9.02165L12.4428 9.02166C12.845 9.02166 13.1084 8.76869 13.1084 8.50667C13.1084 8.24556 12.845 7.99168 12.4428 7.99168C12.1784 7.99168 11.9159 8.2537 11.9159 8.50667Z" fill="rgb(9,187,7)" fill-rule="evenodd" />
	</g>
</svg>
