<svg viewBox="0 0 17.2 17.2" xmlns="http://www.w3.org/2000/svg" xmlns:xlink="http://www.w3.org/1999/xlink" width="17.199951" height="17.199951" fill="none" customFrame="#000000">
	<g id="组合 904">
		<path id="矢量 475" d="M8.59998 16.6C13.0183 16.6 16.6 13.0183 16.6 8.59998C16.6 4.1817 13.0183 0.599976 8.59998 0.599976C4.1817 0.599976 0.599976 4.1817 0.599976 8.59998C0.599976 13.0183 4.1817 16.6 8.59998 16.6Z" fill="rgb(255,32,32)" fill-rule="nonzero" />
		<path id="矢量 475" d="M16.6 8.59998C16.6 4.1817 13.0183 0.599976 8.59998 0.599976C4.1817 0.599976 0.599976 4.1817 0.599976 8.59998C0.599976 13.0183 4.1817 16.6 8.59998 16.6C13.0183 16.6 16.6 13.0183 16.6 8.59998Z" fill-rule="nonzero" stroke="rgb(255,32,32)" stroke-width="1.20000005" />
		<path id="矢量 478" d="M10.8628 6.33752L6.33728 10.8628M6.33728 6.33752L10.8628 10.8628" stroke="rgb(255,255,255)" stroke-linecap="square" stroke-width="1.20000005" />
	</g>
</svg>
