<svg viewBox="0 0 19 19" xmlns="http://www.w3.org/2000/svg" xmlns:xlink="http://www.w3.org/1999/xlink" width="19.000000" height="19.000000" fill="none" customFrame="#000000">
	<rect id="容器 315" width="19.000000" height="19.000000" x="0.000000" y="0.000000" fill="rgb(196,196,196)" fill-opacity="0" />
	<path id="矢量 291" d="M9.94248 18.5C9.4438 18.5 8.98004 18.3209 8.67014 18.007L8.63304 17.9686L8.58176 17.9616C7.44529 17.7976 6.36474 17.3358 5.43692 16.6174C4.52517 15.9072 3.78866 14.972 3.29054 13.8919L3.24689 13.7988L1.97674 13.7988C1.84947 13.7986 1.72448 13.7629 1.61423 13.6951C1.50398 13.6274 1.41232 13.53 1.34842 13.4127C1.28451 13.2955 1.25057 13.1624 1.25 13.0267L1.25 8.79536C1.25 8.36978 1.57627 8.02327 1.97674 8.02327L2.58017 8.02327L2.58126 7.85466C2.58419 6.88722 2.7659 5.92987 3.11601 5.03726C3.46613 4.14465 3.97779 3.33425 4.6218 2.65234C5.26146 1.96822 6.02189 1.42582 6.85924 1.05641C7.69658 0.687004 8.59428 0.497904 9.50054 0.500018C11.3425 0.500018 13.0753 1.26513 14.3815 2.6535C15.0256 3.3353 15.5374 4.14567 15.8875 5.03831C16.2376 5.93095 16.4193 6.88835 16.422 7.85582L16.4231 8.02443L17.0265 8.02443C17.1536 8.02402 17.2786 8.05941 17.3887 8.12701C17.4989 8.19461 17.5903 8.29203 17.6537 8.4094C17.7172 8.52677 17.7504 8.65991 17.75 8.79536L17.75 13.0279C17.7496 13.1635 17.7159 13.2965 17.6521 13.4138C17.5883 13.5311 17.4968 13.6285 17.3866 13.6963C17.2765 13.764 17.1516 13.7998 17.0244 13.8L14.8125 13.8C14.6853 13.7998 14.5604 13.764 14.4502 13.6963C14.3401 13.6285 14.2485 13.5311 14.1848 13.4138C14.121 13.2965 14.0872 13.1635 14.0868 13.0279L14.0868 8.79652C14.0868 8.37094 14.412 8.02443 14.8125 8.02443L15.4137 8.02443L15.4127 7.85466C15.3897 4.39187 12.7381 1.5756 9.50164 1.5756C6.26514 1.5756 3.61353 4.39187 3.59062 7.85466L3.58953 8.02443L4.19078 8.02443C4.59016 8.02443 4.91642 8.36978 4.91642 8.79652L4.91642 13.0256C4.91611 13.1652 4.87995 13.3021 4.81186 13.4214C4.74377 13.5407 4.64635 13.6378 4.53014 13.7023L4.37955 13.786L4.46794 13.9384C4.88956 14.6744 5.4485 15.3103 6.11014 15.8067C6.77178 16.3032 7.52203 16.6495 8.31441 16.8244L8.42244 16.8488L8.48137 16.7488C8.74544 16.3035 9.3205 16.0151 9.94466 16.0151C10.8329 16.0151 11.5575 16.5721 11.5575 17.257C11.5575 17.9419 10.8318 18.5 9.94248 18.5L9.94248 18.5Z" fill="rgb(216,144,255)" fill-rule="nonzero" />
</svg>
