<svg viewBox="0 0 12 12" xmlns="http://www.w3.org/2000/svg" xmlns:xlink="http://www.w3.org/1999/xlink" width="12.000000" height="12.000000" fill="none" customFrame="#000000">
	<rect id="容器 64" width="12.000000" height="12.000000" x="0.000000" y="0.000000" fill="rgb(196,196,196)" fill-opacity="0" />
	<g id="组合 535">
		<path id="矢量 345" d="M8.69819 1.27755C9.52353 1.74834 10.1781 2.40143 10.6619 3.2368C11.154 4.08639 11.4 5.00746 11.4 6C11.4 7.09205 11.0966 8.09207 10.4899 9.00008C9.88323 9.90808 9.07541 10.571 8.06649 10.9889C7.05757 11.4069 6.01758 11.5093 4.94651 11.2962C3.87545 11.0832 2.95382 10.5906 2.18163 9.81837C1.40943 9.04618 0.91681 8.12455 0.703762 7.05349C0.490714 5.98242 0.593144 4.94243 1.01105 3.93351C1.42896 2.92459 2.09192 2.11677 2.99992 1.51006C3.90793 0.903354 4.90795 0.6 6 0.6L6 1.4C5.06974 1.4 4.21786 1.65841 3.44438 2.17524C2.67089 2.69207 2.10615 3.3802 1.75016 4.23966C1.39416 5.09911 1.3069 5.98503 1.48839 6.89741C1.66988 7.8098 2.08952 8.59489 2.74731 9.25269C3.40511 9.91048 4.1902 10.3301 5.10259 10.5116C6.01497 10.6931 6.90089 10.6058 7.76034 10.2498C8.61979 9.89385 9.30793 9.32911 9.82476 8.55562C10.3416 7.78213 10.6 6.93026 10.6 6C10.6 5.15075 10.3899 4.36333 9.96964 3.63773C9.558 2.92698 9.00206 2.37188 8.30181 1.97245L8.69819 1.27755ZM5.98 0.6L6.4 0.6L6.4 1.4L5.98 1.4L5.98 0.6Z" fill="rgb(0,0,0)" fill-rule="nonzero" />
		<path id="矢量 346" d="M8.5 4.125L8.5 1.625L11 1.625" fill-rule="evenodd" stroke="rgb(0,0,0)" stroke-linecap="square" stroke-linejoin="round" stroke-width="0.800000012" />
	</g>
</svg>
