<svg viewBox="0 0 77.7778 50" xmlns="http://www.w3.org/2000/svg" xmlns:xlink="http://www.w3.org/1999/xlink" width="77.777832" height="50.000000" fill="none" customFrame="#000000">
	<path id="矢量 39" d="M63.559 21.0417C63.559 20.8333 63.5938 20.625 63.5938 20.4167C63.5938 9.13194 54.6007 0 43.507 0C35.5035 0 28.6285 4.75694 25.3993 11.6319C23.9931 10.9201 22.4132 10.5035 20.7465 10.5035C15.625 10.5035 11.3542 14.3056 10.5382 19.2708C4.39236 21.3889 0 27.2743 0 34.2014C0 42.9167 6.96181 50 15.5382 50L33.3333 50L33.3333 36.1111L24.9653 36.1111L38.8889 21.5799L52.8125 36.0937L44.4444 36.0937L44.4444 49.9826L63.5938 49.9826C71.441 49.9826 77.7778 43.4722 77.7778 35.5035C77.7778 27.5347 71.4062 21.059 63.559 21.0417Z" fill="rgb(213,227,253)" fill-rule="nonzero" />
</svg>
