<svg viewBox="0 0 24 24" xmlns="http://www.w3.org/2000/svg" xmlns:xlink="http://www.w3.org/1999/xlink" width="24.000000" height="24.000000" fill="none" customFrame="#000000" mask="url(#mask_0)">
	<defs>
		<filter id="pixso_custom_mask_type_alpha">
			<feColorMatrix type="matrix" values="0 0 0 0 1 0 0 0 0 1 0 0 0 0 1 0 0 0 1 0 " />
		</filter>
		<linearGradient id="paint_linear_0" x1="0" x2="26.815794" y1="12.0015182" y2="12.0182762" gradientUnits="userSpaceOnUse">
			<stop stop-color="rgb(0,81,255)" offset="0" stop-opacity="1" />
			<stop stop-color="rgb(0,117,255)" offset="0.172995791" stop-opacity="1" />
			<stop stop-color="rgb(18,172,255)" offset="0.569620252" stop-opacity="1" />
			<stop stop-color="rgb(36,227,255)" offset="1" stop-opacity="1" />
		</linearGradient>
	</defs>
	<mask id="mask_0" width="24.000000" height="24.000002" x="0.000000" y="0.000000" maskUnits="userSpaceOnUse">
		<g filter="url(#pixso_custom_mask_type_alpha)">
			<rect id="矩形 101" width="24.000000" height="24.000002" x="0.000000" y="0.000000" fill="rgb(196,196,196)" />
		</g>
	</mask>
	<rect id="ask AI-选中" width="24.000000" height="24.000002" x="0.000000" y="0.000000" fill="rgb(196,196,196)" fill-opacity="0" />
	<g id="编组">
		<path id="矢量-224" d="M15.5294 24C17.2234 18.1152 19.0954 15.992 24 14.4C19.0954 12.808 17.2234 10.6848 15.5294 4.8C13.8353 10.6848 11.9633 12.808 7.05874 14.4C11.9633 15.992 13.8353 18.1152 15.5294 24ZM4.23531 9.6C5.08251 6.656 6.01851 5.59521 8.47063 4.8C6.01851 4.00479 5.08251 2.944 4.23531 0C3.38825 2.944 2.45225 4.00479 0 4.8C2.45225 5.59521 3.38825 6.656 4.23531 9.6Z" fill="url(#paint_linear_0)" fill-rule="nonzero" />
	</g>
</svg>
