<svg viewBox="0 0 10 10" xmlns="http://www.w3.org/2000/svg" xmlns:xlink="http://www.w3.org/1999/xlink" width="10.000000" height="10.000000" fill="none" customFrame="#000000">
	<path id="路径备份" d="M3.85894 10C3.56281 10 3.3111 9.86881 3.10381 9.60643L0.22763 5.9695C0.146224 5.8706 0.0869583 5.77375 0.0499676 5.67828C0.0166558 5.58349 0 5.48458 0 5.38224C0 5.1542 0.0740483 4.966 0.222078 4.81764C0.370175 4.66928 0.557068 4.5951 0.782892 4.5951C1.03828 4.5951 1.253 4.70705 1.42699 4.93166L3.83673 8.06717L8.5397 0.416237C8.63596 0.263754 8.73589 0.157291 8.83951 0.0968473C8.94319 0.0322824 9.07276 0 9.22821 0C9.45404 0 9.63912 0.0721203 9.78347 0.216361C9.92782 0.360602 10 0.545367 10 0.769284C10 0.860636 9.98522 0.951989 9.95558 1.04334C9.92595 1.13469 9.87973 1.22948 9.81679 1.32839L4.61962 9.58376C4.44196 9.86125 4.18845 10 3.85894 10Z" fill="rgb(0,0,0)" fill-rule="evenodd" />
</svg>
