<svg viewBox="0 0 15 15" xmlns="http://www.w3.org/2000/svg" xmlns:xlink="http://www.w3.org/1999/xlink" width="15.000000" height="15.000000" fill="none" customFrame="#000000">
	<g id="组合 46">
		<path id="矢量 44" d="M7.49992 0.833252C6.61586 0.833252 5.76546 1.00241 4.9487 1.34072C4.13194 1.67903 3.41099 2.16075 2.78587 2.78587C2.16075 3.41099 1.67903 4.13194 1.34072 4.9487C1.00241 5.76546 0.833252 6.61586 0.833252 7.49992C0.833252 8.38397 1.00241 9.23438 1.34072 10.0511C1.67903 10.8679 2.16075 11.5888 2.78587 12.214C3.41099 12.8391 4.13194 13.3208 4.9487 13.6591C5.76546 13.9974 6.61586 14.1666 7.49992 14.1666C8.38397 14.1666 9.23438 13.9974 10.0511 13.6591C10.8679 13.3208 11.5888 12.8391 12.214 12.214C12.8391 11.5888 13.3208 10.8679 13.6591 10.0511C13.9974 9.23438 14.1666 8.38397 14.1666 7.49992C14.1666 6.61586 13.9974 5.76546 13.6591 4.9487C13.3208 4.13194 12.8391 3.41099 12.214 2.78587C11.5888 2.16075 10.8679 1.67903 10.0511 1.34072C9.23438 1.00241 8.38397 0.833252 7.49992 0.833252ZM11.8541 5.26242L6.37909 10.7333L3.14575 7.49992C3.03084 7.38483 2.97342 7.24598 2.97348 7.08335C2.97355 6.92072 3.03108 6.7819 3.14607 6.66691C3.26107 6.55191 3.39988 6.49438 3.56251 6.49432C3.72514 6.49426 3.864 6.55168 3.97909 6.66659L6.38742 9.07492L11.0291 4.43742C11.1441 4.32236 11.283 4.26483 11.4458 4.26483C11.6085 4.26483 11.7474 4.32236 11.8624 4.43742C11.9775 4.55248 12.035 4.69137 12.035 4.85409C12.035 5.0168 11.9775 5.15569 11.8624 5.27075L11.8541 5.26242Z" fill="rgb(0,215,155)" fill-rule="nonzero" />
		<path id="矢量 45" d="M0 0L15 0L15 15L0 15L0 0Z" fill-rule="nonzero" />
	</g>
</svg>
