<svg viewBox="0 0 21.8071 21.0184" xmlns="http://www.w3.org/2000/svg" xmlns:xlink="http://www.w3.org/1999/xlink" width="21.807129" height="21.018433" fill="none" customFrame="#000000">
	<path id="矢量 473" d="M3.40671 17.7476C3.86517 17.2045 4.14126 16.5025 4.14126 15.7364C4.14126 14.0123 2.74378 12.6154 1.02018 12.6154C0.915788 12.6154 0.812921 12.6204 0.711069 12.6301C0.572642 11.9535 0.5 11.2524 0.5 10.5346C0.5 9.44704 0.666874 8.39855 0.976493 7.41306C0.99097 7.41306 1.00545 7.41356 1.02018 7.41356C2.74378 7.41356 4.14126 6.01609 4.14126 4.29249C4.14126 3.7972 4.0262 3.32934 3.82123 2.91381C5.02414 1.79522 6.49274 0.958051 8.12185 0.506958C8.63797 1.51887 9.68976 2.21177 10.9036 2.21177C12.1174 2.21177 13.1692 1.51887 13.6853 0.506958C15.3145 0.958051 16.7831 1.79522 17.986 2.91381C17.781 3.32934 17.6659 3.7972 17.6659 4.29249C17.6659 6.01609 19.0634 7.41356 20.787 7.41356C20.8017 7.41356 20.8162 7.41306 20.8307 7.41306C21.1403 8.39855 21.3072 9.44704 21.3072 10.5346C21.3072 11.2524 21.2345 11.9535 21.0961 12.6301C20.9943 12.6204 20.8914 12.6154 20.787 12.6154C19.0634 12.6154 17.6659 14.0123 17.6659 15.7364C17.6659 16.5025 17.942 17.2045 18.4005 17.7476C17.1719 19.0246 15.6203 19.9878 13.8771 20.507C13.4748 19.2487 12.2955 18.3373 10.9036 18.3373C9.51171 18.3373 8.33241 19.2487 7.93009 20.507C6.18693 19.9878 4.63528 19.0246 3.40671 17.7476ZM14.5449 10.5346C14.5449 8.52352 12.9147 6.89338 10.9036 6.89338C8.89247 6.89338 7.26234 8.52352 7.26234 10.5346C7.26234 12.5458 8.89247 14.1759 10.9036 14.1759C12.9147 14.1759 14.5449 12.5458 14.5449 10.5346Z" fill-rule="evenodd" stroke="rgb(0,0,0)" stroke-linejoin="round" stroke-width="1" />
</svg>
