<svg viewBox="0 0 19 19" xmlns="http://www.w3.org/2000/svg" xmlns:xlink="http://www.w3.org/1999/xlink" width="19.000000" height="19.000000" fill="none" customFrame="#000000">
	<rect id="容器 316" width="19.000000" height="19.000000" x="0.000000" y="0.000000" fill="rgb(196,196,196)" fill-opacity="0" />
	<g id="组合 401">
		<path id="矢量 277" d="M1.27146 3.5L17.7286 3.5C18.3381 3.5 18.6429 3.80476 18.6429 4.41429L18.6429 14.5857C18.6429 15.1952 18.3381 15.5 17.7286 15.5L1.27146 15.5C0.66194 15.5 0.357178 15.1952 0.357178 14.5857L0.357178 4.41429C0.357178 3.80476 0.66194 3.5 1.27146 3.5Z" fill="rgb(236,235,235)" fill-rule="nonzero" />
		<path id="矢量 278" d="M1.27146 15.5001L17.7286 15.5001C18.2336 15.5001 18.6429 15.0908 18.6429 14.5858L18.6429 12.9287C13.756 8.96678 10.7084 6.98584 9.50004 6.98584C8.29164 6.98584 5.24404 8.96678 0.357178 12.9287L0.357178 14.5858C0.357178 15.0908 0.766521 15.5001 1.27146 15.5001Z" fill="rgb(213,227,253)" fill-rule="nonzero" />
		<path id="矢量 279" d="M1.27146 3.5L17.7286 3.5C18.2336 3.5 18.6429 3.90934 18.6429 4.41429L18.6429 6.07143C13.4815 9.65237 10.4338 11.4429 9.50004 11.4429C8.56624 11.4429 5.51861 9.65237 0.357178 6.07143L0.357178 4.41429C0.357178 3.90934 0.766521 3.5 1.27146 3.5Z" fill="rgb(0,117,255)" fill-opacity="0.5" fill-rule="nonzero" />
	</g>
</svg>
