<svg viewBox="0 0 20 20" xmlns="http://www.w3.org/2000/svg" xmlns:xlink="http://www.w3.org/1999/xlink" width="20.000000" height="20.000000" fill="none" customFrame="#000000">
	<rect id="容器 267" width="20.000000" height="20.000000" x="0.000000" y="0.000000" fill="rgb(196,196,196)" fill-opacity="0" />
	<path id="矢量 732" d="M12.0898 12.876C12.6973 12.4346 13.1494 11.8125 13.3813 11.0986C13.6133 10.3848 13.6133 9.61523 13.3813 8.90137C13.1494 8.1875 12.6973 7.56445 12.0898 7.12305C11.4824 6.68164 10.751 6.44434 10 6.44434C9.24902 6.44434 8.51758 6.68164 7.91016 7.12305C7.30273 7.56445 6.85059 8.1875 6.61816 8.90137C6.38623 9.61523 6.38623 10.3848 6.61816 11.0986C6.85059 11.8125 7.30273 12.4346 7.91016 12.876C8.51758 13.3174 9.24902 13.5557 10 13.5557C10.751 13.5557 11.4824 13.3174 12.0898 12.876ZM2 6.44434C2 5.66406 2.20557 4.89746 2.59521 4.22266C2.98535 3.54688 3.54639 2.98535 4.22217 2.5957C4.89795 2.20508 5.66406 2 6.44434 2L13.5557 2C14.3359 2 15.1021 2.20508 15.7778 2.5957C16.4536 2.98535 17.0146 3.54688 17.4048 4.22266C17.7944 4.89746 18 5.66406 18 6.44434L18 13.5557C18 14.3359 17.7944 15.1025 17.4048 15.7773C17.0146 16.4531 16.4536 17.0146 15.7778 17.4043C15.1021 17.7949 14.3359 18 13.5557 18L6.44434 18C5.66406 18 4.89795 17.7949 4.22217 17.4043C3.54639 17.0146 2.98535 16.4531 2.59521 15.7773C2.20557 15.1025 2 14.3359 2 13.5557L2 6.44434ZM14.8887 5.12012L14.8975 5.11035" fill-rule="evenodd" stroke="rgb(0,0,0)" stroke-linecap="round" stroke-width="1.000000" />
</svg>
