<svg viewBox="0 0 15 3" xmlns="http://www.w3.org/2000/svg" xmlns:xlink="http://www.w3.org/1999/xlink" width="15.000000" height="3.000000" fill="none" customFrame="#000000">
	<path id="矢量 307" d="M0 1.5C0 0.671631 0.671631 0 1.5 0C2.32837 0 3 0.671631 3 1.5C3 2.32837 2.32837 3 1.5 3C0.671631 3 0 2.32837 0 1.5ZM6 1.5C6 0.671631 6.67163 0 7.5 0C8.32837 0 9 0.671631 9 1.5C9 2.32837 8.32837 3 7.5 3C6.67163 3 6 2.32837 6 1.5ZM13.5 0C12.6716 0 12 0.671631 12 1.5C12 2.32837 12.6716 3 13.5 3C14.3284 3 15 2.32837 15 1.5C15 0.671631 14.3284 0 13.5 0Z" fill="rgb(0,0,0)" fill-rule="evenodd" />
</svg>
