<svg viewBox="0 0 20 20" xmlns="http://www.w3.org/2000/svg" xmlns:xlink="http://www.w3.org/1999/xlink" width="20.000000" height="20.000000" fill="none" customFrame="#000000">
	<rect id="容器 268" width="20.000000" height="20.000000" x="0.000000" y="0.000000" fill="rgb(196,196,196)" fill-opacity="0" />
	<path id="矢量 748" d="M4.11647 13.8384C8.63278 16.0965 11.3421 16.0965 15.8584 13.8384M13.1485 15.193L14.052 17C14.052 17 17.8192 15.8003 19.0195 13.8384C19.0195 12.936 19.4986 6.48063 16.3102 4.35465C14.9555 3.45117 12.6973 3 12.6973 3L11.7938 4.80697L9.98744 4.80697M6.85144 15.193L5.94795 17C5.94795 17 2.18075 15.8003 0.980469 13.8384C0.980469 12.936 0.501381 6.48063 3.6898 4.35465C5.04503 3.45117 7.30318 3 7.30318 3L8.2061 4.80697L10.0125 4.80697M5.47114 10.2267C5.47114 9.22868 6.07783 8.41976 6.8258 8.41976C7.57377 8.41976 8.18103 9.22868 8.18103 10.2267C8.18103 11.2248 7.57377 12.0326 6.8258 12.0326C6.07783 12.0326 5.47114 11.2248 5.47114 10.2267ZM11.7938 10.2267C11.7938 9.22868 12.4005 8.41976 13.1485 8.41976C13.8965 8.41976 14.5032 9.22868 14.5032 10.2267C14.5032 11.2248 13.8965 12.0326 13.1485 12.0326C12.4005 12.0326 11.7938 11.2248 11.7938 10.2267Z" fill-rule="evenodd" stroke="rgb(0,0,0)" stroke-linecap="round" stroke-width="1.000000" />
</svg>
