<svg viewBox="0 0 12 12" xmlns="http://www.w3.org/2000/svg" xmlns:xlink="http://www.w3.org/1999/xlink" width="12.000000" height="12.000000" fill="none" customFrame="#000000">
	<rect id="容器 62" width="12.000000" height="12.000000" x="0.000000" y="0.000000" fill="rgb(196,196,196)" fill-opacity="0" />
	<path id="矢量 319" d="M2.0625 3.1875L2.64282 11.3125L9.60718 11.3125L10.1875 3.1875" fill="rgb(216,216,216)" fill-opacity="0" fill-rule="evenodd" />
	<path id="矢量 319" d="M2.46148 3.159L3.04181 11.284L2.64282 11.3125L2.64282 10.9125L9.60718 10.9125L9.60718 11.3125L9.20819 11.284L9.78852 3.159L10.5865 3.216L9.97963 11.7125L2.27037 11.7125L1.66352 3.216L2.46148 3.159ZM4.59995 4.6875L4.59995 8.6875L3.79995 8.6875L3.79995 4.6875L4.59995 4.6875ZM6.59995 4.6875L6.59995 8.6875L5.79995 8.6875L5.79995 4.6875L6.59995 4.6875ZM8.59995 4.6875L8.59995 8.6875L7.79995 8.6875L7.79995 4.6875L8.59995 4.6875ZM3.5 0.2875L8.5 0.2875L8.5 1.0875L3.5 1.0875L3.5 0.2875ZM0 2.2875L12 2.2875L12 3.0875L0 3.0875L0 2.2875ZM1.68489 3.23452L1.66352 3.216C1.64756 2.99257 1.81057 2.80447 2.034 2.78852C2.25743 2.77256 2.44552 2.93557 2.46148 3.159L2.44296 3.18038L1.68489 3.23452ZM9.80704 3.18038L9.78852 3.159C9.80448 2.93557 9.99257 2.77256 10.216 2.78852C10.4394 2.80447 10.6024 2.99257 10.5865 3.216L10.5651 3.23452L9.80704 3.18038Z" fill="rgb(255,32,32)" fill-rule="nonzero" />
</svg>
