<svg viewBox="0 0 20 20" xmlns="http://www.w3.org/2000/svg" xmlns:xlink="http://www.w3.org/1999/xlink" width="20.000000" height="20.000000" fill="none" customFrame="#000000">
	<rect id="容器 266" width="20.000000" height="20.000000" x="0.000000" y="0.000000" fill="rgb(196,196,196)" fill-opacity="0" />
	<path id="矢量 729" d="M13.17 9.81429L8.03861 7.20397L8.03861 12.3937L13.17 9.81429ZM13.4404 3.54643C14.5465 3.57738 15.3576 3.61005 15.8736 3.64444L16.6475 3.68571C16.6546 3.68571 16.7147 3.69087 16.8277 3.70119C16.9408 3.71151 17.0221 3.72183 17.0716 3.73214C17.1211 3.74246 17.2041 3.75794 17.3207 3.77857C17.4374 3.79921 17.5381 3.82672 17.6229 3.86111C17.7077 3.8955 17.8067 3.94021 17.9198 3.99524C18.0328 4.05026 18.1424 4.11733 18.2484 4.19643C18.3544 4.27553 18.4569 4.36667 18.5559 4.46984C18.5983 4.51111 18.6531 4.57474 18.7202 4.66071C18.7874 4.74669 18.8899 4.94788 19.0277 5.26429C19.1655 5.58069 19.2592 5.92804 19.3086 6.30635C19.3652 6.74656 19.4094 7.21601 19.4412 7.71468C19.473 8.21336 19.4924 8.6037 19.4995 8.88571L19.4995 10.7016C19.5065 11.6989 19.4429 12.6963 19.3086 13.6937C19.2592 14.072 19.1708 14.4142 19.0436 14.7202C18.9164 15.0263 18.8033 15.2378 18.7043 15.3548L18.5559 15.5302C18.4569 15.6333 18.3544 15.7245 18.2484 15.8036C18.1424 15.8827 18.0328 15.948 17.9198 15.9996C17.8067 16.0512 17.7077 16.0942 17.6229 16.1286C17.5381 16.163 17.4374 16.1905 17.3207 16.2111C17.2041 16.2317 17.1193 16.2472 17.0663 16.2575C17.0133 16.2679 16.932 16.2782 16.8224 16.2885C16.7129 16.2988 16.6546 16.304 16.6475 16.304C14.8734 16.4347 12.6576 16.5 10 16.5C8.53691 16.4862 7.26643 16.4639 6.18855 16.4329C5.11067 16.402 4.4021 16.3762 4.06283 16.3556L3.54333 16.3143L3.16165 16.273C2.9072 16.2386 2.7146 16.2042 2.58384 16.1698C2.45308 16.1354 2.27285 16.0632 2.04313 15.9532C1.81342 15.8431 1.61375 15.7021 1.44412 15.5302C1.40171 15.4889 1.34693 15.4253 1.27978 15.3393C1.21264 15.2533 1.11015 15.0521 0.972323 14.7357C0.834496 14.4193 0.740844 14.072 0.691368 13.6937C0.634823 13.2534 0.590648 12.784 0.558842 12.2853C0.527035 11.7866 0.507598 11.3963 0.50053 11.1143L0.50053 9.29841C0.493462 8.30106 0.557075 7.3037 0.691368 6.30635C0.740844 5.92804 0.829195 5.58585 0.95642 5.27976C1.08364 4.97368 1.19673 4.76217 1.29569 4.64524L1.44412 4.46984C1.54307 4.36667 1.64556 4.27553 1.75158 4.19643C1.8576 4.11733 1.96715 4.05026 2.08024 3.99524C2.19333 3.94021 2.29228 3.8955 2.3771 3.86111C2.46192 3.82672 2.56264 3.79921 2.67926 3.77857C2.79588 3.75794 2.87893 3.74246 2.92841 3.73214C2.97788 3.72183 3.05917 3.71151 3.17226 3.70119C3.28535 3.69087 3.34542 3.68571 3.35249 3.68571C5.12657 3.5619 7.34241 3.5 10 3.5C11.1874 3.5 12.3342 3.51548 13.4404 3.54643Z" fill-rule="nonzero" stroke="rgb(0,0,0)" stroke-width="1.000000" />
</svg>
