<svg viewBox="0 0 16 16" xmlns="http://www.w3.org/2000/svg" xmlns:xlink="http://www.w3.org/1999/xlink" width="16.000000" height="16.000000" fill="none" customFrame="#000000">
	<rect id="容器 232" width="16.000000" height="16.000000" x="0.000000" y="0.000000" fill="rgb(196,196,196)" fill-opacity="0" />
	<g id="编组 99">
		<g id="编组 97">
			<path id="矩形" d="M4.21942 1.5L10.5911 1.5L14.3896 5.42453L14.3896 14.5L4.21942 14.5L4.21942 1.5Z" fill="rgb(216,216,216)" fill-opacity="0" fill-rule="evenodd" />
			<path id="矩形" d="M10.5911 1.5L14.3896 5.42453L14.3896 14.5L4.21942 14.5L4.21942 1.5L10.5911 1.5Z" fill-rule="evenodd" stroke="rgb(0,0,0)" stroke-width="0.855833" />
			<path id="路径" d="M4.80846e-18 2.47961L2.71668 -2.82055e-13L5.57614 2.33913" fill="rgb(216,216,216)" fill-opacity="0" fill-rule="evenodd" transform="matrix(0.707107,0.707107,0.707107,-0.707107,8.79266,3.25781)" />
			<path id="路径" d="M4.80846e-18 2.47961L2.71668 -2.82055e-13L5.57614 2.33913" fill-rule="evenodd" stroke="rgb(0,0,0)" stroke-width="0.855833" transform="matrix(0.707107,0.707107,0.707107,-0.707107,8.79266,3.25781)" />
			<path id="路径 57" d="M5.81232 6.52832L9.03419 6.52832" opacity="0.200000003" stroke="rgb(0,0,0)" stroke-width="0.855833" />
			<path id="路径 57备份" d="M5.81232 8.61328L12.7966 8.61328" opacity="0.200000003" stroke="rgb(0,0,0)" stroke-width="0.855833" />
			<path id="路径 57备份 2" d="M5.81232 10.6982L12.7966 10.6982" opacity="0.200000003" stroke="rgb(0,0,0)" stroke-width="0.855833" />
		</g>
		<rect id="矩形" width="9.750000" height="5.416667" x="1.511108" y="6.375000" rx="1.083333" fill="rgb(0,0,0)" />
		<rect id="矩形" width="9.208333" height="4.875000" x="1.781942" y="6.645833" rx="0.812500" stroke="rgb(151,151,151)" stroke-opacity="0" stroke-width="0.541667" />
		<path id="" d="M3.36383 7.7628L3.36383 10.0837L3.71771 10.0837L3.71771 9.17991L4.31915 9.17991C4.87457 9.17991 5.15466 8.94267 5.15466 8.46818C5.15466 7.99687 4.87775 7.7628 4.3255 7.7628L3.36383 7.7628ZM3.71771 8.0651L4.29614 8.0651C4.46832 8.0651 4.59528 8.09764 4.677 8.1627C4.75793 8.22142 4.79999 8.32536 4.79999 8.46818C4.79999 8.6118 4.75793 8.71574 4.68018 8.7808C4.59845 8.84507 4.4715 8.8776 4.29614 8.8776L3.71771 8.8776L3.71771 8.0651ZM5.48283 7.7628L5.48283 10.0837L6.32072 10.0837C6.69523 10.0837 6.9777 9.97972 7.17289 9.77183C7.35777 9.57029 7.45219 9.28703 7.45219 8.92362C7.45219 8.55625 7.36094 8.27378 7.17924 8.07859C6.98405 7.86753 6.70158 7.7628 6.32786 7.7628L5.48283 7.7628ZM5.83671 8.0651L6.2628 8.0651C6.55479 8.0651 6.76982 8.13334 6.90629 8.27378C7.03642 8.41026 7.10466 8.62449 7.10466 8.92362C7.10466 9.21562 7.03642 9.43064 6.90312 9.57029C6.76664 9.70994 6.54844 9.78135 6.25645 9.78135L5.83671 9.78135L5.83671 8.0651ZM7.81308 7.7628L7.81308 10.0837L8.16696 10.0837L8.16696 9.04344L9.32065 9.04344L9.32065 8.74113L8.16696 8.74113L8.16696 8.0651L9.38889 8.0651L9.38889 7.7628L7.81308 7.7628Z" fill="rgb(255,255,255)" fill-rule="nonzero" />
	</g>
</svg>
