<svg viewBox="0 0 14 14" xmlns="http://www.w3.org/2000/svg" xmlns:xlink="http://www.w3.org/1999/xlink" width="14.000000" height="14.000000" fill="none" customFrame="#000000">
	<rect id="容器 365" width="14.000000" height="14.000000" x="0.000000" y="0.000000" fill="rgb(196,196,196)" fill-opacity="0" />
	<g id="组合 797">
		<path id="矢量 448" d="M4.07307 1L4.43892 2.24383M6.99992 2.24383L4.43892 2.24383L1.87793 2.24383M5.97552 2.24383C5.97552 2.24383 5.55479 4.10942 4.65844 5.38992C3.76209 6.67041 2.39013 7.36581 2.39013 7.36581M8.53651 10.9512L11.6097 10.9512M12.1219 13C12.1219 12.4878 10.0731 6.85361 10.0731 6.85361C10.0731 6.85361 8.02431 12.4878 8.02431 13M2.39013 8.90241L2.39013 10.439C2.39013 10.6188 2.43746 10.7955 2.52737 10.9512C2.61728 11.1069 2.7466 11.2363 2.90233 11.3262C3.05805 11.4161 3.23471 11.4634 3.41453 11.4634L5.97552 11.4634M8.53651 2.24383L10.5853 2.24383C10.7651 2.24383 10.9418 2.29116 11.0975 2.38107C11.2532 2.47098 11.3826 2.6003 11.4725 2.75602C11.5624 2.91175 11.6097 3.0884 11.6097 3.26822L11.6097 5.31702M2.75599 3.26807C2.75599 3.26807 3.61056 4.86364 4.46967 5.64259C5.32878 6.42154 6.70723 7.36616 6.70723 7.36616" fill-rule="nonzero" stroke="rgb(0,0,0)" stroke-width="0.899999976" />
	</g>
</svg>
