<svg viewBox="0 0 20.0586 19.8846" xmlns="http://www.w3.org/2000/svg" xmlns:xlink="http://www.w3.org/1999/xlink" width="20.058594" height="19.884644" fill="none" customFrame="#000000">
	<path id="形状结合备份 3" d="M4.5654 0.269449C5.2518 0.216267 6.10346 0.216187 7.18349 0.216187L7.18349 1.66879C6.08165 1.66879 5.29671 1.66879 4.68241 1.71721C4.07915 1.76553 3.70406 1.85724 3.40696 2.00677L2.74688 0.719755L2.74498 0.720715L2.742 0.714913C3.28317 0.443761 3.86822 0.327553 4.5654 0.269449ZM0.723593 2.72919C1.16693 1.8631 1.87316 1.1614 2.74498 0.720715L3.40506 2.00773L3.40696 2.00677L3.40993 2.01257C2.81514 2.31278 2.3276 2.79698 2.02532 3.3877L0.723593 2.72919ZM7.18836 0.216187L11.2837 0.216187C12.366 0.216187 13.2192 0.216187 13.9018 0.269449C14.599 0.327553 15.1889 0.443761 15.7252 0.714913L15.0621 2.00773C14.7647 1.85763 14.3893 1.76563 13.7848 1.71721C13.1705 1.66879 12.3855 1.66879 11.2837 1.66879L7.18836 1.66879L7.18836 0.216187ZM15.0621 2.01257L15.7252 0.719755C16.5972 1.16006 17.3038 1.86145 17.7475 2.7273L16.4516 3.38286L16.4526 3.38475L16.4467 3.3877C16.1445 2.79698 15.6569 2.31278 15.0621 2.01257ZM16.7441 4.65146C16.6955 4.05233 16.6031 3.67981 16.4526 3.38475L17.7485 2.72919L17.7475 2.7273L17.7533 2.72435C18.0264 3.26181 18.1434 3.84285 18.2019 4.53526C18.2554 5.21695 18.2555 6.06279 18.2555 7.13541L16.7929 7.13541C16.7929 6.04112 16.7929 5.26156 16.7441 4.65146ZM1.67917 7.14026L1.67917 16.6548L0.216553 16.6548L0.216553 7.14026C0.216553 6.06533 0.216553 5.21798 0.270182 4.53526C0.328687 3.84769 0.445696 3.26181 0.718718 2.72919L2.02045 3.3877C1.86931 3.68306 1.77668 4.0559 1.72792 4.65631C1.67917 5.2664 1.67917 6.04596 1.67917 7.14026ZM5.09194 5.78449C5.09194 5.38261 5.41859 5.05819 5.82325 5.05819L12.6488 5.05819C13.0535 5.05819 13.3801 5.38261 13.3801 5.78449C13.3801 6.18638 13.0535 6.5108 12.6488 6.5108L5.82325 6.5108C5.41859 6.5108 5.09194 6.18638 5.09194 5.78449ZM16.7929 7.14026L16.7929 9.6581C16.7929 10.06 17.1195 10.3844 17.5242 10.3844C17.9288 10.3844 18.2555 10.06 18.2555 9.6581L18.2555 7.14026L16.7929 7.14026ZM12.4343 8.56865C12.3758 8.27328 11.9516 8.27328 11.8882 8.56865C11.7517 9.22716 11.2349 9.73557 10.5768 9.87115C10.2794 9.93409 10.2794 10.3553 10.5768 10.4183C11.2398 10.5539 11.7517 11.0671 11.8882 11.7208C11.9467 12.0162 12.3709 12.0162 12.4343 11.7208C12.5708 11.0623 13.0876 10.5539 13.7458 10.4183C14.0432 10.3553 14.0432 9.93409 13.7458 9.87115C13.0827 9.73557 12.5708 9.22232 12.4343 8.56865ZM5.09194 10.1423C5.09194 10.5442 5.41859 10.8686 5.82325 10.8686L7.52964 10.8686C7.9343 10.8686 8.26095 10.5442 8.26095 10.1423C8.26095 9.74041 7.9343 9.416 7.52964 9.416L5.82325 9.416C5.41859 9.416 5.09194 9.74041 5.09194 10.1423ZM16.5784 12.7037C16.5735 12.6747 16.5247 12.6747 16.5199 12.7037C16.1883 14.3258 14.911 15.5944 13.2777 15.9237C13.2485 15.9285 13.2485 15.9769 13.2777 15.9818C14.911 16.311 16.1883 17.5796 16.5199 19.2017C16.5247 19.2307 16.5735 19.2307 16.5784 19.2017C16.9099 17.5796 18.1872 16.311 19.8205 15.9818C19.8497 15.9769 19.8497 15.9285 19.8205 15.9237C18.1872 15.5944 16.9099 14.3258 16.5784 12.7037ZM1.68405 16.6548C1.68405 17.4764 2.49036 18.0568 3.27877 17.8038L3.74146 19.1823C3.5247 19.2531 3.3071 19.2951 3.09225 19.3108C1.58834 19.4211 0.219338 18.2462 0.216553 16.6596L1.67917 16.6596L1.67917 16.6548L1.68405 16.6548ZM4.44839 18.9499L3.74146 19.1823L3.28317 17.8024C3.28171 17.8028 3.28024 17.8033 3.27877 17.8038L3.2783 17.8024L3.98523 17.5699C4.9018 17.2649 5.91101 17.4005 6.72032 17.9331L5.91101 19.1436C5.48197 18.8579 4.94081 18.7853 4.44839 18.9499ZM9.86007 17.2504C10.216 17.0567 10.6596 17.1874 10.8547 17.5409C10.9159 17.6519 10.9449 17.7714 10.9449 17.8892C10.9449 18.1467 10.8063 18.3958 10.5621 18.5287L10.5621 18.5238L9.86007 17.2504ZM9.86007 17.2552L10.5621 18.5287L9.15802 19.2889C8.13419 19.8408 6.88121 19.7876 5.91101 19.1484L6.72032 17.9379C7.23711 18.2817 7.90992 18.3108 8.45596 18.0154L9.86007 17.2552Z" fill="rgb(255,255,255)" fill-rule="evenodd" />
	<path id="形状结合备份 3" d="M4.5654 0.269449C5.2518 0.216267 6.10346 0.216187 7.18349 0.216187L7.18349 1.66879C6.08165 1.66879 5.29671 1.66879 4.68241 1.71721C4.07915 1.76553 3.70406 1.85724 3.40696 2.00677L2.74688 0.719755L2.74498 0.720715L2.742 0.714913C3.28317 0.443761 3.86822 0.327553 4.5654 0.269449ZM0.723593 2.72919C1.16693 1.8631 1.87316 1.1614 2.74498 0.720715L3.40506 2.00773L3.40696 2.00677L3.40993 2.01257C2.81514 2.31278 2.3276 2.79698 2.02532 3.3877L0.723593 2.72919ZM7.18836 0.216187L11.2837 0.216187C12.366 0.216187 13.2192 0.216187 13.9018 0.269449C14.599 0.327553 15.1889 0.443761 15.7252 0.714913L15.0621 2.00773C14.7647 1.85763 14.3893 1.76563 13.7848 1.71721C13.1705 1.66879 12.3855 1.66879 11.2837 1.66879L7.18836 1.66879L7.18836 0.216187ZM15.0621 2.01257L15.7252 0.719755C16.5972 1.16006 17.3038 1.86145 17.7475 2.7273L16.4516 3.38286L16.4526 3.38475L16.4467 3.3877C16.1445 2.79698 15.6569 2.31278 15.0621 2.01257ZM16.7441 4.65146C16.6955 4.05233 16.6031 3.67981 16.4526 3.38475L17.7485 2.72919L17.7475 2.7273L17.7533 2.72435C18.0264 3.26181 18.1434 3.84285 18.2019 4.53526C18.2554 5.21695 18.2555 6.06279 18.2555 7.13541L16.7929 7.13541C16.7929 6.04112 16.7929 5.26156 16.7441 4.65146ZM1.67917 7.14026L1.67917 16.6548L0.216553 16.6548L0.216553 7.14026C0.216553 6.06533 0.216553 5.21798 0.270182 4.53526C0.328687 3.84769 0.445696 3.26181 0.718718 2.72919L2.02045 3.3877C1.86931 3.68306 1.77668 4.0559 1.72792 4.65631C1.67917 5.2664 1.67917 6.04596 1.67917 7.14026ZM5.09194 5.78449C5.09194 5.38261 5.41859 5.05819 5.82325 5.05819L12.6488 5.05819C13.0535 5.05819 13.3801 5.38261 13.3801 5.78449C13.3801 6.18638 13.0535 6.5108 12.6488 6.5108L5.82325 6.5108C5.41859 6.5108 5.09194 6.18638 5.09194 5.78449ZM16.7929 7.14026L16.7929 9.6581C16.7929 10.06 17.1195 10.3844 17.5242 10.3844C17.9288 10.3844 18.2555 10.06 18.2555 9.6581L18.2555 7.14026L16.7929 7.14026ZM12.4343 8.56865C12.3758 8.27328 11.9516 8.27328 11.8882 8.56865C11.7517 9.22716 11.2349 9.73557 10.5768 9.87115C10.2794 9.93409 10.2794 10.3553 10.5768 10.4183C11.2398 10.5539 11.7517 11.0671 11.8882 11.7208C11.9467 12.0162 12.3709 12.0162 12.4343 11.7208C12.5708 11.0623 13.0876 10.5539 13.7458 10.4183C14.0432 10.3553 14.0432 9.93409 13.7458 9.87115C13.0827 9.73557 12.5708 9.22232 12.4343 8.56865ZM5.09194 10.1423C5.09194 10.5442 5.41859 10.8686 5.82325 10.8686L7.52964 10.8686C7.9343 10.8686 8.26095 10.5442 8.26095 10.1423C8.26095 9.74041 7.9343 9.416 7.52964 9.416L5.82325 9.416C5.41859 9.416 5.09194 9.74041 5.09194 10.1423ZM16.5784 12.7037C16.5735 12.6747 16.5247 12.6747 16.5199 12.7037C16.1883 14.3258 14.911 15.5944 13.2777 15.9237C13.2485 15.9285 13.2485 15.9769 13.2777 15.9818C14.911 16.311 16.1883 17.5796 16.5199 19.2017C16.5247 19.2307 16.5735 19.2307 16.5784 19.2017C16.9099 17.5796 18.1872 16.311 19.8205 15.9818C19.8497 15.9769 19.8497 15.9285 19.8205 15.9237C18.1872 15.5944 16.9099 14.3258 16.5784 12.7037ZM1.68405 16.6548C1.68405 17.4764 2.49036 18.0568 3.27877 17.8038L3.74146 19.1823C3.5247 19.2531 3.3071 19.2951 3.09225 19.3108C1.58834 19.4211 0.219338 18.2462 0.216553 16.6596L1.67917 16.6596L1.67917 16.6548L1.68405 16.6548ZM4.44839 18.9499L3.74146 19.1823L3.28317 17.8024C3.28171 17.8028 3.28024 17.8033 3.27877 17.8038L3.2783 17.8024L3.98523 17.5699C4.9018 17.2649 5.91101 17.4005 6.72032 17.9331L5.91101 19.1436C5.48197 18.8579 4.94081 18.7853 4.44839 18.9499ZM9.86007 17.2504C10.216 17.0567 10.6596 17.1874 10.8547 17.5409C10.9159 17.6519 10.9449 17.7714 10.9449 17.8892C10.9449 18.1467 10.8063 18.3958 10.5621 18.5287L10.5621 18.5238L9.86007 17.2504ZM9.86007 17.2552L10.5621 18.5287L9.15802 19.2889C8.13419 19.8408 6.88121 19.7876 5.91101 19.1484L6.72032 17.9379C7.23711 18.2817 7.90992 18.3108 8.45596 18.0154L9.86007 17.2552Z" fill-rule="evenodd" stroke="rgb(255,255,255)" stroke-width="0.43225807" />
</svg>
