<svg viewBox="0 0 210 210" xmlns="http://www.w3.org/2000/svg" xmlns:xlink="http://www.w3.org/1999/xlink" width="210.000000" height="210.000000" fill="none" customFrame="#000000">
	<defs>
		<filter id="pixso_custom_mask_type_alpha">
			<feColorMatrix type="matrix" values="0 0 0 0 1 0 0 0 0 1 0 0 0 0 1 0 0 0 1 0 " />
		</filter>
		<linearGradient id="paint_linear_0" x1="153" x2="153" y1="33" y2="57.9999962" gradientUnits="userSpaceOnUse">
			<stop stop-color="rgb(38,246,160)" offset="0" stop-opacity="1" />
			<stop stop-color="rgb(13,237,242)" offset="1" stop-opacity="1" />
		</linearGradient>
		<linearGradient id="paint_linear_1" x1="50" x2="50" y1="153" y2="125" gradientUnits="userSpaceOnUse">
			<stop stop-color="rgb(0,121,255)" offset="0" stop-opacity="1" />
			<stop stop-color="rgb(10,201,247)" offset="1" stop-opacity="1" />
		</linearGradient>
	</defs>
	<mask id="mask_0" width="210.000000" height="210.000000" x="0.000000" y="0.000000" maskUnits="userSpaceOnUse">
		<g filter="url(#pixso_custom_mask_type_alpha)">
			<rect id="矩形 134" width="210.000000" height="210.000000" x="0.000000" y="0.000000" fill="rgb(196,196,196)" />
		</g>
	</mask>
	<g id="组合 352" opacity="0.599999964" mask="url(#mask_0)">
		<g id="组合 303">
			<rect id="矩形 98" width="110.000000" height="129.000000" x="49.000000" y="52.000000" rx="6.000000" fill="rgb(232,235,242)" />
			<rect id="矩形 99" width="110.000000" height="129.000000" x="62.000000" y="42.000000" rx="6.000000" fill="rgb(241,242,247)" />
			<g id="组合 299">
				<rect id="矩形 96" width="24.606743" height="39.775276" x="146.865234" y="126.000000" rx="12.303371" fill="rgb(224,226,238)" />
				<rect id="矩形 96" width="24.606743" height="39.775276" x="146.865234" y="126.000000" rx="12.303371" stroke="rgb(232,235,242)" stroke-opacity="0" stroke-width="1.34831572" />
				<path id="矩形 97" d="M174.843 155.326C174.843 163.887 167.902 170.827 159.341 170.827L158.996 170.827C150.435 170.827 143.494 163.887 143.494 155.326" stroke="rgb(224,226,238)" stroke-width="2.02247381" />
				<path id="矢量 199" d="M159.337 170.663L159.337 181.281" stroke="rgb(224,226,238)" stroke-width="2.02247381" />
				<path id="矢量 200" d="M151.921 181.449L167.09 181.449" stroke="rgb(224,226,238)" stroke-width="2.02247381" />
				<path id="矢量 201" d="M129 139.82L129 147.236" opacity="0.599999964" stroke="rgb(224,226,238)" stroke-width="2.02247381" />
				<path id="矢量 202" d="M133.045 135.438L133.045 151.787" opacity="0.599999964" stroke="rgb(224,226,238)" stroke-width="2.02247381" />
				<path id="矢量 203" d="M137.09 130.719L137.09 156.674" opacity="0.599999964" stroke="rgb(224,226,238)" stroke-width="2.02247381" />
				<path id="矢量 204" d="M141.135 138.135L141.135 148.921" opacity="0.599999964" stroke="rgb(224,226,238)" stroke-width="2.02247381" />
				<path id="矢量 205" d="M0 0L0 7.41573" opacity="0.599999964" stroke="rgb(224,226,238)" stroke-width="2.02247381" transform="matrix(-1,0,0,1,189,139.82)" />
				<path id="矢量 206" d="M0 0L0 16.3483" opacity="0.599999964" stroke="rgb(224,226,238)" stroke-width="2.02247381" transform="matrix(-1,0,0,1,184.955,135.438)" />
				<path id="矢量 207" d="M0 0L0 25.9551" opacity="0.599999964" stroke="rgb(224,226,238)" stroke-width="2.02247381" transform="matrix(-1,0,0,1,180.91,130.719)" />
				<path id="矢量 208" d="M0 0L0 10.7865" opacity="0.599999964" stroke="rgb(224,226,238)" stroke-width="2.02247381" transform="matrix(-1,0,0,1,176.865,138.135)" />
			</g>
			<rect id="矩形 100" width="64.000000" height="5.000000" x="73.000000" y="63.000000" rx="2.500000" fill="rgb(224,226,238)" />
			<rect id="矩形 101" width="88.000000" height="5.000000" x="73.000000" y="75.000000" rx="2.500000" fill="rgb(224,226,238)" />
			<rect id="矩形 102" width="88.000000" height="5.000000" x="73.000000" y="88.000000" rx="2.500000" fill="rgb(224,226,238)" />
			<rect id="矩形 103" width="88.000000" height="5.000000" x="73.000000" y="101.000000" rx="2.500000" fill="rgb(224,226,238)" />
			<g id="组合 301">
				<line id="Stroke-1" x1="0" x2="2.55866051" y1="0" y2="0" stroke="rgb(210,216,223)" stroke-linecap="round" stroke-width="0.830298126" transform="matrix(0,1,-1,0,24.043,193)" />
				<line id="Stroke-2" x1="0" x2="3.00157166" y1="0" y2="0" stroke="rgb(210,216,223)" stroke-linecap="round" stroke-width="0.830298126" transform="matrix(0.696979,0.717092,-0.717092,0.696979,18.2988,194.149)" />
				<line id="Stroke-4" x1="16" x2="18.9581509" y1="199.894531" y2="199.894531" stroke="rgb(210,216,223)" stroke-linecap="round" stroke-width="0.830298126" />
				<line id="Stroke-6" x1="0" x2="3.00139427" y1="0" y2="0" stroke="rgb(210,216,223)" stroke-linecap="round" stroke-width="0.830298126" transform="matrix(0.697031,-0.717041,0.717041,0.697031,17.1484,205.64)" />
				<line id="Stroke-9" x1="0" x2="2.55866051" y1="0" y2="0" stroke="rgb(210,216,223)" stroke-linecap="round" stroke-width="0.830298126" transform="matrix(0,-1,1,0,24.043,206.788)" />
				<line id="Stroke-10" x1="0" x2="2.41305161" y1="0" y2="0" stroke="rgb(210,216,223)" stroke-linecap="round" stroke-width="0.830298126" transform="matrix(-0.707323,-0.706891,0.706891,-0.707323,27.4902,204.49)" />
				<line id="Stroke-11" x1="0" x2="2.56020904" y1="0" y2="0" stroke="rgb(210,216,223)" stroke-linecap="round" stroke-width="0.830298126" transform="matrix(-1,0,0,-1,30.9375,199.895)" />
				<line id="Stroke-12" x1="0" x2="2.41306114" y1="0" y2="0" stroke="rgb(210,216,223)" stroke-linecap="round" stroke-width="0.830298126" transform="matrix(-0.707319,0.706894,-0.706894,-0.707319,29.7891,194.149)" />
			</g>
			<g id="组合 302">
				<line id="Stroke-13" x1="0" x2="1.70577455" y1="0" y2="0" stroke="rgb(210,216,223)" stroke-linecap="round" stroke-width="0.830298126" transform="matrix(0,1,-1,0,89.5977,3)" />
				<line id="Stroke-15" x1="85" x2="86.7068176" y1="7.59570312" y2="7.59570312" stroke="rgb(210,216,223)" stroke-linecap="round" stroke-width="0.830298126" />
				<line id="Stroke-16" x1="0" x2="1.7057749" y1="0" y2="0" stroke="rgb(210,216,223)" stroke-linecap="round" stroke-width="0.830298126" transform="matrix(0,-1,1,0,89.5977,12.1924)" />
				<line id="Stroke-17" x1="0" x2="1.70680547" y1="0" y2="0" stroke="rgb(210,216,223)" stroke-linecap="round" stroke-width="0.830298126" transform="matrix(-1,0,0,-1,94.1934,7.5957)" />
			</g>
			<g id="组合 300">
				<line id="Stroke-18" x1="0" x2="2.55866051" y1="0" y2="0" stroke="rgb(210,216,223)" stroke-linecap="round" stroke-width="0.830298126" transform="matrix(0,1,-1,0,17.043,119)" />
				<line id="Stroke-19" x1="9" x2="11.5602083" y1="127.043945" y2="127.043945" stroke="rgb(210,216,223)" stroke-linecap="round" stroke-width="0.830298126" />
				<line id="Stroke-20" x1="0" x2="2.55866766" y1="0" y2="0" stroke="rgb(210,216,223)" stroke-linecap="round" stroke-width="0.830298126" transform="matrix(0,-1,1,0,17.043,132.789)" />
				<line id="Stroke-21" x1="0" x2="2.56020808" y1="0" y2="0" stroke="rgb(210,216,223)" stroke-linecap="round" stroke-width="0.830298126" transform="matrix(-1,0,0,-1,23.9375,127.044)" />
			</g>
			<path id="Stroke-22" d="M27.6935 30C29.7329 30 31.3871 31.6535 31.3871 33.6922C31.3871 35.7317 29.7329 37.3843 27.6935 37.3843C25.6539 37.3843 24 35.7317 24 33.6922" fill-rule="evenodd" stroke="rgb(210,216,223)" stroke-linecap="round" stroke-width="0.830298126" />
			<path id="Fill-26" d="M178 26.2482C180.193 25.5645 183.555 22.8839 184.333 20C185.039 22.5493 187.997 25.5645 190.666 25.7925C187.661 26.8558 184.789 30.0143 184.333 32.4957C184.023 29.9666 180.05 26.6167 178 26.2482Z" fill="rgb(235,236,238)" fill-rule="evenodd" />
			<path id="Fill-28" d="M183 110.124C184.097 109.782 185.777 108.442 186.166 107C186.519 108.274 187.998 109.782 189.332 109.896C187.83 110.427 186.394 112.007 186.166 113.247C186.011 111.983 184.024 110.308 183 110.124Z" fill="rgb(235,236,238)" fill-rule="evenodd" />
			<path id="Fill-30" d="M12.7278 91.8629C12.7278 93.4447 11.4454 94.726 9.86402 94.726C8.28153 94.726 7 93.4447 7 91.8629C7 90.2819 8.28153 89 9.86402 89C11.4454 89 12.7278 90.2819 12.7278 91.8629Z" fill="rgb(209,216,223)" fill-rule="evenodd" />
			<path id="Fill-32" d="M193.574 79.7853C193.574 82.4281 191.431 84.5705 188.788 84.5705C186.143 84.5705 184 82.4281 184 79.7853C184 77.1424 186.143 75 188.788 75C191.431 75 193.574 77.1424 193.574 79.7853Z" fill="rgb(235,236,238)" fill-rule="evenodd" />
			<path id="Fill-34" d="M201.595 69.7959C201.595 71.8926 199.894 73.5918 197.798 73.5918C195.701 73.5918 194 71.8926 194 69.7959C194 67.6992 195.701 66 197.798 66C199.894 66 201.595 67.6992 201.595 69.7959Z" fill="rgb(235,236,238)" fill-rule="evenodd" />
			<path id="Stroke-36" d="M114.393 203.786C113.071 203.786 112 202.715 112 201.393C112 200.071 113.071 199 114.393 199C115.715 199 116.787 200.071 116.787 201.393C116.787 202.715 115.715 203.786 114.393 203.786Z" fill-rule="evenodd" stroke="rgb(210,216,223)" stroke-linecap="round" stroke-width="0.830298126" />
			<path id="Stroke-38" d="M56.864 93.7261C55.2824 93.7261 54 92.4447 54 90.863C54 89.2819 55.2824 88 56.864 88C58.4457 88 59.728 89.2819 59.728 90.863C59.728 92.4447 58.4457 93.7261 56.864 93.7261Z" fill-rule="evenodd" stroke="rgb(210,216,223)" stroke-linecap="round" stroke-width="0.830298126" />
			<path id="Stroke-40" d="M105.233 196.806C104.537 194.976 105.455 192.928 107.286 192.233C109.115 191.537 111.164 192.455 111.86 194.285C112.557 196.114 111.637 198.162 109.807 198.858C107.977 199.554 105.929 198.634 105.233 196.806Z" fill-rule="evenodd" stroke="rgb(210,216,223)" stroke-linecap="round" stroke-width="0.830298126" />
			<path id="Fill-9" d="M159.737 41.6541C160.8 41.6541 161.66 42.5132 161.66 43.577C161.66 44.6408 160.8 45.5 159.737 45.5C158.673 45.5 157.813 44.6408 157.813 43.577C157.813 42.5132 158.673 41.6541 159.737 41.6541ZM165.506 41.6541C166.57 41.6541 167.429 42.5132 167.429 43.577C167.429 44.6408 166.57 45.5 165.506 45.5C164.442 45.5 163.583 44.6408 163.583 43.577C163.583 42.5132 164.442 41.6541 165.506 41.6541ZM171.275 41.6541C172.339 41.6541 173.198 42.5132 173.198 43.577C173.198 44.6408 172.339 45.5 171.275 45.5C170.211 45.5 169.352 44.6408 169.352 43.577C169.352 42.5132 170.211 41.6541 171.275 41.6541ZM157.585 54.1541L166.762 54.1541C167.628 54.1541 167.628 54.1605 168.042 54.4667C168.457 54.773 173.193 58 173.193 58L173.193 54.1541L173.415 54.1541C175.95 54.1541 178 52.2432 178 49.8633L178 37.3093C178 34.9294 175.946 33 173.415 33L157.585 33C155.055 33 153 34.9294 153 37.3093L153 49.8633C153 52.2432 155.055 54.1541 157.585 54.1541Z" opacity="0.5" fill="url(#paint_linear_0)" fill-rule="evenodd" />
			<path id="Fill-11" d="M58.6077 136.846C58.6077 138.038 57.6461 138.999 56.4532 138.999C55.2628 138.999 54.3012 138.038 54.3012 136.846C54.3012 135.654 55.2628 134.692 56.4532 134.692C57.6461 134.692 58.6077 135.654 58.6077 136.846ZM52.1467 136.846C52.1467 138.038 51.1839 138.999 49.9934 138.999C48.8017 138.999 47.8389 138.038 47.8389 136.846C47.8389 135.654 48.8017 134.692 49.9934 134.692C51.1839 134.692 52.1467 135.654 52.1467 136.846ZM45.6857 136.846C45.6857 138.038 44.7228 138.999 43.5312 138.999C42.3407 138.999 41.3779 138.038 41.3779 136.846C41.3779 135.654 42.3407 134.692 43.5312 134.692C44.7228 134.692 45.6857 135.654 45.6857 136.846ZM64 143.887L64 129.826C64 127.161 61.697 125 58.8645 125L41.1357 125C38.3018 125 36 127.161 36 129.826L36 143.887C36 146.551 38.2957 148.691 41.1357 148.691L41.3852 148.691L41.3852 153C41.3852 153 46.6886 149.385 47.1524 149.042C47.6174 148.698 47.6174 148.691 48.5863 148.691L58.8645 148.691C61.697 148.691 64 146.551 64 143.887Z" opacity="0.5" fill="url(#paint_linear_1)" fill-rule="evenodd" />
		</g>
	</g>
</svg>
