<svg viewBox="0 0 12.8572 18" xmlns="http://www.w3.org/2000/svg" xmlns:xlink="http://www.w3.org/1999/xlink" width="12.857178" height="18.000000" fill="none" customFrame="#000000">
	<path id="三角形" d="M9.94527 1.35038L16.7291 11.0416C17.2644 11.8063 16.7173 12.8571 15.7839 12.8571L2.21614 12.8571C1.28265 12.8571 0.735553 11.8064 1.27087 11.0416L8.05473 1.35038C8.51408 0.69417 9.48592 0.694171 9.94527 1.35038Z" fill="rgb(0,117,255)" fill-rule="evenodd" transform="matrix(0,1,-1,0,12.8572,0)" />
	<path id="三角形" d="M16.7291 11.0416L9.94527 1.35038C9.48592 0.694171 8.51408 0.69417 8.05473 1.35038L1.27087 11.0416C0.735553 11.8064 1.28265 12.8571 2.21614 12.8571L15.7839 12.8571C16.7173 12.8571 17.2644 11.8063 16.7291 11.0416ZM9 2.01207L15.7839 11.7033L2.21614 11.7033L9 2.01207Z" fill="rgb(151,151,151)" fill-opacity="0" fill-rule="evenodd" transform="matrix(0,1,-1,0,12.8572,0)" />
</svg>
