<svg viewBox="0 0 479.363 212" xmlns="http://www.w3.org/2000/svg" xmlns:xlink="http://www.w3.org/1999/xlink" width="479.363037" height="212.000000" fill="none" customFrame="#000000">
	<defs>
		<linearGradient id="paint_linear_1" x1="32.3894043" x2="450.5" y1="103.584061" y2="103.584061" gradientUnits="userSpaceOnUse">
			<stop stop-color="rgb(0,116,255)" offset="0" stop-opacity="1" />
			<stop stop-color="rgb(7,178.5,248)" offset="0.308016866" stop-opacity="1" />
			<stop stop-color="rgb(10.5,209.75,244.5)" offset="0.64135021" stop-opacity="1" />
			<stop stop-color="rgb(14,241,241)" offset="0.883037984" stop-opacity="1" />
			<stop stop-color="rgb(88,255,0)" offset="1" stop-opacity="1" />
		</linearGradient>
		<linearGradient id="paint_linear_2" x1="239.681549" x2="239.681549" y1="0" y2="212" gradientUnits="userSpaceOnUse">
			<stop stop-color="rgb(255,255,255)" offset="0" stop-opacity="1" />
			<stop stop-color="rgb(255,255,255)" offset="0.472573847" stop-opacity="0" />
			<stop stop-color="rgb(255,255,255)" offset="1" stop-opacity="1" />
		</linearGradient>
	</defs>
	<rect id="组合 468" width="479.363098" height="212.000000" x="0.000000" y="0.000000" />
	<path id="矢量 312" d="M35.6283 11.3281L108.513 11.3281C110.303 11.3281 111.752 12.7773 111.752 14.5648L111.752 63.1144C111.752 64.9018 110.303 66.351 108.513 66.351L35.6283 66.351C33.8397 66.351 32.3894 64.9018 32.3894 63.1144L32.3894 14.5648C32.3894 12.7773 33.8397 11.3281 35.6283 11.3281ZM128.997 11.3281L355.94 11.3281C357.729 11.3281 359.179 12.7773 359.179 14.5648L359.179 30.748C359.179 32.5354 357.729 33.9846 355.94 33.9846L128.997 33.9846C127.208 33.9846 125.758 32.5354 125.758 30.748L125.758 14.5648C125.758 12.7773 127.208 11.3281 128.997 11.3281ZM128.997 43.6945L446.974 43.6945C448.763 43.6945 450.213 45.1438 450.213 46.9312L450.213 63.1144C450.213 64.9018 448.763 66.351 446.974 66.351L128.997 66.351C127.208 66.351 125.758 64.9018 125.758 63.1144L125.758 46.9312C125.758 45.1438 127.208 43.6945 128.997 43.6945ZM35.6283 76.061L306.921 76.061C308.71 76.061 310.16 77.5102 310.16 79.2976L310.16 95.4808C310.16 97.2682 308.71 98.7174 306.921 98.7174L35.6283 98.7174C33.8397 98.7174 32.3894 97.2682 32.3894 95.4808L32.3894 79.2976C32.3894 77.5102 33.8397 76.061 35.6283 76.061ZM35.6283 108.427L437.637 108.427C439.426 108.427 440.876 109.877 440.876 111.664L440.876 127.847C440.876 129.635 439.426 131.084 437.637 131.084L35.6283 131.084C33.8397 131.084 32.3894 129.635 32.3894 127.847L32.3894 111.664C32.3894 109.877 33.8397 108.427 35.6283 108.427ZM35.6283 140.794L376.947 140.794C378.736 140.794 380.186 142.243 380.186 144.03L380.186 160.214C380.186 162.001 378.736 163.45 376.947 163.45L35.6283 163.45C33.8397 163.45 32.3894 162.001 32.3894 160.214L32.3894 144.03C32.3894 142.243 33.8397 140.794 35.6283 140.794ZM35.6283 173.16L425.966 173.16C427.754 173.16 429.205 174.609 429.205 176.397L429.205 192.58C429.205 194.367 427.754 195.817 425.966 195.817L35.6283 195.817C33.8397 195.817 32.3894 194.367 32.3894 192.58L32.3894 176.397C32.3894 174.609 33.8397 173.16 35.6283 173.16Z" opacity="0.149999991" fill="url(#paint_linear_1)" fill-rule="evenodd" />
	<rect id="矩形 116" width="479.363098" height="212.000000" x="0.000000" y="0.000000" fill="url(#paint_linear_2)" />
</svg>
