<svg viewBox="0 0 14 14" xmlns="http://www.w3.org/2000/svg" xmlns:xlink="http://www.w3.org/1999/xlink" width="14.000000" height="14.000000" fill="none" customFrame="#000000">
	<defs>
		<filter id="pixso_custom_mask_type_alpha">
			<feColorMatrix type="matrix" values="0 0 0 0 1 0 0 0 0 1 0 0 0 0 1 0 0 0 1 0 " />
		</filter>
	</defs>
	<mask id="mask_0" width="14.000001" height="14.000000" x="0.000000" y="0.000000" maskUnits="userSpaceOnUse">
		<g filter="url(#pixso_custom_mask_type_alpha)">
			<rect id="矩形 138" width="14.000001" height="14.000000" x="0.000000" y="0.000000" fill="rgb(196,196,196)" />
		</g>
	</mask>
	<g id="组合 364" mask="url(#mask_0)">
		<g id="组合 363">
			<path id="减去顶层" d="M6.90485 1.2325C6.71447 1.19062 6.51542 1.16968 6.30769 1.16968C5.9434 1.16968 5.60579 1.23408 5.29485 1.36287C4.98388 1.49167 4.6996 1.68489 4.44199 1.9425C4.18438 2.20013 3.99117 2.48443 3.86238 2.79541C3.73361 3.10632 3.66923 3.4439 3.66923 3.80814L3.66923 7.03891C3.66923 7.40315 3.73361 7.74073 3.86238 8.05164C3.99117 8.36262 4.18437 8.64692 4.44199 8.90454C4.6996 9.16216 4.98388 9.35538 5.29485 9.48418C5.60579 9.61297 5.9434 9.67737 6.30769 9.67737C6.67198 9.67737 7.00959 9.61297 7.32053 9.48418C7.6315 9.35537 7.91578 9.16216 8.17339 8.90454C8.431 8.64692 8.62421 8.36262 8.753 8.05164C8.88177 7.74073 8.94615 7.40315 8.94615 7.03891L8.94615 6.86589C8.5987 6.75675 8.27293 6.59866 7.97692 6.3997L7.97692 7.03891C7.97692 7.26933 7.93619 7.48289 7.85474 7.67958C7.77325 7.87633 7.65102 8.05621 7.48802 8.21921C7.32505 8.38219 7.14519 8.50443 6.94845 8.58592C6.75174 8.6674 6.53815 8.70814 6.30769 8.70814C6.07723 8.70814 5.86364 8.6674 5.66692 8.58592C5.47019 8.50443 5.29033 8.38219 5.12735 8.21921C4.96436 8.05621 4.84212 7.87633 4.76064 7.67958C4.67919 7.48289 4.63846 7.26933 4.63846 7.03891L4.63846 3.80814C4.63846 3.57772 4.67919 3.36416 4.76064 3.16747C4.84212 2.97071 4.96436 2.79084 5.12735 2.62784C5.29033 2.46485 5.47019 2.34262 5.66693 2.26113C5.86364 2.17965 6.07723 2.13891 6.30769 2.13891C6.36544 2.13891 6.42212 2.14147 6.47775 2.14658C6.57929 1.82069 6.72388 1.51378 6.90485 1.2325ZM11.1 7.03891C11.1 7.7004 10.9831 8.31348 10.7492 8.87814C10.5153 9.44306 10.1643 9.95952 9.69635 10.4275C9.22836 10.8955 8.71191 11.2465 8.14699 11.4804L8.14696 11.4805C7.72274 11.6561 7.27119 11.7658 6.7923 11.8095L6.7923 13.0158L8.46154 13.0158L8.46154 13.9851L4.15384 13.9851L4.15384 13.0158L5.82307 13.0158L5.82307 11.8095C5.34419 11.7658 4.89263 11.6561 4.4684 11.4804L4.46839 11.4804C3.90347 11.2465 3.38701 10.8955 2.91902 10.4275C2.45103 9.95951 2.10007 9.44305 1.86613 8.87813C1.6323 8.31347 1.51538 7.7004 1.51538 7.03891L2.48461 7.03891C2.48461 7.56657 2.57787 8.05562 2.76438 8.50605C2.95101 8.95675 3.23101 9.3688 3.60438 9.74217C3.97774 10.1155 4.38976 10.3955 4.84045 10.5822C5.2909 10.7687 5.77998 10.862 6.30769 10.862C6.83539 10.862 7.32446 10.7687 7.77491 10.5822C8.22561 10.3955 8.63763 10.1155 9.011 9.74217C9.38436 9.3688 9.66436 8.95677 9.85099 8.50607C10.0375 8.05563 10.1308 7.56658 10.1308 7.03891L11.1 7.03891Z" fill="rgb(0,0,0)" fill-rule="evenodd" />
			<g id="A">
				<path id="矢量 305" d="M9.68451 0.846191L7.65381 5.69235L8.37534 5.69235L8.92477 4.33607L11.227 4.33607L11.7747 5.69235L12.5 5.69235L10.4693 0.846191L9.68451 0.846191ZM11.0129 3.80592L10.6032 2.79116C10.5288 2.60468 10.4438 2.38352 10.3484 2.12766C10.2725 1.92415 10.182 1.67263 10.0771 1.37311C9.97174 1.67494 9.88055 1.92863 9.80352 2.13416C9.70682 2.39219 9.62252 2.61119 9.55062 2.79116L9.13953 3.80592L11.0129 3.80592Z" fill="rgb(0,0,0)" fill-rule="evenodd" />
				<path id="矢量 305" d="M7.65381 5.69235L8.37534 5.69235L8.92477 4.33607L11.227 4.33607L11.7747 5.69235L12.5 5.69235L10.4693 0.846191L9.68451 0.846191L7.65381 5.69235ZM10.6032 2.79116C10.5288 2.60468 10.4438 2.38352 10.3484 2.12766C10.2725 1.92415 10.182 1.67263 10.0771 1.37311C9.97174 1.67494 9.88055 1.92863 9.80352 2.13416C9.70682 2.39219 9.62252 2.61119 9.55062 2.79116L9.13953 3.80592L11.0129 3.80592L10.6032 2.79116Z" fill-rule="evenodd" stroke="rgb(0,0,0)" stroke-width="0.215384603" />
			</g>
		</g>
	</g>
</svg>
