<svg viewBox="0 0 16 16" xmlns="http://www.w3.org/2000/svg" xmlns:xlink="http://www.w3.org/1999/xlink" width="16.000000" height="16.000000" fill="none" customFrame="#000000">
	<rect id="容器 232" width="16.000000" height="16.000000" x="0.000000" y="0.000000" fill="rgb(196,196,196)" fill-opacity="0" />
	<g id="组合 374">
		<path id="矩形 139" d="M1.58478 8.17152L1.58478 1.25L7.99975 1.25L11.1233 1.25L14.4147 3.70687L14.4147 6.16517L14.4147 8.17152L13.4147 8.17152L13.4147 6.16517L13.4147 3.95758L13.9147 3.95758L13.6156 4.35827L10.6582 2.15068L10.9572 1.75L10.9572 2.25L7.99975 2.25L2.08478 2.25L2.08478 1.75L2.58478 1.75L2.58478 8.17152L1.58478 8.17152Z" fill="rgb(0,0,0)" fill-rule="nonzero" />
		<g id="MP3">
			<path id="矢量 315" d="M5.57611 9.1543L6.13004 9.1543L6.13004 14.177L5.57611 14.177L5.57611 10.2456L4.09586 13.1729L3.6716 13.1729L2.18394 10.2456L2.18394 14.177L1.63 14.177L1.63 9.1543L2.18394 9.1543L3.8828 12.5383L5.57611 9.1543Z" fill="rgb(0,0,0)" fill-rule="evenodd" />
			<path id="矢量 315" d="M6.13004 9.1543L6.13004 14.177L5.57611 14.177L5.57611 10.2456L4.09586 13.1729L3.6716 13.1729L2.18394 10.2456L2.18394 14.177L1.63 14.177L1.63 9.1543L2.18394 9.1543L3.8828 12.5383L5.57611 9.1543L6.13004 9.1543Z" fill-rule="evenodd" stroke="rgb(0,0,0)" stroke-width="0.283919" />
			<path id="矢量 316" d="M9.22447 9.1543C9.73395 9.1543 10.136 9.28404 10.4324 9.54709C10.7195 9.80836 10.8715 10.1727 10.8715 10.6544C10.8715 11.104 10.7195 11.4613 10.425 11.7172C10.1286 11.9785 9.72654 12.1029 9.22447 12.1029L7.89799 12.1029L7.89799 14.177L7.34406 14.177L7.34406 9.1543L9.22447 9.1543ZM9.18001 11.6212C9.54498 11.6212 9.82473 11.5413 10.023 11.3813C10.2193 11.2213 10.3175 10.9814 10.3175 10.6544C10.3175 10.3113 10.2193 10.0572 10.023 9.88834C9.82473 9.72127 9.54498 9.63418 9.18001 9.63418L7.89799 9.63418L7.89799 11.6212L9.18001 11.6212Z" fill="rgb(0,0,0)" fill-rule="evenodd" />
			<path id="矢量 316" d="M10.4324 9.54709C10.7195 9.80836 10.8715 10.1727 10.8715 10.6544C10.8715 11.104 10.7195 11.4613 10.425 11.7172C10.1286 11.9785 9.72654 12.1029 9.22447 12.1029L7.89799 12.1029L7.89799 14.177L7.34406 14.177L7.34406 9.1543L9.22447 9.1543C9.73395 9.1543 10.136 9.28404 10.4324 9.54709ZM10.023 11.3813C10.2193 11.2213 10.3175 10.9814 10.3175 10.6544C10.3175 10.3113 10.2193 10.0572 10.023 9.88834C9.82473 9.72127 9.54498 9.63418 9.18001 9.63418L7.89799 9.63418L7.89799 11.6212L9.18001 11.6212C9.54498 11.6212 9.82473 11.5413 10.023 11.3813Z" fill-rule="evenodd" stroke="rgb(0,0,0)" stroke-width="0.283919" />
			<path id="矢量 317" d="M12.9509 14.25C12.5266 14.25 12.1931 14.1487 11.9504 13.9301C11.6985 13.7115 11.5781 13.42 11.5781 13.0486L11.5781 12.933L12.132 12.933L12.132 13.0272C12.132 13.2601 12.2005 13.4485 12.3525 13.58C12.5044 13.7115 12.7008 13.7773 12.9583 13.7773C13.2251 13.7773 13.4363 13.7044 13.5882 13.5444C13.7401 13.3845 13.816 13.173 13.816 12.9028L13.816 12.7144C13.816 12.4372 13.7327 12.2185 13.5733 12.0586C13.414 11.8986 13.1936 11.8115 12.9212 11.8115L12.647 11.8115L12.647 11.3299L12.9138 11.3299C13.1639 11.3299 13.3603 11.2588 13.5122 11.1042C13.6567 10.9513 13.7327 10.7487 13.7327 10.5016L13.7327 10.3559C13.7327 10.1142 13.6567 9.91867 13.5196 9.77293C13.377 9.62718 13.1861 9.55431 12.9435 9.55431C12.7008 9.55431 12.5118 9.62718 12.3747 9.75871C12.2376 9.89734 12.1691 10.0786 12.1691 10.3043L12.1691 10.4199L11.6392 10.4199L11.6392 10.2901C11.6392 9.92578 11.7522 9.62718 11.9875 9.40857C12.2228 9.18996 12.5488 9.08154 12.9583 9.08154C13.3603 9.08154 13.6789 9.19707 13.9235 9.42279C14.1569 9.64851 14.2792 9.94711 14.2792 10.3257L14.2792 10.4856C14.2792 10.7345 14.2181 10.9442 14.0976 11.1201C13.9754 11.3014 13.816 11.433 13.6197 11.52C13.8624 11.6071 14.0439 11.76 14.1736 11.9644C14.3014 12.1688 14.37 12.4158 14.37 12.7002L14.37 12.8744C14.37 13.2956 14.2329 13.6315 13.9754 13.8786C13.7179 14.1256 13.377 14.25 12.9509 14.25Z" fill="rgb(0,0,0)" fill-rule="evenodd" />
			<path id="矢量 317" d="M11.9504 13.9301C11.6985 13.7115 11.5781 13.42 11.5781 13.0486L11.5781 12.933L12.132 12.933L12.132 13.0272C12.132 13.2601 12.2005 13.4485 12.3525 13.58C12.5044 13.7115 12.7008 13.7773 12.9583 13.7773C13.2251 13.7773 13.4363 13.7044 13.5882 13.5444C13.7401 13.3845 13.816 13.173 13.816 12.9028L13.816 12.7144C13.816 12.4372 13.7327 12.2185 13.5733 12.0586C13.414 11.8986 13.1936 11.8115 12.9212 11.8115L12.647 11.8115L12.647 11.3299L12.9138 11.3299C13.1639 11.3299 13.3603 11.2588 13.5122 11.1042C13.6567 10.9513 13.7327 10.7487 13.7327 10.5016L13.7327 10.3559C13.7327 10.1142 13.6567 9.91867 13.5196 9.77293C13.377 9.62718 13.1861 9.55431 12.9435 9.55431C12.7008 9.55431 12.5118 9.62718 12.3747 9.75871C12.2376 9.89734 12.1691 10.0786 12.1691 10.3043L12.1691 10.4199L11.6392 10.4199L11.6392 10.2901C11.6392 9.92578 11.7522 9.62718 11.9875 9.40857C12.2228 9.18996 12.5488 9.08154 12.9583 9.08154C13.3603 9.08154 13.6789 9.19707 13.9235 9.42279C14.1569 9.64851 14.2792 9.94711 14.2792 10.3257L14.2792 10.4856C14.2792 10.7345 14.2181 10.9442 14.0976 11.1201C13.9754 11.3014 13.816 11.433 13.6197 11.52C13.8624 11.6071 14.0439 11.76 14.1736 11.9644C14.3014 12.1688 14.37 12.4158 14.37 12.7002L14.37 12.8744C14.37 13.2956 14.2329 13.6315 13.9754 13.8786C13.7179 14.1256 13.377 14.25 12.9509 14.25C12.5266 14.25 12.1931 14.1487 11.9504 13.9301Z" fill-rule="evenodd" stroke="rgb(0,0,0)" stroke-width="0.283919" />
		</g>
	</g>
</svg>
