<svg viewBox="0 0 14 14" xmlns="http://www.w3.org/2000/svg" xmlns:xlink="http://www.w3.org/1999/xlink" width="14.000000" height="14.000000" fill="none" customFrame="#000000">
	<rect id="容器 227" width="14.000000" height="14.000000" x="0.000000" y="0.000000" fill="rgb(196,196,196)" fill-opacity="0" />
	<g id="编组 102">
		<path id="矩形" d="M2.26025 1L8.14179 1L11.6481 4.62264L11.6481 13L2.26025 13L2.26025 1Z" fill="rgb(216,216,216)" fill-opacity="0" fill-rule="evenodd" />
		<path id="矩形" d="M8.14179 1L11.6481 4.62264L11.6481 13L2.26025 13L2.26025 1L8.14179 1Z" fill-rule="evenodd" stroke="rgb(0,0,0)" stroke-width="0.899999976" />
		<path id="路径" d="M4.43858e-18 2.28887L2.5077 -2.60359e-13L5.1472 2.1592" fill="rgb(216,216,216)" fill-opacity="0" fill-rule="evenodd" transform="matrix(0.707107,0.707107,0.707107,-0.707107,6.48169,2.62305)" />
		<path id="路径" d="M4.43858e-18 2.28887L2.5077 -2.60359e-13L5.1472 2.1592" fill-rule="evenodd" stroke="rgb(0,0,0)" stroke-width="0.899999976" transform="matrix(0.707107,0.707107,0.707107,-0.707107,6.48169,2.62305)" />
		<g id="编组 98">
			<path id="路径 57" d="M0 0L2.53715 0" stroke="rgb(0,0,0)" stroke-width="0.899999976" transform="matrix(0,-1,1,0,4.63525,9.26855)" />
			<path id="路径 57备份" d="M0 0L5.5 0" stroke="rgb(0,0,0)" stroke-width="0.899999976" transform="matrix(0,-1,1,0,6.87256,10.75)" />
			<path id="路径 57备份 2" d="M0 0L3.5 0" stroke="rgb(0,0,0)" stroke-width="0.899999976" transform="matrix(0,-1,1,0,9.1167,9.75684)" />
		</g>
	</g>
</svg>
