<svg viewBox="0 0 17.8 17.8" xmlns="http://www.w3.org/2000/svg" xmlns:xlink="http://www.w3.org/1999/xlink" width="17.800049" height="17.799988" fill="none" customFrame="#000000">
	<path id="矢量 574" d="M13.3524 17.4L13.3524 14.1619L3.63812 14.1619L3.63812 4.44761L0.400024 4.44761L0.400024 3.63809L3.63812 3.63809L3.63812 0.399994L4.44764 0.399994L4.44764 13.3524L17.4 13.3524L17.4 14.1619L14.1619 14.1619L14.1619 17.4L13.3524 17.4ZM13.3524 11.5429L13.3524 4.44761L6.25717 4.44761L6.25717 3.63809L14.1619 3.63809L14.1619 11.5429L13.3524 11.5429Z" fill="rgb(0,117,255)" fill-rule="nonzero" />
	<path id="矢量 574" d="M13.3524 14.1619L3.63812 14.1619L3.63812 4.44761L0.400024 4.44761L0.400024 3.63809L3.63812 3.63809L3.63812 0.399994L4.44764 0.399994L4.44764 13.3524L17.4 13.3524L17.4 14.1619L14.1619 14.1619L14.1619 17.4L13.3524 17.4L13.3524 14.1619ZM13.3524 4.44761L6.25717 4.44761L6.25717 3.63809L14.1619 3.63809L14.1619 11.5429L13.3524 11.5429L13.3524 4.44761Z" fill-rule="nonzero" stroke="rgb(0,117,255)" stroke-width="0.800000012" />
</svg>
