<svg viewBox="0 0 18.9592 20.5" xmlns="http://www.w3.org/2000/svg" xmlns:xlink="http://www.w3.org/1999/xlink" width="18.959229" height="20.500000" fill="none" customFrame="#000000">
	<g id="后退" opacity="0.599999964">
		<g id="组合 126">
			<path id="椭圆 9" d="M13.38 0.58115C14.9155 1.38731 16.1394 2.52914 17.0515 4.00664C17.9899 5.52684 18.4592 7.18448 18.4592 8.97958C18.4592 10.2651 18.2108 11.4951 17.714 12.6696C17.2343 13.8038 16.5572 14.8082 15.6827 15.6827C14.8081 16.5572 13.8038 17.2343 12.6696 17.714C11.4951 18.2108 10.2651 18.4592 8.97959 18.4592C7.69406 18.4592 6.46404 18.2108 5.28955 17.714C4.15536 17.2343 3.15102 16.5572 2.27651 15.6827C1.40199 14.8081 0.724875 13.8038 0.245158 12.6696C-0.251614 11.4951 -0.5 10.2651 -0.5 8.97958C-0.5 7.69406 -0.251614 6.46405 0.245158 5.28955C0.724876 4.15537 1.40199 3.15102 2.27651 2.27651C3.15102 1.40199 4.15537 0.724878 5.28955 0.245159C6.46405 -0.251613 7.69406 -0.499999 8.97958 -0.499999L8.97958 0.500001C6.63801 0.5 4.63935 1.32787 2.98361 2.98361C1.32787 4.63936 0.5 6.63801 0.5 8.97958C0.499999 11.3212 1.32787 13.3198 2.98361 14.9756C4.63935 16.6313 6.63801 17.4592 8.97959 17.4592C11.3212 17.4592 13.3198 16.6313 14.9756 14.9756C16.6313 13.3198 17.4592 11.3212 17.4592 8.97958C17.4592 7.37368 17.0396 5.89113 16.2006 4.53194C15.3843 3.2097 14.2892 2.1879 12.9151 1.46655L13.38 0.58115ZM8.95958 -0.499999L9.47958 -0.499999L9.47958 0.499999L8.95958 0.499999L8.95958 -0.499999ZM12.9329 1.47585L12.4724 1.23414L12.9373 0.348736L13.3977 0.590446L12.9329 1.47585Z" fill="rgb(0,0,0)" fill-rule="nonzero" transform="matrix(-1,0,0,1,18.4592,2.04083)" />
			<path id="矢量 68" d="M2.22704 0.0956969L4.00638 2.31417C4.16841 2.51618 4.05146 2.85717 3.82016 2.85717L0.26146 2.85717C0.0301615 2.85717 -0.0867915 2.51618 0.0752346 2.31417L1.85457 0.0956969C1.95687 -0.0318665 2.12475 -0.0318665 2.22704 0.0956969Z" fill="rgb(0,0,0)" fill-rule="evenodd" transform="matrix(-0.0474107,0.998875,0.998875,0.0474106,6.96948,0)" />
		</g>
		<path id="矢量 572" d="M6.7832 15.2061L6.7832 8.77393L5.521 9.71729L5.521 8.84912L6.77271 7.88232L7.54761 7.88232L7.54761 15.2061L6.7832 15.2061ZM9.67139 14.8564C10.0005 15.1646 10.4568 15.3125 11.0398 15.3125C11.6228 15.3125 12.0815 15.1411 12.4211 14.7812C12.7502 14.4312 12.9187 13.9312 12.9187 13.2959L12.9187 12.5005C12.9187 11.8423 12.771 11.3423 12.4729 10.9819C12.1748 10.6318 11.7292 10.4507 11.146 10.4507C10.9128 10.4507 10.6899 10.5024 10.498 10.5879C10.2959 10.6733 10.1379 10.79 10.011 10.9272L10.011 8.59229L12.802 8.59229L12.802 7.88232L9.29834 7.88232L9.29834 11.894L9.97974 11.894C10.0525 11.6606 10.1794 11.4795 10.3711 11.3525C10.5525 11.2256 10.7754 11.1504 11.0398 11.1504C11.4104 11.1504 11.6877 11.2671 11.8691 11.5C12.0479 11.7358 12.1438 12.0757 12.1438 12.542L12.1438 13.2314C12.1438 14.1538 11.7732 14.6128 11.0295 14.6128C10.6692 14.6128 10.4023 14.5269 10.2131 14.3354C10.0212 14.1538 9.92554 13.8896 9.92554 13.5503L9.92554 13.4751L9.18164 13.4751L9.18164 13.6147C9.18164 14.1436 9.34229 14.5581 9.67139 14.8564Z" fill="rgb(0,0,0)" fill-rule="evenodd" />
	</g>
</svg>
