<svg viewBox="0 0 16 16" xmlns="http://www.w3.org/2000/svg" xmlns:xlink="http://www.w3.org/1999/xlink" width="16.000000" height="16.000000" fill="none" customFrame="#000000">
	<rect id="容器 232" width="16.000000" height="16.000000" x="0.000000" y="0.000000" fill="rgb(196,196,196)" fill-opacity="0" />
	<g id="组合 459">
		<path id="矩形 139" d="M1.33911 8.34095L1.33911 1.41943L7.75409 1.41943L10.8776 1.41943L14.1691 3.8763L14.1691 6.3346L14.1691 8.34095L13.1691 8.34095L13.1691 6.3346L13.1691 4.12702L13.6691 4.12702L13.37 4.5277L10.4125 2.32012L10.7116 1.91943L10.7116 2.41943L7.75409 2.41943L1.83911 2.41943L1.83911 1.91943L2.33911 1.91943L2.33911 8.34095L1.33911 8.34095Z" fill="rgb(0,0,0)" fill-rule="nonzero" />
		<g id="WAV">
			<path id="矢量 513" d="M6.3064 9.25098L7.16089 9.25098L6.00562 14.0806L5.16479 14.0806L4.28296 10.5037L3.40796 14.0806L2.57568 14.0806L1.38452 9.25098L2.30225 9.25098L3.03027 12.6604L3.73779 9.25098L4.87769 9.25098L5.61938 12.6604L6.3064 9.25098Z" fill="rgb(0,0,0)" fill-rule="evenodd" />
			<path id="矢量 514" d="M10.1484 14.0806L9.85443 13.1423L8.19672 13.1423L7.90277 14.0806L6.93549 14.0806L8.65131 9.25098L9.39984 9.25098L11.1225 14.0806L10.1484 14.0806ZM8.4411 12.3801L9.61005 12.3801L9.02216 10.5242L8.4411 12.3801Z" fill="rgb(0,0,0)" fill-rule="evenodd" />
			<path id="矢量 515" d="M12.334 14.0806L10.7925 9.25098L11.7529 9.25098L12.7048 12.5903L13.6567 9.25098L14.6155 9.25098L13.0688 14.0806L12.334 14.0806Z" fill="rgb(0,0,0)" fill-rule="evenodd" />
		</g>
	</g>
</svg>
