<svg viewBox="0 0 16 16" xmlns="http://www.w3.org/2000/svg" xmlns:xlink="http://www.w3.org/1999/xlink" width="16.000000" height="16.000000" fill="none" customFrame="#000000">
	<rect id="容器 137" width="16.000000" height="16.000000" x="0.000000" y="0.000000" fill="rgb(196,196,196)" fill-opacity="0" />
	<path id="矢量 218" d="M10.1 12.2656C9.925 11.85 9.35625 11.1281 8.41562 10.1219C8.15312 9.85938 8.175 9.64062 8.2625 9.05L8.2625 8.98438C8.32812 8.56875 8.4375 8.32812 9.8375 8.10938C10.5594 8 10.7344 8.28438 10.9969 8.67813C11.0187 8.72188 11.0625 8.76562 11.0844 8.80937C11.325 9.15937 11.5219 9.24687 11.7844 9.37812C11.9156 9.44375 12.0688 9.50937 12.2656 9.61875C12.7469 9.90312 12.7469 10.2094 12.7469 10.9094L12.7469 10.9969C12.7469 12.1125 12.3313 12.7031 12.1781 12.9C11.5656 13.425 10.8656 13.8406 10.1 14.1031C10.4938 13.3594 10.2094 12.5063 10.1 12.2656L10.1 12.2656ZM8 1.56875C9.00625 1.56875 9.94688 1.7875 10.7781 2.20312C10.3188 2.4875 9.64062 2.94688 9.37813 3.34063C9.26875 3.47188 9.18125 3.60313 9.11563 3.73438C8.85312 4.12813 8.72188 4.325 8.48125 4.34688C8.35 4.36875 8.19687 4.34688 8.02188 4.34688C7.5625 4.325 6.90625 4.28125 6.70937 4.82812C6.57812 5.17813 6.55625 6.14063 6.97188 6.62188C7.0375 6.70938 7.05938 6.84063 7.01563 7.01563C6.95 7.23438 6.84063 7.36563 6.79688 7.3875C6.73125 7.34375 6.57813 7.16875 6.49063 7.05938C6.25 6.775 5.96563 6.44688 5.57188 6.3375C5.44063 6.29375 5.2875 6.27188 5.13438 6.22813C4.71875 6.14063 4.25938 6.05313 4.15 5.8125C4.0625 5.6375 4.0625 5.41875 4.0625 5.15625C4.0625 4.85 4.0625 4.5 3.90938 4.15C3.77813 3.84375 3.5375 3.69063 3.29688 3.60313C4.45625 2.35625 6.14063 1.56875 8 1.56875L8 1.56875ZM1 8C1 11.8719 4.12813 15 8 15C11.8719 15 15 11.8719 15 8C15 4.12813 11.8719 1 8 1C4.12813 1 1 4.12813 1 8Z" fill="rgb(0,0,0)" fill-rule="nonzero" />
	<path id="矢量 218" d="M8.41562 10.1219C8.15312 9.85938 8.175 9.64062 8.2625 9.05L8.2625 8.98438C8.32812 8.56875 8.4375 8.32812 9.8375 8.10938C10.5594 8 10.7344 8.28438 10.9969 8.67813C11.0187 8.72188 11.0625 8.76562 11.0844 8.80937C11.325 9.15937 11.5219 9.24687 11.7844 9.37812C11.9156 9.44375 12.0688 9.50937 12.2656 9.61875C12.7469 9.90312 12.7469 10.2094 12.7469 10.9094L12.7469 10.9969C12.7469 12.1125 12.3313 12.7031 12.1781 12.9C11.5656 13.425 10.8656 13.8406 10.1 14.1031C10.4938 13.3594 10.2094 12.5063 10.1 12.2656L10.1 12.2656C9.925 11.85 9.35625 11.1281 8.41562 10.1219ZM10.7781 2.20312C10.3188 2.4875 9.64062 2.94688 9.37813 3.34063C9.26875 3.47188 9.18125 3.60313 9.11563 3.73438C8.85312 4.12813 8.72188 4.325 8.48125 4.34688C8.35 4.36875 8.19687 4.34688 8.02188 4.34688C7.5625 4.325 6.90625 4.28125 6.70937 4.82812C6.57812 5.17813 6.55625 6.14063 6.97188 6.62188C7.0375 6.70938 7.05938 6.84063 7.01563 7.01563C6.95 7.23438 6.84063 7.36563 6.79688 7.3875C6.73125 7.34375 6.57813 7.16875 6.49063 7.05938C6.25 6.775 5.96563 6.44688 5.57188 6.3375C5.44063 6.29375 5.2875 6.27188 5.13438 6.22813C4.71875 6.14063 4.25938 6.05313 4.15 5.8125C4.0625 5.6375 4.0625 5.41875 4.0625 5.15625C4.0625 4.85 4.0625 4.5 3.90938 4.15C3.77813 3.84375 3.5375 3.69063 3.29688 3.60313C4.45625 2.35625 6.14063 1.56875 8 1.56875L8 1.56875C9.00625 1.56875 9.94688 1.7875 10.7781 2.20312ZM8 15C11.8719 15 15 11.8719 15 8C15 4.12813 11.8719 1 8 1C4.12813 1 1 4.12813 1 8C1 11.8719 4.12813 15 8 15Z" fill-rule="nonzero" stroke="rgb(0,0,0)" stroke-width="0.777777791" />
</svg>
