<svg viewBox="0 0 21.5 23.5449" xmlns="http://www.w3.org/2000/svg" xmlns:xlink="http://www.w3.org/1999/xlink" width="21.500000" height="23.544876" fill="none" customFrame="#000000">
	<g id="组合 520">
		<path id="矢量 48" d="M11.5014 1.58066L11.4999 17.5569L9.99987 17.5567L10.0014 1.58052L11.5014 1.58066ZM3.90502 6.549L10.2208 0.263282C10.5735 -0.0877473 10.9262 -0.0877473 11.2789 0.263282L17.5947 6.549L16.5366 7.61219L10.2208 1.32647L10.7499 0.794876L11.2789 1.32647L4.96314 7.61219L3.90502 6.549ZM10.0014 1.60052L10.0015 0.830518L11.5015 0.830663L11.5014 1.60066L10.0014 1.60052ZM11.4999 17.5369L11.4998 18.3069L9.9998 18.3067L9.99987 17.5367L11.4999 17.5369ZM4.97732 7.59808L4.43155 8.14125L3.37343 7.07806L3.91919 6.53489L4.97732 7.59808ZM17.5806 6.53489L18.1263 7.07806L17.0682 8.14125L16.5224 7.59808L17.5806 6.53489Z" fill="rgb(154,154,154)" fill-rule="nonzero" />
		<path id="矩形 145" d="M15.75 9.47345L20.75 9.47345C21.25 9.47345 21.5 9.72345 21.5 10.2234L21.5 22.7949C21.5 23.2949 21.25 23.5449 20.75 23.5449L0.75 23.5449C0.25 23.5449 0 23.2949 0 22.7949L0 10.2234C0 9.72345 0.25 9.47345 0.75 9.47345L5.75 9.47345L5.75 10.9734L0.75 10.9734L0.75 10.2234L1.5 10.2234L1.5 22.7949L0.75 22.7949L0.75 22.0449L20.75 22.0449L20.75 22.7949L20 22.7949L20 10.2234L20.75 10.2234L20.75 10.9734L15.75 10.9734L15.75 9.47345Z" fill="rgb(154,154,154)" fill-rule="nonzero" />
	</g>
</svg>
