<svg viewBox="0 0 15.5513 16" xmlns="http://www.w3.org/2000/svg" xmlns:xlink="http://www.w3.org/1999/xlink" width="15.551270" height="16.000000" fill="none" customFrame="#000000">
	<path id="矢量 106" d="M8.7874 16L7.43061 15.5477C6.83332 15.3487 6.35061 14.9937 5.98246 14.483C5.61432 13.9723 5.43024 13.4021 5.43021 12.7725L5.43021 10.8322L2.3719 10.8322C2.02588 10.8322 1.69568 10.7599 1.38129 10.6154C1.0669 10.4709 0.797049 10.2673 0.571745 10.0047C0.34644 9.74206 0.186269 9.4444 0.0912291 9.11169C-0.00381047 8.77898 -0.0250328 8.44162 0.0275621 8.09963L0.963716 2.01147C1.05269 1.43288 1.31932 0.953002 1.76358 0.571818C2.20785 0.190634 2.72267 2.76553e-05 3.30805 0L15.5508 0L15.5508 9.40898L11.716 9.40898L8.7874 16ZM11.9928 7.82764L13.9695 7.82764L13.9695 1.58134L11.9928 1.58134L11.9928 7.82764ZM10.4114 1.58134L3.30884 1.58134C2.85677 1.58151 2.59638 1.80501 2.52766 2.25183L1.59072 8.33999C1.55388 8.57956 1.6144 8.7913 1.77228 8.97521C1.93017 9.15911 2.13031 9.25099 2.37269 9.25084L7.01155 9.25084L7.01155 12.7725C7.01153 13.4148 7.31567 13.8392 7.92399 14.0455L10.4114 8.45068L10.4114 1.58134Z" fill="rgb(154,154,154)" fill-rule="nonzero" transform="matrix(-1,0,0,-1,15.5508,16)" />
</svg>
