<svg viewBox="0 0 16 16" xmlns="http://www.w3.org/2000/svg" xmlns:xlink="http://www.w3.org/1999/xlink" width="16.000000" height="16.000000" fill="none" customFrame="#000000">
	<rect id="容器 136" width="16.000000" height="16.000000" x="0.000000" y="0.000000" fill="rgb(196,196,196)" fill-opacity="0" />
	<g id="组合 307">
		<path id="矢量 214" d="M6.52633 6.89471C7.95065 6.89471 9.10528 5.74008 9.10528 4.31576C9.10528 2.89145 7.95065 1.73682 6.52633 1.73682C5.10202 1.73682 3.94739 2.89145 3.94739 4.31576C3.94739 5.74008 5.10202 6.89471 6.52633 6.89471Z" fill="rgb(0,0,0)" fill-rule="nonzero" />
		<path id="矢量 214" d="M9.10528 4.31576C9.10528 2.89145 7.95065 1.73682 6.52633 1.73682C5.10202 1.73682 3.94739 2.89145 3.94739 4.31576C3.94739 5.74008 5.10202 6.89471 6.52633 6.89471C7.95065 6.89471 9.10528 5.74008 9.10528 4.31576Z" fill-rule="nonzero" stroke="rgb(0,0,0)" stroke-width="1.10526252" />
		<path id="矢量 215" d="M11.6843 2.47363C11.6843 2.47363 12.5133 4.13153 11.6843 6.15784" stroke="rgb(0,0,0)" stroke-width="1.10526252" />
		<path id="矢量 216" d="M14.2632 1C14.2632 1 15.9211 3.98421 14.2632 7.63158" stroke="rgb(0,0,0)" stroke-width="1.10526252" />
		<path id="矢量 217" d="M1 14.5581L1 15.0002L12.0526 15.0002L12.0526 14.5581C12.0526 12.9074 12.0526 12.0821 11.7314 11.4516C11.4488 10.897 10.9979 10.4461 10.4433 10.1635C9.81285 9.84229 8.98751 9.84229 7.33684 9.84229L5.71579 9.84229C4.06512 9.84229 3.23978 9.84229 2.60929 10.1635C2.05471 10.4461 1.60382 10.897 1.32124 11.4516C1 12.0821 1 12.9074 1 14.5581Z" fill="rgb(0,0,0)" fill-rule="nonzero" />
		<path id="矢量 217" d="M1 15.0002L12.0526 15.0002L12.0526 14.5581C12.0526 12.9074 12.0526 12.0821 11.7314 11.4516C11.4488 10.897 10.9979 10.4461 10.4433 10.1635C9.81285 9.84229 8.98751 9.84229 7.33684 9.84229L5.71579 9.84229C4.06512 9.84229 3.23978 9.84229 2.60929 10.1635C2.05471 10.4461 1.60382 10.897 1.32124 11.4516C1 12.0821 1 12.9074 1 14.5581L1 15.0002Z" fill-rule="nonzero" stroke="rgb(0,0,0)" stroke-width="1.10526252" />
	</g>
</svg>
