<svg viewBox="0 0 18.9592 20.5" xmlns="http://www.w3.org/2000/svg" xmlns:xlink="http://www.w3.org/1999/xlink" width="18.959229" height="20.500000" fill="none" customFrame="#000000">
	<g id="前进" opacity="0.599999964">
		<path id="椭圆 8" d="M13.88 2.62198C15.4156 3.42815 16.6394 4.56997 17.5515 6.04747C18.4899 7.56767 18.9592 9.22532 18.9592 11.0204C18.9592 12.3059 18.7108 13.536 18.214 14.7105C17.7343 15.8446 17.0572 16.849 16.1827 17.7235C15.3082 18.598 14.3038 19.2751 13.1696 19.7548C11.9951 20.2516 10.7651 20.5 9.47959 20.5C8.19406 20.5 6.96405 20.2516 5.78955 19.7548C4.65536 19.2751 3.65102 18.598 2.77651 17.7235C1.90199 16.849 1.22488 15.8446 0.745159 14.7105C0.248386 13.536 1.19209e-07 12.3059 0 11.0204C0 9.73489 0.248386 8.50488 0.745158 7.33038C1.22488 6.1962 1.90199 5.19185 2.77651 4.31734C3.65102 3.44283 4.65537 2.76571 5.78955 2.28599C6.96405 1.78922 8.19406 1.54083 9.47959 1.54083L9.47959 2.54083C7.13801 2.54083 5.13936 3.3687 3.48361 5.02445C1.82787 6.68019 1 8.67884 1 11.0204C1 13.362 1.82787 15.3606 3.48361 17.0164C5.13935 18.6721 7.13801 19.5 9.47959 19.5C11.8212 19.5 13.8198 18.6721 15.4756 17.0164C17.1313 15.3606 17.9592 13.362 17.9592 11.0204C17.9592 9.41452 17.5396 7.93197 16.7006 6.57277C15.8843 5.25053 14.7892 4.22873 13.4151 3.50738L13.88 2.62198ZM9.45959 1.54083L9.97959 1.54083L9.97959 2.54083L9.45959 2.54083L9.45959 1.54083ZM13.4329 3.51668L12.9724 3.27497L13.4373 2.38957L13.8977 2.63128L13.4329 3.51668Z" fill="rgb(0,0,0)" fill-rule="nonzero" />
		<path id="矢量 67" d="M2.22704 0.0956964L4.00638 2.31416C4.16841 2.51617 4.05146 2.85715 3.82016 2.85715L0.26146 2.85715C0.0301615 2.85715 -0.0867915 2.51617 0.0752346 2.31416L1.85457 0.0956964C1.95687 -0.0318663 2.12475 -0.0318663 2.22704 0.0956964Z" fill="rgb(0,0,0)" fill-rule="evenodd" transform="matrix(0.0474105,0.998875,-0.998875,0.0474109,11.9897,0)" />
		<path id="矢量 571" d="M6.78271 15.2041L6.78271 8.77344L5.521 9.7168L5.521 8.84863L6.77234 7.88232L7.54712 7.88232L7.54712 15.2041L6.78271 15.2041ZM9.67041 14.8545C9.99951 15.1626 10.4554 15.3105 11.0385 15.3105C11.6213 15.3105 12.08 15.1392 12.4194 14.7793C12.7484 14.4297 12.9169 13.9292 12.9169 13.2944L12.9169 12.4995C12.9169 11.8413 12.7692 11.3413 12.4712 10.981C12.1732 10.6313 11.7277 10.4497 11.1447 10.4497C10.9115 10.4497 10.6887 10.5015 10.4969 10.5874C10.2949 10.6729 10.1368 10.7891 10.0099 10.9268L10.0099 8.59229L12.8003 8.59229L12.8003 7.88232L9.29736 7.88232L9.29736 11.8931L9.97876 11.8931C10.0513 11.6597 10.1782 11.4785 10.37 11.3516C10.5514 11.2246 10.7742 11.1494 11.0385 11.1494C11.4089 11.1494 11.6862 11.2661 11.8676 11.499C12.0463 11.7349 12.1422 12.0742 12.1422 12.5405L12.1422 13.23C12.1422 14.1523 11.7716 14.6108 11.0281 14.6108C10.668 14.6108 10.4011 14.5254 10.2119 14.3335C10.0203 14.1523 9.92432 13.8882 9.92432 13.5483L9.92432 13.4736L9.18079 13.4736L9.18079 13.6133C9.18079 14.1421 9.34143 14.5566 9.67041 14.8545Z" fill="rgb(0,0,0)" fill-rule="evenodd" />
		<path id="矢量 571" d="M6.78271 15.2041L7.54712 15.2041L7.54712 7.88232L6.77234 7.88232L6.54712 8.05624L5.521 8.84863L5.521 9.7168L5.94601 9.39902L6.521 8.96912L6.54712 8.94959L6.77234 8.7812L6.78271 8.77344L6.78271 15.2041ZM12.8003 8.59229L12.8003 7.88232L9.29736 7.88232L9.29736 11.8931L9.97876 11.8931C10.0417 11.6905 10.1456 11.5273 10.2974 11.4047C10.3205 11.3861 10.3447 11.3683 10.37 11.3516C10.5514 11.2246 10.7742 11.1494 11.0385 11.1494C11.4089 11.1494 11.6862 11.2661 11.8676 11.499C12.0463 11.7349 12.1422 12.0742 12.1422 12.5405L12.1422 13.23C12.1422 14.1523 11.7716 14.6108 11.0281 14.6108C10.668 14.6108 10.4011 14.5254 10.2119 14.3335C10.0203 14.1523 9.92432 13.8882 9.92432 13.5483L9.92432 13.4736L9.18079 13.4736L9.18079 13.6133C9.18079 13.9453 9.24412 14.2323 9.37269 14.4736C9.44888 14.6167 9.54799 14.7437 9.67041 14.8545C9.67265 14.8566 9.6749 14.8587 9.67716 14.8608C9.68363 14.8668 9.69015 14.8727 9.69672 14.8785C10.0237 15.1703 10.4708 15.3105 11.0385 15.3105C11.6213 15.3105 12.08 15.1392 12.4194 14.7793C12.7484 14.4297 12.9169 13.9292 12.9169 13.2944L12.9169 12.4995C12.9169 11.8413 12.7692 11.3413 12.4712 10.981C12.1732 10.6313 11.7277 10.4497 11.1447 10.4497C11.0993 10.4497 11.0543 10.4517 11.0099 10.4555C10.826 10.4711 10.6514 10.5182 10.4969 10.5874C10.425 10.6178 10.3587 10.6521 10.2974 10.6899C10.2069 10.7456 10.1273 10.8089 10.0567 10.8784C10.0532 10.8818 10.0497 10.8853 10.0462 10.8889C10.0338 10.9013 10.0217 10.9139 10.0099 10.9268L10.0099 8.59229L12.8003 8.59229Z" fill="rgb(0,0,0)" fill-opacity="0" fill-rule="evenodd" />
	</g>
</svg>
