<svg viewBox="0 0 16 16" xmlns="http://www.w3.org/2000/svg" xmlns:xlink="http://www.w3.org/1999/xlink" width="16.000000" height="16.000000" fill="none" customFrame="#000000">
	<rect id="容器 138" width="16.000000" height="16.000000" x="0.000000" y="0.000000" fill="rgb(196,196,196)" fill-opacity="0" />
	<path id="矢量 210" d="M10.2875 14.125C11.3856 10.9068 12.5989 9.74562 15.7777 8.875C12.5989 8.00438 11.3856 6.84325 10.2875 3.625C9.18949 6.84325 7.97616 8.00438 4.79733 8.875C7.97616 9.74562 9.18949 10.9068 10.2875 14.125ZM2.96727 6.25C3.51629 4.64 4.12295 4.05987 5.71236 3.625C4.12295 3.19012 3.51629 2.61 2.96727 1C2.41825 2.61 1.81158 3.19013 0.222168 3.625C1.81158 4.05988 2.41825 4.64 2.96727 6.25ZM4.33982 15C4.61433 14.195 4.9172 13.9054 5.71236 13.6875C4.9172 13.4696 4.61433 13.18 4.33982 12.375C4.06531 13.18 3.76243 13.4696 2.96727 13.6875C3.76243 13.9054 4.06531 14.195 4.33982 15Z" fill="rgb(0,0,0)" fill-rule="nonzero" />
</svg>
