<svg viewBox="0 0 16 16" xmlns="http://www.w3.org/2000/svg" xmlns:xlink="http://www.w3.org/1999/xlink" width="16.000000" height="16.000000" fill="none" customFrame="#000000">
	<rect id="容器 233" width="16.000000" height="16.000000" x="0.000000" y="0.000000" fill="rgb(196,196,196)" fill-opacity="0" />
	<g id="编组 99">
		<g id="编组 97">
			<path id="矩形" d="M4.21942 1.5L10.5911 1.5L14.3896 5.42453L14.3896 14.5L4.21942 14.5L4.21942 1.5Z" fill="rgb(216,216,216)" fill-opacity="0" fill-rule="evenodd" />
			<path id="矩形" d="M10.5911 1.5L14.3896 5.42453L14.3896 14.5L4.21942 14.5L4.21942 1.5L10.5911 1.5Z" fill-rule="evenodd" stroke="rgb(0,0,0)" stroke-width="0.855833" />
			<path id="路径" d="M4.80846e-18 2.47961L2.71668 -2.82055e-13L5.57614 2.33913" fill="rgb(216,216,216)" fill-opacity="0" fill-rule="evenodd" transform="matrix(0.707107,0.707107,0.707107,-0.707107,8.79266,3.25781)" />
			<path id="路径" d="M4.80846e-18 2.47961L2.71668 -2.82055e-13L5.57614 2.33913" fill-rule="evenodd" stroke="rgb(0,0,0)" stroke-width="0.855833" transform="matrix(0.707107,0.707107,0.707107,-0.707107,8.79266,3.25781)" />
			<path id="路径 57" d="M5.81232 6.52832L9.03419 6.52832" opacity="0.200000003" stroke="rgb(0,0,0)" stroke-width="0.855833" />
			<path id="路径 57备份" d="M5.81232 8.61328L12.7966 8.61328" opacity="0.200000003" stroke="rgb(0,0,0)" stroke-width="0.855833" />
			<path id="路径 57备份 2" d="M5.81232 10.6982L12.7966 10.6982" opacity="0.200000003" stroke="rgb(0,0,0)" stroke-width="0.855833" />
		</g>
		<rect id="矩形" width="9.750000" height="5.416667" x="1.511108" y="6.375000" rx="1.083333" fill="rgb(0,0,0)" />
		<rect id="矩形" width="9.208333" height="4.875000" x="1.781942" y="6.645833" rx="0.812500" stroke="rgb(151,151,151)" stroke-opacity="0" stroke-width="0.541667" />
		<path id="" d="M4.17633 7.71692C3.92877 7.71692 3.72406 7.77246 3.56219 7.88275C3.38922 7.99939 3.30511 8.15887 3.30511 8.36359C3.30511 8.56512 3.39319 8.72144 3.57172 8.82855C3.64313 8.86743 3.81848 8.92932 4.10492 9.02057C4.36121 9.09833 4.51434 9.1499 4.56592 9.17609C4.71271 9.25067 4.78729 9.35144 4.78729 9.48157C4.78729 9.58551 4.73492 9.66724 4.63098 9.72516C4.52704 9.78387 4.38739 9.81641 4.21204 9.81641C4.01685 9.81641 3.87402 9.7807 3.7796 9.70929C3.67566 9.63153 3.6106 9.49823 3.58441 9.31573L3.2337 9.31573C3.25275 9.60852 3.35748 9.82275 3.54871 9.95923C3.70819 10.0703 3.92877 10.1282 4.21204 10.1282C4.50403 10.1282 4.73175 10.0703 4.89441 9.95288C5.05707 9.83307 5.138 9.67041 5.138 9.46252C5.138 9.2475 5.03723 9.08167 4.83887 8.96185C4.74841 8.90631 4.5437 8.83173 4.23108 8.73413C4.01367 8.66907 3.88037 8.62067 3.828 8.59131C3.71136 8.52942 3.65582 8.44849 3.65582 8.34454C3.65582 8.22711 3.70502 8.14301 3.80579 8.09064C3.88672 8.04541 4.00415 8.0224 4.15649 8.0224C4.33185 8.0224 4.46198 8.05493 4.55322 8.12317C4.64447 8.18823 4.70239 8.29852 4.73492 8.44849L5.08643 8.44849C5.06342 8.19458 4.97217 8.0097 4.80951 7.8891C4.65717 7.77246 4.44611 7.71692 4.17633 7.71692ZM5.46658 7.76215L5.46658 10.083L5.82046 10.083L5.82046 9.12451L6.44809 9.12451C6.58139 9.12451 6.68216 9.1499 6.75357 9.20862C6.82181 9.26733 6.86386 9.35858 6.87655 9.48792L6.90591 9.77753C6.9194 9.90765 6.95193 10.0116 7.00668 10.083L7.39071 10.083C7.31216 9.9989 7.26693 9.88464 7.25424 9.74182L7.21457 9.37128C7.18918 9.14355 7.07492 9.00708 6.86703 8.96185L6.86703 8.95551C6.99399 8.92297 7.09475 8.85474 7.16934 8.75079C7.2344 8.65637 7.26693 8.54926 7.26693 8.42548C7.26693 8.2049 7.19552 8.03906 7.0527 7.92163C6.91623 7.81451 6.72738 7.76215 6.49331 7.76215L5.46658 7.76215ZM5.82046 8.06445L6.44491 8.06445C6.60678 8.06445 6.72421 8.09381 6.80197 8.1557C6.87338 8.21442 6.91226 8.30884 6.91226 8.43817C6.91226 8.56195 6.87338 8.65637 6.79879 8.72144C6.72104 8.7865 6.6036 8.8222 6.44809 8.8222L5.82046 8.8222L5.82046 8.06445ZM7.53626 7.76215L7.53626 8.06445L8.31305 8.06445L8.31305 10.083L8.66456 10.083L8.66456 8.06445L9.43818 8.06445L9.43818 7.76215L7.53626 7.76215Z" fill="rgb(255,255,255)" fill-rule="nonzero" />
	</g>
</svg>
