<svg viewBox="0 0 15.5513 16" xmlns="http://www.w3.org/2000/svg" xmlns:xlink="http://www.w3.org/1999/xlink" width="15.551270" height="16.000000" fill="none" customFrame="#000000">
	<path id="矢量 105" d="M8.78789 16L7.4311 15.5477C6.83381 15.3487 6.35109 14.9937 5.98295 14.483C5.61481 13.9723 5.43072 13.4021 5.4307 12.7725L5.4307 10.8322L2.37239 10.8322C2.02637 10.8322 1.69617 10.7599 1.38178 10.6154C1.06738 10.4709 0.797537 10.2673 0.572233 10.0047C0.346929 9.74206 0.186757 9.4444 0.0917174 9.11169C-0.00332218 8.77898 -0.0245445 8.44162 0.0280504 8.09963L0.964204 2.01147C1.05318 1.43288 1.3198 0.953002 1.76407 0.571818C2.20833 0.190634 2.72316 2.76553e-05 3.30854 0L15.5513 0L15.5513 9.40898L11.7165 9.40898L8.78789 16ZM11.9933 7.82764L13.9699 7.82764L13.9699 1.58134L11.9933 1.58134L11.9933 7.82764ZM10.4119 1.58134L3.30933 1.58134C2.85726 1.58151 2.59687 1.80501 2.52815 2.25183L1.59121 8.33999C1.55436 8.57956 1.61489 8.7913 1.77277 8.97521C1.93066 9.15911 2.13079 9.25099 2.37318 9.25084L7.01204 9.25084L7.01204 12.7725C7.01202 13.4148 7.31616 13.8392 7.92447 14.0455L10.4119 8.45068L10.4119 1.58134Z" fill="rgb(154,154,154)" fill-rule="nonzero" />
</svg>
