<svg viewBox="0 0 24 24" xmlns="http://www.w3.org/2000/svg" xmlns:xlink="http://www.w3.org/1999/xlink" width="24.000000" height="24.000000" fill="none" customFrame="#000000">
	<rect id="容器 385" width="24.000000" height="24.000000" x="0.000000" y="0.000000" fill="rgb(196,196,196)" fill-opacity="0" />
	<path id="矢量 557" d="M5 6.16699L6.00004 21.3337L18 21.3337L19 6.16699" fill="rgb(216,216,216)" fill-opacity="0" fill-rule="evenodd" />
	<path id="矢量 557" d="M5.74838 6.11765L6.74842 21.2843L6.00004 21.3337L6.00004 20.5837L18 20.5837L18 21.3337L17.2516 21.2843L18.2516 6.11765L19.7484 6.21634L18.7021 22.0837L5.29787 22.0837L4.25163 6.21634L5.74838 6.11765ZM1.5 5.41699L22.5 5.41699L22.5 6.91699L1.5 6.91699L1.5 5.41699ZM7.91667 1.91699L16.0833 1.91699L16.0833 3.41699L7.91667 3.41699L7.91667 1.91699ZM9.25 10.2503L9.25 16.0837L7.75 16.0837L7.75 10.2503L9.25 10.2503ZM12.75 10.2503L12.75 16.0837L11.25 16.0837L11.25 10.2503L12.75 10.2503ZM16.25 10.2503L16.25 16.0837L14.75 16.0837L14.75 10.2503L16.25 10.2503ZM1.52 6.91699L0.75 6.91699L0.75 5.41699L1.52 5.41699L1.52 6.91699ZM22.48 5.41699L23.25 5.41699L23.25 6.91699L22.48 6.91699L22.48 5.41699ZM7.93667 3.41699L7.16667 3.41699L7.16667 1.91699L7.93667 1.91699L7.93667 3.41699ZM16.0633 1.91699L16.8333 1.91699L16.8333 3.41699L16.0633 3.41699L16.0633 1.91699ZM7.75 10.2703L7.75 9.50033L9.25 9.50033L9.25 10.2703L7.75 10.2703ZM9.25 16.0637L9.25 16.8337L7.75 16.8337L7.75 16.0637L9.25 16.0637ZM11.25 10.2703L11.25 9.50033L12.75 9.50033L12.75 10.2703L11.25 10.2703ZM12.75 16.0637L12.75 16.8337L11.25 16.8337L11.25 16.0637L12.75 16.0637ZM14.75 10.2703L14.75 9.50033L16.25 9.50033L16.25 10.2703L14.75 10.2703ZM16.25 16.0637L16.25 16.8337L14.75 16.8337L14.75 16.0637L16.25 16.0637Z" fill="rgb(0,0,0)" fill-rule="nonzero" />
</svg>
