<svg viewBox="0 0 14 14" xmlns="http://www.w3.org/2000/svg" xmlns:xlink="http://www.w3.org/1999/xlink" width="14.000000" height="14.000000" fill="none" customFrame="#000000">
	<defs>
		<filter id="pixso_custom_mask_type_alpha">
			<feColorMatrix type="matrix" values="0 0 0 0 1 0 0 0 0 1 0 0 0 0 1 0 0 0 1 0 " />
		</filter>
	</defs>
	<mask id="mask_2" width="14.000000" height="14.000000" x="0.000000" y="0.000000" maskUnits="userSpaceOnUse">
		<g filter="url(#pixso_custom_mask_type_alpha)">
			<rect id="矩形 107" width="14.000000" height="14.000000" x="0.000000" y="0.000000" fill="rgb(196,196,196)" />
		</g>
	</mask>
	<g id="组合 320" mask="url(#mask_2)">
		<g id="组合 319">
			<g id="组合 313">
				<path id="矢量 223" d="M2.40771 3.94224C2.40771 3.94224 4.68471 0.450853 8.63151 1.81705C12.5783 3.18325 12.4265 7.13002 12.4265 7.13002" fill-rule="nonzero" stroke="rgb(0,0,0)" stroke-width="0.899999976" />
				<path id="矢量 224" d="M12.4268 2.12012L12.4268 6.97768" stroke="rgb(0,0,0)" stroke-width="0.899999976" />
				<path id="矢量 225" d="M11.5159 10.0145C11.5159 10.0145 9.69426 13.3541 5.59567 12.2915C1.49707 11.2289 1.49707 6.97852 1.49707 6.97852" fill-rule="nonzero" stroke="rgb(0,0,0)" stroke-width="0.899999976" />
				<path id="矢量 226" d="M1.49707 6.97852L1.49707 11.8361" stroke="rgb(0,0,0)" stroke-width="0.899999976" />
			</g>
			<g id="A">
				<path id="矢量 227" d="M6.59517 4L4.5 10L5.24444 10L5.81131 8.32081L8.18665 8.32081L8.75173 10L9.5 10L7.40483 4L6.59517 4ZM7.96577 7.66443L7.54298 6.40805C7.46623 6.17718 7.37861 5.90336 7.28012 5.58658C7.20179 5.33462 7.10848 5.02322 7.0002 4.65237C6.89151 5.02608 6.79743 5.34016 6.71796 5.59463C6.61819 5.91409 6.53121 6.18524 6.45702 6.40805L6.03289 7.66443L7.96577 7.66443Z" fill="rgb(0,0,0)" fill-rule="evenodd" />
				<path id="矢量 227" d="M4.5 10L5.24444 10L5.81131 8.32081L8.18665 8.32081L8.75173 10L9.5 10L7.40483 4L6.59517 4L4.5 10ZM7.54298 6.40805C7.46623 6.17718 7.37861 5.90336 7.28012 5.58658C7.20179 5.33462 7.10848 5.02322 7.0002 4.65237C6.89151 5.02608 6.79743 5.34016 6.71796 5.59463C6.61819 5.91409 6.53121 6.18524 6.45702 6.40805L6.03289 7.66443L7.96577 7.66443L7.54298 6.40805Z" fill-rule="evenodd" stroke="rgb(0,0,0)" stroke-width="0.25" />
			</g>
		</g>
	</g>
</svg>
