<svg viewBox="0 0 13.2 13.2002" xmlns="http://www.w3.org/2000/svg" xmlns:xlink="http://www.w3.org/1999/xlink" width="13.199951" height="13.200195" fill="none" customFrame="#000000">
	<g id="组合 377">
		<path id="矢量 318" d="M10.8426 10.8427C11.9284 9.75694 12.6 8.25694 12.6 6.6001C12.6 4.94326 11.9284 3.44326 10.8426 2.35746C9.75682 1.27167 8.25682 0.600098 6.59998 0.600098C4.94314 0.600098 3.44314 1.27167 2.35733 2.35746C1.27155 3.44326 0.599976 4.94326 0.599976 6.6001C0.599976 8.25694 1.27155 9.75694 2.35733 10.8427C3.44314 11.9285 4.94314 12.6001 6.59998 12.6001C8.25682 12.6001 9.75682 11.9285 10.8426 10.8427Z" fill-rule="nonzero" stroke="rgb(154,154,154)" stroke-width="1.20000005" />
		<path id="矢量 319" d="M6.60004 2.7002C7.01425 2.7002 7.35004 3.03599 7.35004 3.4502C7.35004 3.86441 7.01425 4.2002 6.60004 4.2002C6.18583 4.2002 5.85004 3.86441 5.85004 3.4502C5.85004 3.03599 6.18583 2.7002 6.60004 2.7002Z" fill="rgb(154,154,154)" fill-rule="evenodd" />
		<path id="矢量 320" d="M6.75002 9.60015L6.75002 5.40015L6.45002 5.40015L6.15002 5.40015" fill-rule="nonzero" stroke="rgb(154,154,154)" stroke-width="1.20000005" />
		<path id="矢量 321" d="M5.70001 9.6001L7.80001 9.6001" stroke="rgb(154,154,154)" stroke-width="1.20000005" />
	</g>
</svg>
