<svg viewBox="0 0 15.5513 16" xmlns="http://www.w3.org/2000/svg" xmlns:xlink="http://www.w3.org/1999/xlink" width="15.551331" height="16.000000" fill="none" customFrame="#000000">
	<path id="矢量 106" d="M8.78795 16L7.43116 15.5477C6.83387 15.3487 6.35115 14.9937 5.98301 14.483C5.61487 13.9723 5.43079 13.4021 5.43076 12.7725L5.43076 10.8322L2.37245 10.8322C2.02643 10.8322 1.69623 10.7599 1.38184 10.6154C1.06745 10.4709 0.797598 10.2673 0.572294 10.0047C0.34699 9.74206 0.186818 9.4444 0.0917784 9.11169C-0.00326115 8.77898 -0.0244835 8.44162 0.0281114 8.09963L0.964265 2.01147C1.05324 1.43288 1.31986 0.953002 1.76413 0.571818C2.2084 0.190634 2.72322 2.76553e-05 3.3086 0L15.5513 0L15.5513 9.40898L11.7166 9.40898L8.78795 16ZM11.9933 7.82764L13.97 7.82764L13.97 1.58134L11.9933 1.58134L11.9933 7.82764ZM10.412 1.58134L3.30939 1.58134C2.85732 1.58151 2.59693 1.80501 2.52821 2.25183L1.59127 8.33999C1.55442 8.57956 1.61495 8.7913 1.77283 8.97521C1.93072 9.15911 2.13086 9.25099 2.37324 9.25084L7.0121 9.25084L7.0121 12.7725C7.01208 13.4148 7.31622 13.8392 7.92454 14.0455L10.412 8.45068L10.412 1.58134Z" fill="rgb(0,117,255)" fill-rule="nonzero" />
</svg>
