<svg viewBox="0 0 182 28" xmlns="http://www.w3.org/2000/svg" xmlns:xlink="http://www.w3.org/1999/xlink" width="182.000000" height="28.000000" fill="none" customFrame="#000000">
	<defs>
		<linearGradient id="paint_linear_0" x1="-1.27907181" x2="38.6775131" y1="23.4086418" y2="1.07673836" gradientUnits="userSpaceOnUse">
			<stop stop-color="rgb(0,116,255)" offset="0.0399999991" stop-opacity="1" />
			<stop stop-color="rgb(4,159,252)" offset="0.159999996" stop-opacity="1" />
			<stop stop-color="rgb(8,203,250)" offset="0.300000012" stop-opacity="1" />
			<stop stop-color="rgb(11,230,248)" offset="0.409999996" stop-opacity="1" />
			<stop stop-color="rgb(12,241,248)" offset="0.469999999" stop-opacity="1" />
			<stop stop-color="rgb(14,241,241)" offset="0.519999981" stop-opacity="1" />
			<stop stop-color="rgb(19,242,223)" offset="0.579999983" stop-opacity="1" />
			<stop stop-color="rgb(28,243,193)" offset="0.649999976" stop-opacity="1" />
			<stop stop-color="rgb(41,246,152)" offset="0.74000001" stop-opacity="1" />
			<stop stop-color="rgb(47,247,135)" offset="0.769999981" stop-opacity="1" />
			<stop stop-color="rgb(49,247,126)" offset="0.790000021" stop-opacity="1" />
			<stop stop-color="rgb(56,248,103)" offset="0.839999974" stop-opacity="1" />
			<stop stop-color="rgb(67,251,65)" offset="0.899999976" stop-opacity="1" />
			<stop stop-color="rgb(83,254,14)" offset="0.959999979" stop-opacity="1" />
			<stop stop-color="rgb(88,255,0)" offset="0.980000019" stop-opacity="1" />
		</linearGradient>
	</defs>
	<rect id="容器 123" width="182.000015" height="28.000000" x="0.000000" y="0.000000" />
	<path id="矢量 471" d="M31.1082 2.59348L24.9001 2.59348C23.6931 2.59348 22.5796 3.45628 22.2556 4.64605L18.8692 17.0594L18.3694 18.8916L17.629 2.59348L8.2938 2.59348C7.09395 2.59348 5.98773 3.45196 5.66508 4.63164L0 25.405C0 25.405 2.81353e-06 25.4079 0.0028836 25.4079L6.24268 25.4079C7.43244 25.4079 8.52858 24.5581 8.84691 23.387L12.6971 9.26827L12.6971 9.2726L13.4807 25.4065L22.8115 25.4065C24.0143 25.4065 25.1248 24.5451 25.4475 23.3611L31.1111 2.59492C31.1111 2.59492 31.1111 2.59204 31.1097 2.59204L31.1082 2.59348Z" fill="url(#paint_linear_0)" fill-rule="nonzero" />
	<path id="" d="M48.4744 21L48.4744 5.75662L55.9233 5.75662C57.8338 5.75662 59.2747 6.11994 60.2459 6.84657C61.2171 7.56966 61.7027 8.53024 61.7027 9.7283C61.7027 10.5223 61.506 11.2117 61.1125 11.7966C60.7191 12.3814 60.1785 12.8351 59.4909 13.1577C58.8068 13.4802 58.0235 13.6415 57.1409 13.6415L57.5503 12.7429C58.5108 12.7429 59.3598 12.9025 60.097 13.2215C60.8343 13.5369 61.4121 13.9995 61.8303 14.6092C62.2521 15.2153 62.463 15.9579 62.463 16.8369C62.463 18.1484 61.9473 19.171 60.9158 19.9047C59.8843 20.6349 58.3655 21 56.3593 21L48.4744 21ZM51.9729 18.3522L56.1041 18.3522C57.0115 18.3522 57.7027 18.2016 58.1776 17.9003C58.6562 17.5955 58.8954 17.1187 58.8954 16.4701C58.8954 15.8249 58.6562 15.3482 58.1776 15.0398C57.7027 14.7314 57.0115 14.5773 56.1041 14.5773L51.7177 14.5773L51.7177 12.0092L55.4873 12.0092C56.3487 12.0092 57.0044 11.8586 57.4546 11.5573C57.9083 11.256 58.1351 10.8058 58.1351 10.2068C58.1351 9.6007 57.9083 9.14877 57.4546 8.85102C57.0044 8.55328 56.3487 8.40441 55.4873 8.40441L51.9729 8.40441L51.9729 18.3522ZM72.5301 21.2552C71.3285 21.2552 70.2173 21.0603 69.1965 20.6704C68.1792 20.2769 67.2966 19.7257 66.5487 19.0168C65.8008 18.3044 65.2195 17.4696 64.8048 16.5126C64.3901 15.5556 64.1827 14.5099 64.1827 13.3757C64.1827 12.2378 64.3901 11.1922 64.8048 10.2387C65.2195 9.28523 65.8008 8.45226 66.5487 7.7398C67.2966 7.02735 68.1792 6.47617 69.1965 6.08627C70.2138 5.69637 71.3214 5.50141 72.5195 5.50141C73.7246 5.50141 74.8323 5.69637 75.8425 6.08627C76.8563 6.47262 77.7353 7.02203 78.4797 7.73449C79.2276 8.4434 79.8089 9.27637 80.2236 10.2334C80.6383 11.1869 80.8457 12.2343 80.8457 13.3757C80.8457 14.517 80.6383 15.568 80.2236 16.5285C79.8089 17.4856 79.2276 18.3185 78.4797 19.0275C77.7353 19.7364 76.8563 20.2858 75.8425 20.6757C74.8323 21.062 73.7282 21.2552 72.5301 21.2552ZM72.5195 18.2671C73.2001 18.2671 73.8292 18.1484 74.407 17.9109C74.9847 17.6734 75.4881 17.3385 75.917 16.906C76.3458 16.4701 76.679 15.9543 76.9165 15.3588C77.1576 14.7598 77.2781 14.0987 77.2781 13.3757C77.2781 12.649 77.1593 11.9897 76.9218 11.3978C76.6844 10.8023 76.3494 10.2883 75.917 9.85591C75.4881 9.41992 74.9847 9.08319 74.407 8.84571C73.8292 8.60822 73.2001 8.48948 72.5195 8.48948C71.8389 8.48948 71.2098 8.60822 70.632 8.84571C70.0543 9.08319 69.5492 9.41992 69.1167 9.85591C68.6843 10.2919 68.3475 10.8076 68.1065 11.4031C67.869 11.995 67.7503 12.6526 67.7503 13.3757C67.7503 14.0952 67.869 14.7545 68.1065 15.3535C68.3475 15.949 68.6825 16.4665 69.1114 16.906C69.5438 17.342 70.0489 17.6787 70.6267 17.9162C71.208 18.1502 71.8389 18.2671 72.5195 18.2671ZM86.6471 21L86.6471 14.774L87.4553 16.9114L80.7401 5.75662L84.4938 5.75662L89.6245 14.3061L87.4765 14.3061L92.6392 5.75662L96.0898 5.75662L89.3959 16.9114L90.1828 14.774L90.1828 21L86.6471 21ZM94.4193 21L101.214 5.75662L104.702 5.75662L111.513 21L107.828 21L102.235 7.5484L103.633 7.5484L98.0401 21L94.4193 21ZM97.8274 17.7408L98.7525 15.0611L106.611 15.0611L107.547 17.7408L97.8274 17.7408ZM119.274 21L119.274 5.75662L122.182 5.75662L131.184 16.7412L129.775 16.7412L129.775 5.75662L133.263 5.75662L133.263 21L130.349 21L121.348 10.0154L122.756 10.0154L122.756 21L119.274 21ZM142.198 21.1648C140.954 21.1648 139.85 20.9061 138.885 20.3886C137.921 19.8711 137.161 19.1586 136.605 18.2512C136.048 17.3438 135.77 16.3052 135.77 15.1355C135.77 13.9587 136.048 12.9184 136.605 12.0145C137.165 11.1107 137.925 10.4018 138.885 9.88781C139.846 9.37385 140.95 9.11686 142.198 9.11686C143.442 9.11686 144.548 9.37385 145.516 9.88781C146.487 10.4018 147.247 11.1107 147.796 12.0145C148.346 12.9149 148.621 13.9552 148.621 15.1355C148.621 16.3088 148.346 17.3491 147.796 18.2565C147.251 19.1604 146.49 19.8711 145.516 20.3886C144.544 20.9061 143.438 21.1648 142.198 21.1648ZM142.198 18.3841C142.769 18.3841 143.277 18.2565 143.724 18.0013C144.174 17.7425 144.53 17.3668 144.792 16.8741C145.055 16.3814 145.186 15.8019 145.186 15.1355C145.186 14.4585 145.055 13.879 144.792 13.3969C144.53 12.9149 144.174 12.5462 143.724 12.291C143.277 12.0323 142.77 11.9029 142.203 11.9029C141.633 11.9029 141.124 12.0323 140.677 12.291C140.231 12.5462 139.873 12.9149 139.603 13.3969C139.337 13.879 139.204 14.4585 139.204 15.1355C139.204 15.8019 139.337 16.3814 139.603 16.8741C139.873 17.3668 140.231 17.7425 140.677 18.0013C141.124 18.2565 141.631 18.3841 142.198 18.3841ZM155.691 21.1648C154.305 21.1648 153.23 20.8157 152.464 20.1174C151.698 19.4191 151.316 18.3717 151.316 16.9752L151.316 6.68707L154.713 6.68707L154.713 16.9167C154.713 17.4129 154.841 17.7975 155.096 18.0704C155.355 18.3434 155.709 18.4798 156.159 18.4798C156.702 18.4798 157.162 18.3363 157.542 18.0492L158.445 20.4417C158.102 20.6863 157.687 20.8689 157.201 20.9894C156.716 21.1063 156.212 21.1648 155.691 21.1648ZM149.497 11.8923L149.497 9.287L157.627 9.287L157.627 11.8923L149.497 11.8923ZM160.374 21L160.374 9.287L163.612 9.287L163.612 12.5994L163.166 11.6424C163.509 10.8094 164.066 10.1802 164.835 9.75489C165.604 9.32954 166.544 9.11686 167.653 9.11686L167.653 12.2538C167.504 12.2325 167.369 12.2166 167.249 12.2059C167.132 12.1953 167.013 12.19 166.893 12.19C165.95 12.19 165.193 12.4576 164.622 12.9928C164.055 13.5281 163.772 14.354 163.772 15.4705L163.772 21L160.374 21ZM176.084 21L176.084 18.7191L175.876 18.2033L175.876 14.1147C175.876 13.3881 175.655 12.8245 175.212 12.4239C174.769 12.0199 174.086 11.8178 173.165 11.8178C172.548 11.8178 171.938 11.9153 171.336 12.1102C170.733 12.3017 170.217 12.5639 169.788 12.8971L168.576 10.5365C169.221 10.0721 169.992 9.71944 170.889 9.47841C171.786 9.23738 172.7 9.11686 173.632 9.11686C175.422 9.11686 176.81 9.53867 177.796 10.3823C178.781 11.2223 179.274 12.5303 179.274 14.3061L179.274 21L176.084 21ZM172.521 21.1648C171.61 21.1648 170.827 21.0106 170.171 20.7023C169.519 20.3939 169.019 19.9721 168.672 19.4368C168.328 18.8981 168.156 18.292 168.156 17.6185C168.156 16.9308 168.324 16.3247 168.661 15.8001C169.001 15.2755 169.542 14.8644 170.283 14.5666C171.024 14.2689 171.988 14.12 173.175 14.12L176.28 14.12L176.28 16.0979L173.553 16.0979C172.752 16.0979 172.202 16.2273 171.904 16.486C171.607 16.7448 171.458 17.0762 171.458 17.4803C171.458 17.9056 171.626 18.2477 171.963 18.5064C172.303 18.7616 172.769 18.8892 173.361 18.8892C173.932 18.8892 174.444 18.7563 174.898 18.4905C175.352 18.2246 175.678 17.8258 175.876 17.2942L176.392 18.8733C176.151 19.6176 175.702 20.1865 175.047 20.58C174.395 20.9699 173.553 21.1648 172.521 21.1648Z" fill="rgb(0,0,0)" fill-rule="nonzero" />
</svg>
