<svg viewBox="0 0 16 16" xmlns="http://www.w3.org/2000/svg" xmlns:xlink="http://www.w3.org/1999/xlink" width="16.000000" height="16.000000" fill="none" customFrame="#000000">
	<rect id="容器 233" width="16.000000" height="16.000000" x="0.000000" y="0.000000" fill="rgb(196,196,196)" fill-opacity="0" />
	<g id="编组 100">
		<g id="编组 97备份">
			<path id="矩形" d="M4.21942 1.5L10.5911 1.5L14.3896 5.42453L14.3896 14.5L4.21942 14.5L4.21942 1.5Z" fill="rgb(216,216,216)" fill-opacity="0" fill-rule="evenodd" />
			<path id="矩形" d="M10.5911 1.5L14.3896 5.42453L14.3896 14.5L4.21942 14.5L4.21942 1.5L10.5911 1.5Z" fill-rule="evenodd" stroke="rgb(0,0,0)" stroke-width="0.855833" />
			<path id="路径" d="M4.80846e-18 2.47961L2.71668 -2.82055e-13L5.57614 2.33913" fill="rgb(216,216,216)" fill-opacity="0" fill-rule="evenodd" transform="matrix(0.707107,0.707107,0.707107,-0.707107,8.79266,3.25781)" />
			<path id="路径" d="M4.80846e-18 2.47961L2.71668 -2.82055e-13L5.57614 2.33913" fill-rule="evenodd" stroke="rgb(0,0,0)" stroke-width="0.855833" transform="matrix(0.707107,0.707107,0.707107,-0.707107,8.79266,3.25781)" />
			<path id="路径 57" d="M5.81232 6.52832L9.03419 6.52832" opacity="0.200000003" stroke="rgb(0,0,0)" stroke-width="0.855833" />
			<path id="路径 57备份" d="M5.81232 8.61328L12.7966 8.61328" opacity="0.200000003" stroke="rgb(0,0,0)" stroke-width="0.855833" />
			<path id="路径 57备份 2" d="M5.81232 10.6982L12.7966 10.6982" opacity="0.200000003" stroke="rgb(0,0,0)" stroke-width="0.855833" />
		</g>
		<rect id="矩形备份 316" width="9.750000" height="5.416667" x="1.511108" y="6.375000" rx="1.083333" fill="rgb(0,0,0)" />
		<rect id="矩形备份 316" width="9.208333" height="4.875000" x="1.781942" y="6.645833" rx="0.812500" stroke="rgb(151,151,151)" stroke-opacity="0" stroke-width="0.541667" />
		<path id="" d="M3.18451 7.7628L3.18451 8.0651L3.9613 8.0651L3.9613 10.0837L4.31281 10.0837L4.31281 8.0651L5.08643 8.0651L5.08643 7.7628L3.18451 7.7628ZM5.20952 7.7628L5.98949 8.88475L5.15398 10.0837L5.58641 10.0837L6.20769 9.16404L6.82817 10.0837L7.26061 10.0837L6.41875 8.88475L7.20506 7.7628L6.77263 7.7628L6.20769 8.60148L5.64195 7.7628L5.20952 7.7628ZM7.32501 7.7628L7.32501 8.0651L8.1018 8.0651L8.1018 10.0837L8.45331 10.0837L8.45331 8.0651L9.22693 8.0651L9.22693 7.7628L7.32501 7.7628Z" fill="rgb(255,255,255)" fill-rule="nonzero" />
	</g>
</svg>
