<svg viewBox="0 0 16 16" xmlns="http://www.w3.org/2000/svg" xmlns:xlink="http://www.w3.org/1999/xlink" width="16.000000" height="16.000000" fill="none" customFrame="#000000">
	<rect id="容器 232" width="16.000000" height="16.000000" x="0.000000" y="0.000000" fill="rgb(196,196,196)" fill-opacity="0" />
	<g id="编组 97备份 2">
		<g id="编组 101">
			<path id="矩形" d="M4.21942 1.5L10.5911 1.5L14.3896 5.42453L14.3896 14.5L4.21942 14.5L4.21942 1.5Z" fill="rgb(216,216,216)" fill-opacity="0" fill-rule="evenodd" />
			<path id="矩形" d="M10.5911 1.5L14.3896 5.42453L14.3896 14.5L4.21942 14.5L4.21942 1.5L10.5911 1.5Z" fill-rule="evenodd" stroke="rgb(0,0,0)" stroke-width="0.855833" />
			<path id="路径" d="M4.80846e-18 2.47961L2.71668 -2.82055e-13L5.57614 2.33913" fill="rgb(216,216,216)" fill-opacity="0" fill-rule="evenodd" transform="matrix(0.707107,0.707107,0.707107,-0.707107,8.79266,3.25781)" />
			<path id="路径" d="M4.80846e-18 2.47961L2.71668 -2.82055e-13L5.57614 2.33913" fill-rule="evenodd" stroke="rgb(0,0,0)" stroke-width="0.855833" transform="matrix(0.707107,0.707107,0.707107,-0.707107,8.79266,3.25781)" />
			<path id="路径 57" d="M5.81232 6.52832L9.03419 6.52832" opacity="0.200000003" stroke="rgb(0,0,0)" stroke-width="0.855833" />
			<path id="路径 57备份" d="M5.81232 8.61328L12.7966 8.61328" opacity="0.200000003" stroke="rgb(0,0,0)" stroke-width="0.855833" />
			<path id="路径 57备份 2" d="M5.81232 10.6982L12.7966 10.6982" opacity="0.200000003" stroke="rgb(0,0,0)" stroke-width="0.855833" />
			<rect id="矩形备份 317" width="9.750000" height="5.416667" x="1.511108" y="6.375000" rx="1.083333" fill="rgb(0,0,0)" />
			<rect id="矩形备份 317" width="9.208333" height="4.875000" x="1.781942" y="6.645833" rx="0.812500" stroke="rgb(151,151,151)" stroke-opacity="0" stroke-width="0.541667" />
			<path id="" d="M2.28046 7.7628L2.28046 10.0837L3.11835 10.0837C3.49286 10.0837 3.77533 9.97972 3.97052 9.77183C4.1554 9.57029 4.24982 9.28703 4.24982 8.92362C4.24982 8.55625 4.15857 8.27378 3.97687 8.07859C3.78168 7.86753 3.49921 7.7628 3.12549 7.7628L2.28046 7.7628ZM2.63434 8.0651L3.06042 8.0651C3.35242 8.0651 3.56744 8.13334 3.70392 8.27378C3.83405 8.41026 3.90228 8.62449 3.90228 8.92362C3.90228 9.21562 3.83405 9.43064 3.70074 9.57029C3.56427 9.70994 3.34607 9.78135 3.05408 9.78135L2.63434 9.78135L2.63434 8.0651ZM5.47494 7.71757C5.12106 7.71757 4.84097 7.83103 4.63943 8.0651C4.44503 8.28648 4.35061 8.57212 4.35061 8.9268C4.35061 9.27751 4.44503 9.56394 4.63943 9.78453C4.84097 10.0122 5.12106 10.1289 5.47494 10.1289C5.82565 10.1289 6.10574 10.0154 6.31045 9.7877C6.50485 9.56712 6.60244 9.28068 6.60244 8.9268C6.60244 8.56895 6.50485 8.28013 6.31045 8.06193C6.10574 7.83103 5.82565 7.71757 5.47494 7.71757ZM5.47494 8.0294C5.72171 8.0294 5.91372 8.10795 6.04702 8.26982C6.17715 8.4293 6.24539 8.6475 6.24539 8.9268C6.24539 9.20292 6.17715 9.42033 6.04702 9.57664C5.91372 9.73612 5.72171 9.81706 5.47494 9.81706C5.22818 9.81706 5.03616 9.73295 4.89968 9.57029C4.76956 9.41081 4.70449 9.19657 4.70449 8.9268C4.70449 8.65385 4.76956 8.43882 4.89968 8.28013C5.03616 8.11112 5.22818 8.0294 5.47494 8.0294ZM7.80485 7.71757C7.4351 7.71757 7.15501 7.83818 6.96062 8.08494C6.78447 8.30235 6.70036 8.58244 6.70036 8.9268C6.70036 9.27751 6.78129 9.5568 6.9503 9.76548C7.14232 10.0059 7.42796 10.1289 7.80882 10.1289C8.05876 10.1289 8.27299 10.0575 8.45231 9.91465C8.64354 9.76152 8.76414 9.55046 8.81572 9.28068L8.47136 9.28068C8.42613 9.46318 8.3444 9.59965 8.22777 9.6901C8.11748 9.775 7.97386 9.81706 7.80485 9.81706C7.54539 9.81706 7.35338 9.73612 7.2296 9.57347C7.11296 9.42033 7.05424 9.2061 7.05424 8.9268C7.05424 8.65702 7.11296 8.44279 7.23356 8.28648C7.35972 8.1143 7.54857 8.0294 7.79851 8.0294C7.96751 8.0294 8.10399 8.0651 8.21507 8.14048C8.32536 8.21507 8.39995 8.33171 8.43883 8.48802L8.78319 8.48802C8.74748 8.25395 8.64354 8.0651 8.47453 7.92863C8.29918 7.78581 8.07463 7.71757 7.80485 7.71757ZM8.8549 7.7628L9.63486 8.88475L8.79935 10.0837L9.23179 10.0837L9.85307 9.16404L10.4735 10.0837L10.906 10.0837L10.0641 8.88475L10.8504 7.7628L10.418 7.7628L9.85307 8.60148L9.28733 7.7628L8.8549 7.7628Z" fill="rgb(255,255,255)" fill-rule="nonzero" />
		</g>
	</g>
</svg>
