<svg viewBox="0 0 1949.47 179.473" xmlns="http://www.w3.org/2000/svg" xmlns:xlink="http://www.w3.org/1999/xlink" width="1949.472412" height="179.472534" fill="none" customFrame="#000000">
	<mask id="mask_0" width="1920.000000" height="150.000000" x="14.736206" y="11.461548" opacity="0.599999964" maskUnits="userSpaceOnUse">
		<g filter="url(#pixso_custom_mask_type_alpha)">
			<g filter="url(#filter_0)">
				<rect id="蒙版" width="1920.000000" height="150.000000" x="14.736206" y="11.461548" fill="rgb(221,235,254)" />
				<rect id="蒙版" width="1919.181274" height="149.181320" x="15.145547" y="11.870889" stroke="rgb(0,0,0)" stroke-opacity="0" stroke-width="0.81868124" />
			</g>
		</g>
	</mask>
	<defs>
		<g id="pixso_custom_effect_0">
			<effect x="0.000000" y="3.274725" visibility="visible" fill="rgb(0,0,0)" fill-opacity="0.100000001" effectType="dropShadow" stdDeviation="13.0988998" radius="1.63736248" />
		</g>
		<filter id="filter_0" width="1949.472412" height="179.472534" x="0.000000" y="0.000000" filterUnits="userSpaceOnUse" customEffect="url(#pixso_custom_effect_0)" color-interpolation-filters="sRGB">
			<feFlood flood-opacity="0" result="BackgroundImageFix" />
			<feColorMatrix result="hardAlpha" in="SourceAlpha" type="matrix" values="0 0 0 0 0 0 0 0 0 0 0 0 0 0 0 0 0 0 1.66667 0 " />
			<feOffset dx="0.000031" dy="3.274719" in="hardAlpha" />
			<feMorphology radius="1.63736248" operator="dilate" />
			<feOffset dx="-0.000031" dy="0.000006" />
			<feGaussianBlur stdDeviation="4.36630011" />
			<feComposite k2="-1" k3="1" in2="hardAlpha" operator="out" />
			<feColorMatrix type="matrix" values="0 0 0 0 0 0 0 0 0 0 0 0 0 0 0 0 0 0 0.1 0 " />
			<feBlend result="effect_dropShadow_1" in2="BackgroundImageFix" mode="normal" />
			<feBlend result="shape" in="SourceGraphic" in2="effect_dropShadow_1" mode="normal" />
		</filter>
		<filter id="pixso_custom_mask_type_alpha">
			<feColorMatrix type="matrix" values="0 0 0 0 1 0 0 0 0 1 0 0 0 0 1 0 0 0 1 0 " />
		</filter>
		<g id="pixso_custom_effect_1">
			<effect visibility="visible" effectType="gaussianBlur" stdDeviation="88.4175644" />
		</g>
		<filter id="filter_1" width="941.799072" height="256.401001" x="1196.018799" y="-79.873596" filterUnits="userSpaceOnUse" customEffect="url(#pixso_custom_effect_1)" color-interpolation-filters="sRGB">
			<feFlood flood-opacity="0" result="BackgroundImageFix" />
			<feBlend result="shape" in="SourceGraphic" in2="BackgroundImageFix" mode="normal" />
			<feGaussianBlur stdDeviation="29.4725208" result="effect_layerBlur_1" />
		</filter>
		<g id="pixso_custom_effect_2">
			<effect visibility="visible" effectType="gaussianBlur" stdDeviation="88.4175644" />
		</g>
		<filter id="filter_2" width="1036.674561" height="241.952271" x="-185.274658" y="-85.197754" filterUnits="userSpaceOnUse" customEffect="url(#pixso_custom_effect_2)" color-interpolation-filters="sRGB">
			<feFlood flood-opacity="0" result="BackgroundImageFix" />
			<feBlend result="shape" in="SourceGraphic" in2="BackgroundImageFix" mode="normal" />
			<feGaussianBlur stdDeviation="29.4725208" result="effect_layerBlur_1" />
		</filter>
		<g id="pixso_custom_effect_3">
			<effect visibility="visible" effectType="gaussianBlur" stdDeviation="92.510994" />
		</g>
		<filter id="filter_3" width="989.388000" height="227.076843" x="492.353943" y="-81.049438" filterUnits="userSpaceOnUse" customEffect="url(#pixso_custom_effect_3)" color-interpolation-filters="sRGB">
			<feFlood flood-opacity="0" result="BackgroundImageFix" />
			<feBlend result="shape" in="SourceGraphic" in2="BackgroundImageFix" mode="normal" />
			<feGaussianBlur stdDeviation="30.836998" result="effect_layerBlur_1" />
		</filter>
	</defs>
	<g id="底">
		<rect id="矩形 203" width="1920.000000" height="150.000000" x="14.736206" y="11.461548" fill="rgb(255,255,255)" />
		<rect id="矩形 203" width="1919.181274" height="149.181320" x="15.145547" y="11.870889" stroke="rgb(0,0,0)" stroke-opacity="0" stroke-width="0.81868124" />
		<g id="组合 863" opacity="0.599999964" mask="url(#mask_0)">
			<g id="彩色" opacity="0.50999999">
				<g filter="url(#filter_1)">
					<path id="椭圆 26" d="M1284.44 34.5717C1284.44 21.8083 1456.91 11.4615 1669.67 11.4615C1882.43 11.4615 2049.4 2.72491 2049.4 15.4883C2049.4 23.3239 1740.34 87.3317 1640.92 88.1057C1578.39 88.5925 1751.81 45.9811 1669.67 45.9811C1456.91 45.9811 1284.44 47.3351 1284.44 34.5717Z" opacity="0.5" fill="rgb(1,132,254)" fill-rule="evenodd" />
					<path id="椭圆 26" d="M1669.67 11.4615C1456.91 11.4615 1284.44 21.8083 1284.44 34.5717C1284.44 46.1932 1427.43 46.1104 1613.63 46.0026C1631.92 45.992 1650.63 45.9811 1669.67 45.9811C1713.73 45.9811 1684.26 58.2418 1657.12 69.5346C1633.66 79.2945 1611.93 88.3314 1640.92 88.1057C1740.34 87.3317 2049.4 23.3239 2049.4 15.4883C2049.4 6.94194 1974.54 8.0354 1861.19 9.69092C1805.26 10.5078 1739.96 11.4615 1669.67 11.4615ZM1519.74 14.0961C1567.45 12.8855 1617.43 12.2802 1669.67 12.2802C1700.72 12.2802 1734.44 12.0872 1770.83 11.7012C1792.23 11.4742 1822.35 11.0769 1861.2 10.5095C1897.38 9.98111 1923.12 9.64966 1938.42 9.51516C1963.27 9.29674 1983.06 9.31918 1997.78 9.58246C2014.87 9.88804 2027.56 10.5462 2035.83 11.5568C2040.23 12.0942 2043.52 12.7391 2045.69 13.4913C2046.75 13.8552 2047.52 14.2367 2048.02 14.6358C2048.33 14.8838 2048.51 15.1212 2048.56 15.3482C2048.46 15.4425 2048.3 15.5534 2048.09 15.6809C2047.55 16.0064 2046.72 16.3876 2045.61 16.8247C2043.37 17.7055 2040.06 18.7773 2035.7 20.0401C2027.08 22.5327 2014.97 25.5974 1999.37 29.2343C1966.33 36.9348 1927.3 45.0703 1882.29 53.6409C1832.37 63.1446 1787.13 70.8391 1746.57 76.7244C1699.28 83.5859 1664.06 87.1068 1640.91 87.2871C1634.14 87.3397 1629.95 86.8984 1628.33 85.963C1628.08 85.8138 1627.92 85.6712 1627.86 85.5352C1627.82 85.4513 1627.83 85.3397 1627.88 85.2004C1628.09 84.6836 1628.74 84.0256 1629.83 83.2266C1631.9 81.7231 1635.6 79.7579 1640.95 77.331C1644.2 75.8566 1649.69 73.5098 1657.43 70.2905C1666.58 66.4824 1673.13 63.6631 1677.07 61.8327C1683.72 58.743 1688.24 56.1808 1690.63 54.1462C1692.17 52.8319 1692.97 51.6174 1693.04 50.5028C1693.05 50.2094 1693.02 49.9291 1692.95 49.6618C1692.68 48.722 1691.85 47.9427 1690.44 47.3241C1687.17 45.883 1680.25 45.1625 1669.67 45.1625C1657.04 45.1625 1638.36 45.1696 1613.62 45.1839C1553.34 45.2187 1510.02 45.1833 1483.64 45.0776C1440.4 44.9043 1405.59 44.5008 1379.23 43.8672C1348.25 43.1227 1325.09 41.9874 1309.77 40.4611C1301.5 39.6377 1295.29 38.6878 1291.15 37.6116C1289.07 37.0711 1287.52 36.5037 1286.5 35.9094C1285.67 35.4249 1285.26 34.979 1285.26 34.5717C1285.26 34.0912 1285.78 33.5386 1286.84 32.9137C1288.09 32.1765 1289.97 31.4385 1292.49 30.6998C1297.54 29.2202 1304.98 27.7825 1314.82 26.3868C1334.3 23.625 1361.79 21.1786 1397.32 19.0476C1432.85 16.9157 1473.66 15.2652 1519.74 14.0961Z" opacity="0.5" fill="rgb(0,0,0)" fill-opacity="0" fill-rule="evenodd" />
				</g>
				<g filter="url(#filter_2)">
					<path id="椭圆 28" d="M-95.4584 19.519C-95.4584 4.05947 123.574 3.21979 351.899 3.21979C580.224 3.21979 580.205 8.66592 580.205 24.1254C580.205 32.3117 854.006 41.0461 731.382 54.9523C676.755 61.1472 400.25 72.0228 269.585 67.0897C139.652 62.1842 155.555 41.4873 101.996 41.4873C-126.33 41.4873 -95.4584 34.9785 -95.4584 19.519Z" opacity="0.5" fill="rgb(11,234,248)" fill-rule="evenodd" />
					<path id="椭圆 28" d="M351.899 3.21979C123.574 3.21979 -95.4584 4.05947 -95.4584 19.519C-95.4584 21.2766 -95.8574 22.9186 -96.2292 24.4485C-99.1277 36.3744 -100.37 41.4873 101.996 41.4873C155.555 41.4873 139.652 62.1842 269.585 67.0897C400.25 72.0228 676.755 61.1472 731.382 54.9523C808.86 46.1659 728.08 39.4442 658.098 33.6208C617.318 30.2276 580.205 27.1393 580.205 24.1254L580.205 24.1215C580.205 8.665 580.205 3.21979 351.899 3.21979ZM185.68 4.41121C226.524 4.16271 281.93 4.03847 351.899 4.03847C408.796 4.03847 452.786 4.4025 483.869 5.13057C514.716 5.85306 537.284 7.03878 551.573 8.68774C558.426 9.4786 563.886 10.4182 567.954 11.5065C571.641 12.4929 574.371 13.6538 576.146 14.9891C577.202 15.7835 577.988 16.7095 578.505 17.7673C578.697 18.1606 578.852 18.5722 578.97 19.0019C579.154 19.6743 579.275 20.4706 579.333 21.3909C579.369 21.9667 579.387 22.877 579.387 24.1215L579.387 24.1254C579.387 24.1872 579.392 24.2481 579.401 24.3083C579.512 24.9857 580.249 25.5607 581.611 26.0331C582.719 26.4169 584.345 26.8087 586.492 27.2082C590.365 27.9293 596.124 28.7081 603.77 29.5447C610.177 30.2457 618.471 31.0458 628.651 31.945C634.792 32.4874 644.585 33.318 658.03 34.4367C681.808 36.4152 699.094 37.9329 709.888 38.9898C728.047 40.7676 741.382 42.4313 749.891 43.9808C754.842 44.8824 758.336 45.7657 760.375 46.6307C761.33 47.0361 761.913 47.4022 762.125 47.729C762.153 47.7732 762.166 47.8014 762.163 47.8138C762.146 47.8876 762.064 47.9883 761.918 48.1162C759.695 50.0677 749.486 52.0753 731.289 54.1388C717.5 55.7026 691.908 57.4357 654.513 59.3383C616.477 61.2733 574.63 62.9524 528.972 64.3757C478.75 65.941 432.151 66.9247 389.175 67.3269C340.232 67.7848 300.379 67.433 269.616 66.2716C235.704 64.9913 208.121 62.4615 186.866 58.6821C178.715 57.233 171.059 55.5242 163.897 53.5555C159.681 52.3966 154.215 50.7073 147.5 48.4876C143.204 47.0673 139.996 46.0445 137.878 45.4192C134.393 44.391 131.089 43.5624 127.964 42.9333C120.464 41.4235 111.808 40.6686 101.996 40.6686C52.0886 40.6685 13.1773 40.3402 -14.7385 39.6836C-41.779 39.0475 -61.5326 38.0285 -73.9995 36.6265C-79.8936 35.9637 -84.538 35.1845 -87.9327 34.2889C-90.969 33.4879 -93.131 32.561 -94.4189 31.5082C-95.0784 30.969 -95.5363 30.355 -95.7924 29.6659C-95.9233 29.3139 -96.0015 28.9423 -96.0271 28.5512C-96.0776 27.7803 -95.8798 26.4772 -95.4337 24.6418C-94.9043 22.4637 -94.6396 20.756 -94.6396 19.519C-94.6397 18.8954 -93.949 18.2278 -92.5678 17.516C-90.986 16.701 -88.6017 15.9214 -85.4147 15.1773C-79.1711 13.7195 -69.8965 12.4155 -57.5909 11.2654C-34.9816 9.15218 -1.57823 7.52721 42.6193 6.39048C80.2685 5.42216 127.955 4.76241 185.68 4.41121Z" opacity="0.5" fill="rgb(0,0,0)" fill-opacity="0" fill-rule="evenodd" />
				</g>
				<g filter="url(#filter_3)">
					<path id="椭圆 27" d="M584.865 33.1199C584.865 21.1583 722.882 11.4615 893.135 11.4615C1063.39 11.4615 1370.65 13.7991 1370.65 25.7607C1370.65 37.7223 1450.24 53.5164 1279.98 53.5164C1109.73 53.5164 584.865 45.0815 584.865 33.1199Z" opacity="0.599999964" fill="rgb(38,246,163)" fill-rule="evenodd" />
					<path id="椭圆 27" d="M893.135 11.4615C722.882 11.4615 584.865 21.1583 584.865 33.1199C584.865 45.0815 1109.73 53.5164 1279.98 53.5164C1408.32 53.5164 1394.69 44.5418 1380.21 34.9993C1375.47 31.8827 1370.65 28.7056 1370.65 25.7607C1370.65 13.7991 1063.39 11.4615 893.135 11.4615ZM773.167 13.9819C811.342 12.8474 851.331 12.2802 893.135 12.2802C942.941 12.2802 991.751 12.4643 1039.57 12.8323C1098.75 13.288 1150.81 13.9919 1195.72 14.944C1249.29 16.0797 1290.69 17.5308 1319.93 19.2973C1336.22 20.2813 1348.58 21.3565 1357 22.5229C1361.4 23.1317 1364.71 23.7621 1366.93 24.4143C1368.01 24.734 1368.82 25.0518 1369.34 25.3675C1369.55 25.4968 1369.7 25.6156 1369.79 25.7238C1369.81 25.7472 1369.83 25.7663 1369.83 25.7812C1369.84 27.3334 1370.94 29.0514 1373.12 30.9353C1374.34 31.9932 1376.56 33.5758 1379.76 35.683C1382.15 37.2565 1383.84 38.4235 1384.82 39.184C1386.42 40.4057 1387.48 41.4576 1388 42.3394C1388.34 42.9061 1388.46 43.4248 1388.36 43.8956C1388.31 44.128 1388.21 44.3488 1388.05 44.5579C1387.37 45.4568 1385.82 46.2895 1383.41 47.056C1377.72 48.8618 1367.17 50.2258 1351.77 51.1478C1334.52 52.1811 1310.59 52.6977 1279.98 52.6977C1234.76 52.6977 1174.62 52.1961 1099.56 51.1929C1018.38 50.108 941.391 48.7055 868.598 46.9853C784.344 44.9942 718.002 42.8442 669.574 40.5354C642.557 39.2473 621.974 37.9407 607.827 36.6155C600.368 35.9169 594.743 35.2168 590.95 34.5152C589.035 34.1609 587.604 33.81 586.658 33.4624C586.229 33.3047 585.919 33.1564 585.73 33.0174C585.717 33.0079 585.705 32.999 585.694 32.9909C585.764 32.5675 586.173 32.0968 586.922 31.5788C587.906 30.8982 589.396 30.2151 591.394 29.5293C595.42 28.147 601.363 26.8029 609.224 25.4971C624.798 22.9102 646.794 20.6184 675.212 18.6218C703.645 16.6242 736.296 15.0776 773.167 13.9819Z" opacity="0.599999964" fill="rgb(0,0,0)" fill-opacity="0" fill-rule="evenodd" />
				</g>
			</g>
		</g>
	</g>
</svg>
