<svg viewBox="0 0 14 14" xmlns="http://www.w3.org/2000/svg" xmlns:xlink="http://www.w3.org/1999/xlink" width="14.000000" height="14.000000" fill="none">
	<rect id="svg 4" width="14.000000" height="14.000000" x="0.000000" y="0.000000" />
	<path id="矢量 486" d="M3.7915 3.6258L3.7915 2.27856C3.7915 1.82552 4.15877 1.45825 4.61182 1.45825L11.7212 1.45825C12.1742 1.45825 12.5415 1.82552 12.5415 2.27856L12.5415 9.38794C12.5415 9.84098 12.1742 10.2083 11.7212 10.2083L10.3588 10.2083" fill-rule="nonzero" stroke="rgb(0,0,0)" stroke-linecap="square" stroke-width="0.899999976" />
	<path id="矢量 487" d="M2.27881 3.79175C1.82576 3.79175 1.4585 4.15901 1.4585 4.61206L1.4585 11.7214C1.4585 12.1745 1.82576 12.5417 2.27881 12.5417L9.38818 12.5417C9.84123 12.5417 10.2085 12.1745 10.2085 11.7214L10.2085 4.61206C10.2085 4.15901 9.84123 3.79175 9.38818 3.79175L2.27881 3.79175Z" fill-rule="nonzero" stroke="rgb(0,0,0)" stroke-width="0.899999976" />
</svg>
