<svg viewBox="0 0 24 24" xmlns="http://www.w3.org/2000/svg" xmlns:xlink="http://www.w3.org/1999/xlink" width="24.000000" height="24.000000" fill="none" customFrame="#000000">
	<rect id="容器 384" width="24.000000" height="24.000000" x="0.000000" y="0.000000" fill="rgb(196,196,196)" fill-opacity="0" />
	<path id="矢量 546" d="M8.1296 18.2488C8.1296 16.913 7.04641 15.829 5.71035 15.829C4.37457 15.829 3.29138 16.913 3.29138 18.2488C3.29138 19.5846 4.37457 20.6663 5.71035 20.6663C7.04641 20.6663 8.1296 19.5846 8.1296 18.2488ZM20.7086 18.2488C20.7086 16.913 19.6254 15.829 18.2894 15.829C16.9536 15.829 15.8704 16.913 15.8704 18.2488C15.8704 19.5846 16.9536 20.6663 18.2894 20.6663C19.6254 20.6663 20.7086 19.5846 20.7086 18.2488ZM7.82826 19.4145L8.85532 17.675L17.08 3.42826M6.91799 3.33301L15.1427 17.5798L16.1737 19.4145" fill-rule="evenodd" stroke="rgb(0,0,0)" stroke-linecap="square" stroke-width="1.5" />
</svg>
